<?xml version="1.0" encoding="UTF-8" standalone="no"?>
<!-- Created with Inkscape (http://www.inkscape.org/) -->

<svg
   xmlns:dc="http://purl.org/dc/elements/1.1/"
   xmlns:cc="http://creativecommons.org/ns#"
   xmlns:rdf="http://www.w3.org/1999/02/22-rdf-syntax-ns#"
   xmlns:svg="http://www.w3.org/2000/svg"
   xmlns="http://www.w3.org/2000/svg"
   xmlns:sodipodi="http://sodipodi.sourceforge.net/DTD/sodipodi-0.dtd"
   xmlns:inkscape="http://www.inkscape.org/namespaces/inkscape"
   width="100%"
   height="100%"
   viewBox="0 0 210 210"
   version="1.1"
   id="svg8"
   inkscape:version="0.92.2 (5c3e80d, 2017-08-06)"
   sodipodi:docname="b1.svg">
  <defs
     id="defs2" />
  <sodipodi:namedview
     id="base"
     pagecolor="#ffffff"
     bordercolor="#666666"
     borderopacity="1.0"
     inkscape:pageopacity="0.0"
     inkscape:pageshadow="2"
     inkscape:zoom="2.8115912"
     inkscape:cx="105"
     inkscape:cy="105"
     inkscape:document-units="mm"
     inkscape:current-layer="g4752"
     showgrid="false"
     inkscape:snap-text-baseline="false"
     inkscape:window-width="1680"
     inkscape:window-height="987"
     inkscape:window-x="-8"
     inkscape:window-y="-8"
     inkscape:window-maximized="1" />
  <metadata
     id="metadata5">
    <rdf:RDF>
      <cc:Work
         rdf:about="">
        <dc:format>image/svg+xml</dc:format>
        <dc:type
           rdf:resource="http://purl.org/dc/dcmitype/StillImage" />
        <dc:title />
      </cc:Work>
    </rdf:RDF>
  </metadata>
  <g
     inkscape:label="Capa 1"
     inkscape:groupmode="layer"
     id="layer1"
     transform="translate(0,-87)">
    <g
       id="g137"
       transform="matrix(0.48389394,0,0,0.48389394,123.76119,129.3377)"
       style="fill:#646464;fill-opacity:1">
      <g
         id="g83"
         style="fill:#646464;fill-opacity:1" />
      <g
         id="g85"
         style="fill:#646464;fill-opacity:1" />
      <g
         id="g87"
         style="fill:#646464;fill-opacity:1" />
      <g
         id="g89"
         style="fill:#646464;fill-opacity:1" />
      <g
         id="g91"
         style="fill:#646464;fill-opacity:1" />
      <g
         id="g93"
         style="fill:#646464;fill-opacity:1" />
      <g
         id="g95"
         style="fill:#646464;fill-opacity:1" />
      <g
         id="g97"
         style="fill:#646464;fill-opacity:1" />
      <g
         id="g99"
         style="fill:#646464;fill-opacity:1" />
      <g
         id="g101"
         style="fill:#646464;fill-opacity:1" />
      <g
         id="g103"
         style="fill:#646464;fill-opacity:1" />
      <g
         id="g105"
         style="fill:#646464;fill-opacity:1" />
      <g
         id="g107"
         style="fill:#646464;fill-opacity:1" />
      <g
         id="g109"
         style="fill:#646464;fill-opacity:1" />
      <g
         id="g111"
         style="fill:#646464;fill-opacity:1" />
      <g
         id="g500"
         style="fill:#646464;fill-opacity:1">
        <g
           id="g5078"
           style="fill:#646464;fill-opacity:1">
          <g
             id="g81"
             style="fill:#646464;fill-opacity:1">
            <path
               id="path79"
               d="M 44.885,12.23 C 44.043,9.631 42.891,7.774 40.43,7.774 H 20.618 V 3.523 C 20.618,1.577 18.934,0 16.858,0 c -2.077,0 -3.761,1.577 -3.761,3.523 0,1.254 0,3.272 0,4.555 -1.513,0.641 -2.407,2.263 -2.972,4.152 0,0 -1.633,11.68 -1.633,19.108 0,7.427 1.633,19.105 1.633,19.105 0.761,2.492 1.996,4.457 4.456,4.457 H 40.43 c 2.461,0 3.676,-1.938 4.455,-4.457 0,0 1.594,-12.272 1.521,-19.105 C 46.364,23.687 44.885,12.23 44.885,12.23 Z m -4.271,2.825 v 19.45 c 0,0.974 -0.789,1.761 -1.761,1.761 H 15.97 c -0.973,0 -1.761,-0.787 -1.761,-1.761 v -19.45 c 0,-0.973 0.788,-1.76 1.761,-1.76 h 22.883 c 0.972,10e-4 1.761,0.788 1.761,1.76 z M 21.453,46.357 h -6.398 c -0.922,0 -1.669,-0.748 -1.669,-1.67 0,-0.922 0.747,-1.668 1.669,-1.668 h 6.398 c 0.921,0 1.669,0.746 1.669,1.668 -0.001,0.922 -0.749,1.67 -1.669,1.67 z m 5.997,1.297 c -1.639,0 -2.967,-1.326 -2.967,-2.967 0,-1.64 1.328,-2.967 2.967,-2.967 1.64,0 2.967,1.327 2.967,2.967 -0.001,1.641 -1.328,2.967 -2.967,2.967 z M 40.227,46.357 H 33.83 c -0.921,0 -1.669,-0.748 -1.669,-1.67 0,-0.922 0.748,-1.668 1.669,-1.668 h 6.397 c 0.922,0 1.67,0.746 1.67,1.668 0,0.922 -0.749,1.67 -1.67,1.67 z"
               inkscape:connector-curvature="0"
               style="fill:#646464;fill-opacity:1" />
          </g>
          <g
             id="text494"
             style="font-style:normal;font-variant:normal;font-weight:bold;font-stretch:normal;font-size:11.32589149px;line-height:1.25;font-family:Arial;-inkscape-font-specification:'Arial Bold';letter-spacing:0px;word-spacing:0px;fill:#646464;fill-opacity:1;stroke:none;stroke-width:0.28314728"
             aria-label="GPS"
             transform="translate(0.26563698)">
            <path
               id="path5065"
               style="font-style:normal;font-variant:normal;font-weight:bold;font-stretch:normal;font-family:Arial;-inkscape-font-specification:'Arial Bold';stroke-width:0.28314728;fill:#646464;fill-opacity:1"
               d="m 19.823857,25.030953 v -1.365965 h 3.528281 v 3.229649 q -0.514311,0.49772 -1.49316,0.879305 -0.973319,0.376055 -1.974289,0.376055 -1.27195,0 -2.217618,-0.530901 -0.945668,-0.536431 -1.421267,-1.526341 -0.475599,-0.99544 -0.475599,-2.162316 0,-1.266421 0.530902,-2.2508 0.530901,-0.984379 1.553992,-1.50975 0.779761,-0.403706 1.941107,-0.403706 1.50975,0 2.355874,0.635975 0.851654,0.630445 1.094983,1.74755 l -1.625884,0.304162 q -0.171437,-0.597264 -0.647036,-0.940137 -0.470069,-0.348404 -1.177937,-0.348404 -1.072863,0 -1.708838,0.680217 -0.630445,0.680217 -0.630445,2.01853 0,1.443388 0.641505,2.167847 0.641506,0.718928 1.681187,0.718928 0.514311,0 1.028621,-0.199088 0.519841,-0.204618 0.890366,-0.492189 v -1.028621 z"
               inkscape:connector-curvature="0" />
            <path
               id="path5067"
               style="font-style:normal;font-variant:normal;font-weight:bold;font-stretch:normal;font-family:Arial;-inkscape-font-specification:'Arial Bold';stroke-width:0.28314728;fill:#646464;fill-opacity:1"
               d="m 24.856357,28.011742 v -8.107304 h 2.626855 q 1.493159,0 1.946638,0.121665 0.696807,0.182498 1.166876,0.796352 0.470069,0.608324 0.470069,1.576113 0,0.74658 -0.270981,1.25536 -0.270981,0.50878 -0.691278,0.801882 -0.414766,0.287571 -0.846123,0.381585 -0.586204,0.116135 -1.697778,0.116135 h -1.067333 v 3.058212 z m 1.636945,-6.735809 v 2.300572 h 0.895896 q 0.967789,0 1.294072,-0.127195 0.326283,-0.127195 0.50878,-0.398176 0.188028,-0.270981 0.188028,-0.630445 0,-0.442418 -0.259921,-0.729989 -0.25992,-0.287572 -0.658096,-0.359465 -0.293102,-0.0553 -1.177937,-0.0553 z"
               inkscape:connector-curvature="0" />
            <path
               id="path5069"
               style="font-style:normal;font-variant:normal;font-weight:bold;font-stretch:normal;font-family:Arial;-inkscape-font-specification:'Arial Bold';stroke-width:0.28314728;fill:#646464;fill-opacity:1"
               d="m 32.006932,25.373826 1.592703,-0.154846 q 0.143786,0.801882 0.580673,1.177937 0.442418,0.376055 1.188998,0.376055 0.790821,0 1.188997,-0.331813 0.403706,-0.337343 0.403706,-0.785291 0,-0.287572 -0.171437,-0.48666 -0.165906,-0.204618 -0.586203,-0.353934 -0.287571,-0.09954 -1.310662,-0.353934 -1.316193,-0.326283 -1.847094,-0.801882 -0.74658,-0.669157 -0.74658,-1.631415 0,-0.619385 0.348404,-1.155816 0.353934,-0.541962 1.012031,-0.824003 0.663626,-0.282041 1.598233,-0.282041 1.526341,0 2.295042,0.669157 0.774231,0.669156 0.812942,1.786261 l -1.636945,0.07189 q -0.105074,-0.624915 -0.453478,-0.895896 -0.342874,-0.276511 -1.034151,-0.276511 -0.713399,0 -1.117105,0.293102 -0.25992,0.188027 -0.25992,0.50325 0,0.287571 0.243329,0.492189 0.309693,0.259921 1.50422,0.541962 1.194528,0.282041 1.764141,0.586203 0.575143,0.298632 0.895895,0.824003 0.326283,0.519841 0.326283,1.288542 0,0.696807 -0.387115,1.305132 -0.387115,0.608324 -1.094984,0.906956 -0.707868,0.293101 -1.76414,0.293101 -1.537401,0 -2.361404,-0.707868 -0.824003,-0.713398 -0.984379,-2.073833 z"
               inkscape:connector-curvature="0" />
          </g>
        </g>
      </g>
    </g>
    <g
       id="g203"
       transform="matrix(0.05910753,0,0,0.05910753,76.685157,105.84357)"
       style="fill:#646464;fill-opacity:1">
      <g
         id="g145"
         style="fill:#646464;fill-opacity:1">
        <g
           id="g143"
           style="fill:#646464;fill-opacity:1">
          <path
             id="path139"
             d="m 118.774,383.722 h 310.632 c 12.562,0 23.312,-4.47 32.257,-13.422 8.949,-8.949 13.422,-19.698 13.422,-32.258 V 137.046 c 0,-12.563 -4.473,-23.313 -13.422,-32.261 -8.945,-8.947 -19.694,-13.418 -32.257,-13.418 H 118.774 c -12.562,0 -23.318,4.471 -32.264,13.418 -8.947,8.947 -13.418,19.698 -13.418,32.261 v 200.997 c 0,12.56 4.471,23.312 13.418,32.258 8.946,8.945 19.702,13.421 32.264,13.421 z m -9.14,-246.676 c 0,-2.474 0.905,-4.619 2.713,-6.423 1.811,-1.806 3.953,-2.712 6.427,-2.712 h 310.625 c 2.478,0 4.619,0.904 6.427,2.712 1.803,1.809 2.707,3.949 2.707,6.423 v 200.997 c 0,2.471 -0.904,4.617 -2.707,6.42 -1.808,1.808 -3.949,2.714 -6.427,2.714 H 118.771 c -2.475,0 -4.617,-0.903 -6.427,-2.714 -1.805,-1.81 -2.71,-3.949 -2.71,-6.42 z"
             inkscape:connector-curvature="0"
             style="fill:#646464;fill-opacity:1" />
          <path
             id="path141"
             d="M 502.496,401.997 H 45.681 0 v 27.404 c 0,7.618 4.471,14.086 13.417,19.414 8.951,5.328 19.702,7.994 32.264,7.994 h 456.815 c 12.56,0 23.312,-2.666 32.258,-7.994 8.946,-5.328 13.422,-11.796 13.422,-19.414 v -27.404 z m -205.568,27.404 h -45.681 c -3.042,0 -4.565,-1.526 -4.565,-4.568 0,-3.046 1.523,-4.575 4.565,-4.575 h 45.681 c 3.045,0 4.571,1.529 4.571,4.575 0,3.042 -1.526,4.568 -4.571,4.568 z"
             inkscape:connector-curvature="0"
             style="fill:#646464;fill-opacity:1" />
        </g>
      </g>
      <g
         id="g147"
         style="fill:#646464;fill-opacity:1" />
      <g
         id="g149"
         style="fill:#646464;fill-opacity:1" />
      <g
         id="g151"
         style="fill:#646464;fill-opacity:1" />
      <g
         id="g153"
         style="fill:#646464;fill-opacity:1" />
      <g
         id="g155"
         style="fill:#646464;fill-opacity:1" />
      <g
         id="g157"
         style="fill:#646464;fill-opacity:1" />
      <g
         id="g159"
         style="fill:#646464;fill-opacity:1" />
      <g
         id="g161"
         style="fill:#646464;fill-opacity:1" />
      <g
         id="g163"
         style="fill:#646464;fill-opacity:1" />
      <g
         id="g165"
         style="fill:#646464;fill-opacity:1" />
      <g
         id="g167"
         style="fill:#646464;fill-opacity:1" />
      <g
         id="g169"
         style="fill:#646464;fill-opacity:1" />
      <g
         id="g171"
         style="fill:#646464;fill-opacity:1" />
      <g
         id="g173"
         style="fill:#646464;fill-opacity:1" />
      <g
         id="g175"
         style="fill:#646464;fill-opacity:1" />
    </g>
    <g
       id="g287"
       transform="matrix(0.49718313,0,0,0.49718313,165.52328,207.69594)"
       style="fill:#646464;fill-opacity:1">
      <g
         id="g223"
         style="fill:#646464;fill-opacity:1">
        <path
           id="path205"
           d="M 53.516,1.143 C 53.216,0.961 52.842,0.953 52.533,1.116 L 36,9.869 19.468,1.116 C 19.455,1.109 19.44,1.107 19.427,1.101 19.379,1.078 19.33,1.061 19.28,1.046 19.252,1.038 19.225,1.029 19.197,1.023 19.142,1.012 19.086,1.008 19.029,1.006 19.004,1.005 18.979,1.002 18.953,1.003 c -0.054,0.003 -0.107,0.013 -0.16,0.025 -0.03,0.006 -0.06,0.01 -0.089,0.019 -0.007,0.002 -0.014,0.002 -0.02,0.004 l -18,6 C 0.275,7.187 0,7.569 0,8 v 43 c 0,0.321 0.154,0.623 0.416,0.812 C 0.588,51.935 0.793,52 1,52 1.106,52 1.213,51.983 1.316,51.948 l 17.646,-5.882 16.657,6.859 c 0.014,0.006 0.03,0.004 0.044,0.009 C 35.773,52.973 35.885,53 36,53 c 0.09,0 0.179,-0.015 0.266,-0.039 0.028,-0.008 0.054,-0.021 0.082,-0.031 0.04,-0.015 0.082,-0.026 0.12,-0.046 l 17,-9 C 53.795,43.711 54,43.37 54,43 V 2 C 54,1.649 53.816,1.324 53.516,1.143 Z M 2,8.721 18,3.388 V 30.38 c -0.43,0.078 -0.854,0.166 -1.264,0.274 -0.534,0.142 -0.852,0.689 -0.71,1.223 0.119,0.448 0.523,0.744 0.966,0.744 0.084,0 0.171,-0.011 0.257,-0.033 0.24,-0.064 0.502,-0.096 0.751,-0.148 V 44.28 L 2,49.612 Z M 20,32.16 c 0.321,-0.025 0.632,-0.066 0.961,-0.073 0.552,-0.012 0.99,-0.469 0.979,-1.021 -0.012,-0.545 -0.457,-0.979 -1,-0.979 -0.007,0 -0.015,0 -0.022,0 -0.31,0.007 -0.615,0.024 -0.918,0.045 V 3.661 l 15,7.941 v 21.194 c -0.714,-0.031 -1.44,-0.115 -2.201,-0.262 -0.544,-0.107 -1.067,0.249 -1.172,0.791 -0.105,0.542 0.25,1.067 0.792,1.172 0.886,0.172 1.746,0.256 2.582,0.289 V 50.507 L 20,44.33 Z m 32,10.237 -15,7.941 v -15.66 c 0.372,-0.169 0.62,-0.549 0.587,-0.98 C 37.558,33.324 37.318,33.024 37,32.877 V 11.602 L 52,3.661 Z"
           inkscape:connector-curvature="0"
           style="fill:#646464;fill-opacity:1" />
        <path
           id="path207"
           d="m 11,9 c -2.757,0 -5,2.243 -5,5 0,2.415 1.721,4.434 4,4.899 V 21 c 0,0.553 0.448,1 1,1 0.552,0 1,-0.447 1,-1 V 18.899 C 14.279,18.434 16,16.415 16,14 16,11.243 13.757,9 11,9 Z m 0,8 c -1.654,0 -3,-1.346 -3,-3 0,-1.654 1.346,-3 3,-3 1.654,0 3,1.346 3,3 0,1.654 -1.346,3 -3,3 z"
           inkscape:connector-curvature="0"
           style="fill:#646464;fill-opacity:1" />
        <path
           id="path209"
           d="m 45.07,27.673 c 0.12,0.047 0.243,0.068 0.364,0.068 0.4,0 0.777,-0.241 0.932,-0.636 0.47,-1.199 0.847,-2.553 1.123,-4.024 0.102,-0.542 -0.256,-1.064 -0.799,-1.167 -0.546,-0.09 -1.065,0.257 -1.167,0.8 -0.252,1.348 -0.595,2.58 -1.019,3.663 -0.201,0.513 0.052,1.094 0.566,1.296 z"
           inkscape:connector-curvature="0"
           style="fill:#646464;fill-opacity:1" />
        <path
           id="path211"
           d="m 12.805,32.342 c -1.207,0.757 -2.295,1.705 -3.235,2.82 -0.356,0.422 -0.302,1.053 0.12,1.409 0.188,0.158 0.417,0.235 0.644,0.235 0.285,0 0.567,-0.121 0.765,-0.355 0.806,-0.956 1.737,-1.769 2.768,-2.414 0.468,-0.294 0.609,-0.911 0.316,-1.379 -0.293,-0.468 -0.911,-0.61 -1.378,-0.316 z"
           inkscape:connector-curvature="0"
           style="fill:#646464;fill-opacity:1" />
        <path
           id="path213"
           d="M 8.627,38.276 C 8.125,38.046 7.531,38.263 7.3,38.765 c -1.026,2.226 -1.28,4.023 -1.291,4.099 -0.075,0.547 0.307,1.05 0.854,1.125 0.046,0.007 0.093,0.01 0.138,0.01 0.491,0 0.919,-0.362 0.99,-0.861 0.002,-0.016 0.231,-1.597 1.125,-3.534 0.231,-0.503 0.012,-1.096 -0.489,-1.328 z"
           inkscape:connector-curvature="0"
           style="fill:#646464;fill-opacity:1" />
        <path
           id="path215"
           d="m 40.423,33.729 c 0.153,0 0.309,-0.035 0.454,-0.109 1.292,-0.661 2.431,-1.599 3.384,-2.786 0.346,-0.431 0.277,-1.061 -0.154,-1.406 -0.43,-0.343 -1.06,-0.276 -1.406,0.154 -0.776,0.967 -1.696,1.726 -2.735,2.257 -0.492,0.252 -0.687,0.854 -0.435,1.346 0.178,0.345 0.529,0.544 0.892,0.544 z"
           inkscape:connector-curvature="0"
           style="fill:#646464;fill-opacity:1" />
        <path
           id="path217"
           d="m 29.17,31.432 c -0.441,-0.185 -0.699,-0.313 -0.716,-0.322 -0.065,-0.033 -0.134,-0.06 -0.205,-0.078 -1.083,-0.278 -2.15,-0.498 -3.173,-0.654 -0.545,-0.086 -1.056,0.291 -1.14,0.837 -0.083,0.546 0.292,1.057 0.838,1.14 0.926,0.142 1.893,0.34 2.877,0.59 0.134,0.064 0.39,0.185 0.748,0.334 0.126,0.053 0.257,0.077 0.385,0.077 0.391,0 0.763,-0.23 0.923,-0.614 0.213,-0.512 -0.027,-1.098 -0.537,-1.31 z"
           inkscape:connector-curvature="0"
           style="fill:#646464;fill-opacity:1" />
        <path
           id="path219"
           d="m 46.923,19.931 c 0.022,10e-4 0.043,0.002 0.065,0.002 0.523,0 0.963,-0.406 0.997,-0.937 0.062,-0.961 0.093,-1.978 0.093,-3.02 0,-0.347 -0.003,-0.699 -0.01,-1.058 -0.01,-0.553 -0.49,-0.973 -1.018,-0.982 -0.552,0.01 -0.992,0.466 -0.982,1.018 0.006,0.347 0.01,0.688 0.01,1.022 0,1 -0.03,1.973 -0.089,2.893 -0.035,0.551 0.383,1.026 0.934,1.062 z"
           inkscape:connector-curvature="0"
           style="fill:#646464;fill-opacity:1" />
        <path
           id="path221"
           d="M 8.293,28.707 C 8.488,28.902 8.744,29 9,29 9.256,29 9.512,28.902 9.707,28.707 L 11,27.414 12.293,28.707 C 12.488,28.902 12.744,29 13,29 c 0.256,0 0.512,-0.098 0.707,-0.293 0.391,-0.391 0.391,-1.023 0,-1.414 L 12.414,26 13.707,24.707 c 0.391,-0.391 0.391,-1.023 0,-1.414 -0.391,-0.391 -1.023,-0.391 -1.414,0 L 11,24.586 9.707,23.293 c -0.391,-0.391 -1.023,-0.391 -1.414,0 -0.391,0.391 -0.391,1.023 0,1.414 L 9.586,26 8.293,27.293 c -0.391,0.39 -0.391,1.023 0,1.414 z"
           inkscape:connector-curvature="0"
           style="fill:#646464;fill-opacity:1" />
      </g>
      <g
         id="g225"
         style="fill:#646464;fill-opacity:1" />
      <g
         id="g227"
         style="fill:#646464;fill-opacity:1" />
      <g
         id="g229"
         style="fill:#646464;fill-opacity:1" />
      <g
         id="g231"
         style="fill:#646464;fill-opacity:1" />
      <g
         id="g233"
         style="fill:#646464;fill-opacity:1" />
      <g
         id="g235"
         style="fill:#646464;fill-opacity:1" />
      <g
         id="g237"
         style="fill:#646464;fill-opacity:1" />
      <g
         id="g239"
         style="fill:#646464;fill-opacity:1" />
      <g
         id="g241"
         style="fill:#646464;fill-opacity:1" />
      <g
         id="g243"
         style="fill:#646464;fill-opacity:1" />
      <g
         id="g245"
         style="fill:#646464;fill-opacity:1" />
      <g
         id="g247"
         style="fill:#646464;fill-opacity:1" />
      <g
         id="g249"
         style="fill:#646464;fill-opacity:1" />
      <g
         id="g251"
         style="fill:#646464;fill-opacity:1" />
      <g
         id="g253"
         style="fill:#646464;fill-opacity:1" />
    </g>
    <g
       id="g416"
       transform="matrix(0.08736826,0,0,0.08736826,159.99496,252.04396)"
       style="fill:#646464;fill-opacity:1">
      <g
         id="XMLID_25_"
         style="fill:#646464;fill-opacity:1">
        <path
           d="m 152.499,18.751 c -5.135,0 -10.298,0.277 -15.413,0.825 1.72,-2.81 2.343,-5.945 1.694,-8.993 C 137.435,4.253 130.987,0 122.734,0 c -1.686,0 -3.405,0.183 -5.115,0.544 -4.786,1.018 -8.987,3.317 -11.827,6.475 -3.038,3.378 -4.253,7.393 -3.421,11.304 0.653,3.079 2.544,5.715 5.325,7.587 C 80.543,34.878 56.217,52.161 38.743,75.01 19.531,100.13 9.375,130.169 9.375,161.876 9.375,240.794 73.58,305 152.499,305 c 78.919,0 143.126,-64.206 143.126,-143.124 0,-78.92 -64.207,-143.125 -143.126,-143.125 z M 122.734,9.686 c 3.727,0 6.269,1.479 6.572,2.909 0.169,0.798 -0.287,1.831 -1.202,2.827 -2.325,-1.112 -4.997,-1.441 -7.56,-0.896 -2.534,0.539 -4.822,1.909 -6.507,3.857 -1.211,-0.539 -2.025,-1.29 -2.192,-2.075 -0.19,-0.895 0.396,-2.096 1.567,-3.211 1.506,-1.435 3.774,-2.556 6.22,-3.076 1.046,-0.222 2.09,-0.335 3.102,-0.335 z m 60.791,251.644 -11.414,-18.512 c -0.553,-0.898 -1.613,-1.354 -2.646,-1.133 -1.035,0.22 -1.818,1.065 -1.959,2.112 l -2.891,21.518 c -4.021,0.464 -8.088,0.7 -12.116,0.7 -27.05,0 -52.524,-10.243 -71.996,-28.896 0.207,-0.082 0.406,-0.193 0.591,-0.334 l 56.476,-42.923 c 3.778,1.761 7.869,2.854 11.987,3.204 l 14.33,30.075 c 0.498,1.045 1.65,1.611 2.777,1.37 1.131,-0.24 1.949,-1.225 1.979,-2.381 l 0.861,-33.291 c 3.154,-1.726 5.998,-3.912 8.486,-6.522 l 16.918,5.997 c 1.092,0.386 2.303,-0.025 2.932,-0.995 0.631,-0.97 0.514,-2.245 -0.283,-3.083 l -12.359,-13.014 c 1.373,-3.34 2.215,-6.829 2.506,-10.408 l 30.061,-14.328 c 1.045,-0.497 1.611,-1.645 1.371,-2.777 -0.24,-1.131 -1.225,-1.949 -2.381,-1.979 l -30.738,-0.794 41.396,-54.469 c 0.139,-0.184 0.25,-0.382 0.332,-0.587 11.15,11.653 19.479,25.742 24.213,40.97 l -18.512,11.414 c -0.898,0.554 -1.354,1.614 -1.133,2.648 0.219,1.033 1.064,1.817 2.111,1.957 l 21.516,2.891 c 0.467,4.036 0.701,8.103 0.701,12.116 0,27.814 -10.832,53.966 -30.504,73.637 -11.956,11.956 -26.655,20.855 -42.612,25.817 z M 72.688,178.84 c -0.22,-1.034 -1.065,-1.817 -2.112,-1.958 L 49.06,173.988 c -0.466,-4.036 -0.701,-8.102 -0.701,-12.113 0,-27.819 10.833,-53.971 30.504,-73.639 11.956,-11.955 26.655,-20.856 42.61,-25.821 l 11.415,18.515 c 0.554,0.899 1.617,1.355 2.647,1.133 1.034,-0.22 1.817,-1.066 1.958,-2.112 l 2.892,-21.517 c 4.018,-0.465 8.084,-0.7 12.114,-0.7 27.051,0 52.526,10.243 71.997,28.896 -0.205,0.082 -0.402,0.193 -0.588,0.333 l -56.477,42.923 c -3.775,-1.76 -7.865,-2.854 -11.986,-3.204 L 141.112,96.606 c -0.498,-1.044 -1.651,-1.611 -2.776,-1.37 -1.131,0.24 -1.95,1.225 -1.98,2.381 l -0.86,33.293 c -3.153,1.725 -5.998,3.91 -8.487,6.52 l -16.919,-5.997 c -1.091,-0.386 -2.303,0.026 -2.932,0.995 -0.63,0.97 -0.513,2.245 0.284,3.083 l 12.359,13.015 c -1.371,3.341 -2.211,6.83 -2.504,10.409 l -30.063,14.326 c -1.044,0.498 -1.61,1.646 -1.37,2.777 0.24,1.131 1.225,1.949 2.381,1.979 l 30.741,0.794 -41.396,54.469 c -0.141,0.185 -0.252,0.384 -0.334,0.59 C 66.107,222.223 57.779,208.133 53.042,192.897 l 18.511,-11.412 c 0.9,-0.552 1.354,-1.612 1.135,-2.645 z m 93.189,4.89 c -2.482,1.521 -5.191,2.601 -8.051,3.209 -2.77,0.59 -5.608,0.721 -8.47,0.375 -0.112,-0.023 -0.226,-0.039 -0.339,-0.046 -0.746,-0.102 -1.49,-0.238 -2.229,-0.409 l 17.169,-13.052 c 0.182,-0.137 0.342,-0.297 0.479,-0.478 l 13.045,-17.166 c 0.029,0.127 0.059,0.255 0.086,0.383 2.249,10.605 -2.446,21.529 -11.69,27.184 z M 147.17,136.81 c 1.776,-0.377 3.579,-0.567 5.358,-0.567 1.045,0 2.108,0.067 3.161,0.199 0.094,0.018 0.189,0.03 0.283,0.037 0.752,0.103 1.5,0.24 2.242,0.411 l -17.172,13.05 c -0.18,0.137 -0.341,0.297 -0.478,0.478 l -13.047,17.168 c -0.029,-0.128 -0.058,-0.256 -0.085,-0.384 -2.934,-13.821 5.921,-27.454 19.738,-30.392 z"
           id="XMLID_26_"
           inkscape:connector-curvature="0"
           style="fill:#646464;fill-opacity:1" />
      </g>
      <g
         id="g362"
         style="fill:#646464;fill-opacity:1" />
      <g
         id="g364"
         style="fill:#646464;fill-opacity:1" />
      <g
         id="g366"
         style="fill:#646464;fill-opacity:1" />
      <g
         id="g368"
         style="fill:#646464;fill-opacity:1" />
      <g
         id="g370"
         style="fill:#646464;fill-opacity:1" />
      <g
         id="g372"
         style="fill:#646464;fill-opacity:1" />
      <g
         id="g374"
         style="fill:#646464;fill-opacity:1" />
      <g
         id="g376"
         style="fill:#646464;fill-opacity:1" />
      <g
         id="g378"
         style="fill:#646464;fill-opacity:1" />
      <g
         id="g380"
         style="fill:#646464;fill-opacity:1" />
      <g
         id="g382"
         style="fill:#646464;fill-opacity:1" />
      <g
         id="g384"
         style="fill:#646464;fill-opacity:1" />
      <g
         id="g386"
         style="fill:#646464;fill-opacity:1" />
      <g
         id="g388"
         style="fill:#646464;fill-opacity:1" />
      <g
         id="g390"
         style="fill:#646464;fill-opacity:1" />
    </g>
    <g
       id="g490"
       transform="matrix(0.51645282,0,0,0.51645282,19.757367,99.072458)"
       style="fill:#646464;fill-opacity:1">
      <g
         id="g434"
         style="fill:#646464;fill-opacity:1">
        <path
           id="path432"
           d="M 26.947,38.109 C 19.035,34.831 12.083,34.536 5.706,37.188 L 5.312,36.222 c 6.649,-2.758 13.867,-2.449 22.038,0.927 z m 0.404,5.368 C 19.19,40.103 11.962,39.795 5.313,42.549 l 0.394,0.963 c 6.4,-2.641 13.339,-2.335 21.241,0.928 z m 0,-12.658 C 19.19,27.445 11.962,27.145 5.313,29.886 l 0.394,0.969 c 6.4,-2.646 13.339,-2.343 21.241,0.929 z m 35.201,12.486 3.169,-3.176 V 64.132 H 38.585 c -0.938,0.802 -3.143,1.372 -5.727,1.372 -2.581,0 -4.782,-0.57 -5.714,-1.372 H 0 v -37.01 c 0,-3.275 0,-5.424 0,-5.541 17.865,-7.757 30.914,-0.147 33.182,2.048 1.587,-1.462 13.121,-8.262 28.148,-3.658 l -3.019,3.021 c -2.098,-0.603 -4.412,-0.981 -6.888,-0.981 -8.968,0 -16.249,2.975 -16.249,8.479 v 30.996 c 0,-1.455 12.702,-9.978 27.382,-0.679 V 43.305 Z M 30.758,30.49 c 0,-5.504 -7.278,-8.479 -16.247,-8.479 -4.306,0 -8.223,1.031 -11.123,2.711 v 36.081 c 14.665,-9.3 27.369,-0.776 27.369,0.679 V 30.49 Z m 6.471,6.654 0.398,0.966 c 3.117,-1.294 6.325,-1.994 9.483,-2.367 l 0.456,-1.095 c -3.438,0.344 -6.938,1.095 -10.337,2.496 z m 0,6.333 0.394,0.963 c 2.227,-0.917 4.494,-1.549 6.771,-1.999 l 0.445,-1.108 c -2.541,0.456 -5.112,1.108 -7.61,2.144 z m 0,-12.658 0.394,0.965 c 4.781,-1.978 9.778,-2.762 14.46,-2.561 l 0.983,-0.989 C 47.971,27.87 42.472,28.649 37.229,30.819 Z m 41.189,-6.688 -19.273,19.273 -4.95,2.024 c -1.139,0.451 -2.734,1.108 -4.096,1.652 -0.373,0.155 -0.818,0.331 -1.124,0.455 l -2.351,0.969 c -1.43,0.569 -2.134,-0.119 -1.543,-1.559 l 0.942,-2.346 c 0.135,-0.306 0.311,-0.74 0.466,-1.118 0.56,-1.362 1.201,-2.975 1.657,-4.099 l 2.03,-4.961 19.262,-19.268 c 1.181,-1.188 2.828,-1.479 3.651,-0.652 l 5.985,5.986 c 0.815,0.83 0.525,2.469 -0.656,3.644 z m -22.132,18.698 -5.54,-5.548 -1.098,2.716 -0.643,1.564 -0.621,1.532 2.092,2.103 3.117,-1.269 z"
           style="fill:#646464;fill-opacity:1"
           inkscape:connector-curvature="0" />
      </g>
      <g
         id="g436"
         style="fill:#646464;fill-opacity:1" />
      <g
         id="g438"
         style="fill:#646464;fill-opacity:1" />
      <g
         id="g440"
         style="fill:#646464;fill-opacity:1" />
      <g
         id="g442"
         style="fill:#646464;fill-opacity:1" />
      <g
         id="g444"
         style="fill:#646464;fill-opacity:1" />
      <g
         id="g446"
         style="fill:#646464;fill-opacity:1" />
      <g
         id="g448"
         style="fill:#646464;fill-opacity:1" />
      <g
         id="g450"
         style="fill:#646464;fill-opacity:1" />
      <g
         id="g452"
         style="fill:#646464;fill-opacity:1" />
      <g
         id="g454"
         style="fill:#646464;fill-opacity:1" />
      <g
         id="g456"
         style="fill:#646464;fill-opacity:1" />
      <g
         id="g458"
         style="fill:#646464;fill-opacity:1" />
      <g
         id="g460"
         style="fill:#646464;fill-opacity:1" />
      <g
         id="g462"
         style="fill:#646464;fill-opacity:1" />
      <g
         id="g464"
         style="fill:#646464;fill-opacity:1" />
    </g>
    <g
       id="g563"
       transform="matrix(0.26458333,0,0,0.26458333,154.34882,163.76681)"
       style="fill:#646464;fill-opacity:1">
      <g
         id="g506"
         style="fill:#646464;fill-opacity:1">
        <g
           id="g504"
           style="fill:#646464;fill-opacity:1">
          <path
             id="path502"
             d="m 50,40 c -8.285,0 -15,6.718 -15,15 0,8.285 6.715,15 15,15 8.283,0 15,-6.715 15,-15 C 65,46.718 58.283,40 50,40 Z M 90,25 H 78 c -1.65,0 -3.428,-1.28 -3.949,-2.846 L 70.949,12.845 C 70.426,11.28 68.65,10 67,10 H 33 c -1.65,0 -3.428,1.28 -3.949,2.846 l -3.102,9.309 C 25.426,23.72 23.65,25 22,25 H 10 C 4.5,25 0,29.5 0,35 v 45 c 0,5.5 4.5,10 10,10 h 80 c 5.5,0 10,-4.5 10,-10 V 35 C 100,29.5 95.5,25 90,25 Z M 50,80 C 36.193,80 25,68.807 25,55 25,41.194 36.193,30 50,30 63.805,30 75,41.194 75,55 75,68.807 63.805,80 50,80 Z M 86.5,41.993 c -1.932,0 -3.5,-1.566 -3.5,-3.5 0,-1.932 1.568,-3.5 3.5,-3.5 1.934,0 3.5,1.568 3.5,3.5 0,1.934 -1.567,3.5 -3.5,3.5 z"
             style="fill:#646464;fill-opacity:1"
             inkscape:connector-curvature="0" />
        </g>
      </g>
      <g
         id="g508"
         style="fill:#646464;fill-opacity:1" />
      <g
         id="g510"
         style="fill:#646464;fill-opacity:1" />
      <g
         id="g512"
         style="fill:#646464;fill-opacity:1" />
      <g
         id="g514"
         style="fill:#646464;fill-opacity:1" />
      <g
         id="g516"
         style="fill:#646464;fill-opacity:1" />
      <g
         id="g518"
         style="fill:#646464;fill-opacity:1" />
      <g
         id="g520"
         style="fill:#646464;fill-opacity:1" />
      <g
         id="g522"
         style="fill:#646464;fill-opacity:1" />
      <g
         id="g524"
         style="fill:#646464;fill-opacity:1" />
      <g
         id="g526"
         style="fill:#646464;fill-opacity:1" />
      <g
         id="g528"
         style="fill:#646464;fill-opacity:1" />
      <g
         id="g530"
         style="fill:#646464;fill-opacity:1" />
      <g
         id="g532"
         style="fill:#646464;fill-opacity:1" />
      <g
         id="g534"
         style="fill:#646464;fill-opacity:1" />
      <g
         id="g536"
         style="fill:#646464;fill-opacity:1" />
    </g>
    <g
       id="g4752"
       transform="translate(-17.427854,37.701071)">
      <g
         transform="matrix(0.11541119,0,0,0.10777685,39.628046,159.19243)"
         id="g4705">
        <g
           id="g4649">
          <path
             style="fill:#0000ff;fill-opacity:1"
             inkscape:connector-curvature="0"
             d="m 521.806,792 c 0,0 71.889,0 71.889,-71.997 V 71.997 C 593.694,0 521.806,0 521.806,0 H 270.194 c 0,0 -71.889,0 -71.889,71.997 V 720.003 C 198.306,792 270.194,792 270.194,792 Z M 396,762.022 c -19.841,0 -35.944,-16.104 -35.944,-35.944 0,-19.842 16.103,-35.944 35.944,-35.944 19.842,0 35.944,16.103 35.944,35.944 0,19.841 -16.102,35.944 -35.944,35.944 z M 342.083,43.888 c 0,-4.457 2.121,-7.944 4.78,-7.944 h 98.272 c 2.624,0 4.781,3.559 4.781,7.944 v 2.121 c 0,4.457 -2.157,7.944 -4.781,7.944 h -98.272 c -2.624,0 -4.78,-3.559 -4.78,-7.944 z M 234.25,89.861 h 323.5 v 575.111 h -323.5 z"
             id="path4647" />
        </g>
        <g
           id="g4651" />
        <g
           id="g4653" />
        <g
           id="g4655" />
        <g
           id="g4657" />
        <g
           id="g4659" />
        <g
           id="g4661" />
        <g
           id="g4663" />
        <g
           id="g4665" />
        <g
           id="g4667" />
        <g
           id="g4669" />
        <g
           id="g4671" />
        <g
           id="g4673" />
        <g
           id="g4675" />
        <g
           id="g4677" />
        <g
           id="g4679" />
      </g>
      <g
         style="fill:#0000ff;fill-opacity:1"
         transform="matrix(1.0975961,0,0,1.0975961,37.618171,160.28137)"
         id="g77">
        <g
           style="fill:#0000ff;fill-opacity:1"
           id="g18">
          <g
             style="fill:#0000ff;fill-opacity:1"
             id="g16">
            <path
               style="fill:#000000;fill-opacity:1"
               inkscape:connector-curvature="0"
               d="m 65.094,32.195 h -6.982 -0.934 c -2.064,0 -3.738,1.674 -3.738,3.745 v 0.406 c 0,2.073 1.674,3.748 3.741,3.748 h 6.989 0.924 c 2.068,0 3.747,-1.682 3.747,-3.748 l -0.004,-0.411 c 0.004,-2.066 -1.675,-3.74 -3.743,-3.74 z"
               id="path10" />
            <path
               sodipodi:nodetypes="sccccscccccccccccccccsccssssccsscscccssssccccsccsccs"
               inkscape:connector-curvature="0"
               id="path12"
               transform="matrix(0.91108195,0,0,0.91108195,-34.597281,-68.871628)"
               d="m 78.039062,87.550781 c -0.93229,0.0097 -2.018206,0.291032 -3.232421,0.921875 -1.530049,0.79466 -4.670869,2.536693 -8.257813,4.550782 l -3.615234,2.033203 c -6.915953,3.909637 -14.049087,7.994029 -14.064453,8.003909 -3.872319,1.59371 -9.544922,6.7362 -9.544922,18.8789 0,1.08443 0.07004,2.08576 0.169922,3.05274 0.03183,0.28318 0.06705,0.55482 0.105468,0.82812 0.09988,0.71015 0.225727,1.38977 0.375,2.03516 0.05378,0.23049 0.09613,0.47079 0.154297,0.69141 0.20086,0.74635 0.432132,1.44704 0.69336,2.11328 0.131711,0.33037 0.276136,0.62993 0.419922,0.93945 0.153662,0.32599 0.306919,0.64762 0.472656,0.94727 0.192079,0.36109 0.384964,0.70868 0.595703,1.03906 0.05049,0.0768 0.104663,0.14668 0.15625,0.22461 5.000648,7.55914 14.226562,7.59375 14.226562,7.59375 h 6.240235 l 0.147447,-32.12454 3.467787,-3.69773 c 1.88128,-1.19309 3.623863,-2.33996 4.617188,-3.10937 5.032478,-3.892084 9.808594,-6.991795 10.455078,-9.802738 0.631392,-2.735484 -0.78516,-5.148348 -3.582032,-5.119141 z m 23.716798,13.123049 v 0.004 h -1.01953 c -2.27093,0 -4.113283,1.83797 -4.113283,4.11329 v 0.44531 c 0,2.27422 1.841982,4.10742 4.107423,4.10742 h 1.01953 6.65039 1.02344 c 2.26763,0 4.10547,-1.83759 4.10547,-4.10742 v -0.45899 c 0.004,-2.25995 -1.83259,-4.10156 -4.10352,-4.10156 h -1.81055 l -3.61718,-0.002 z m -1.02539,30.76562 c -2.269831,0 -4.101564,1.83869 -4.101564,4.10743 v 0.45507 c 0,2.26325 1.836733,4.10743 4.105474,4.10743 h 3.26367 c 4.4082,-0.008 0,0 3.61523,-0.002 h 0.79297 v -0.006 h 1.01172 c 2.27312,0 4.11572,-1.8382 4.11133,-4.11133 l 0.004,-0.44726 c -0.004,-2.26983 -1.84345,-4.10352 -4.11328,-4.10352 h -1.01367 -6.65039 z"
               style="fill:#000000;fill-opacity:1;stroke-width:1.09759605" />
            <path
               style="fill:#000005;fill-opacity:1"
               inkscape:connector-curvature="0"
               d="M 65.094,41.538 H 64.17 57.178 c -2.064,0 -3.743,1.679 -3.743,3.746 v 0.41 c 0,2.069 1.675,3.743 3.743,3.743 h 0.929 6.059 0.926 c 2.071,0 3.741,-1.674 3.746,-3.743 v -0.41 c -10e-4,-2.067 -1.671,-3.746 -3.744,-3.746 z"
               id="path14" />
          </g>
        </g>
        <g
           style="fill:#0000ff;fill-opacity:1"
           id="g20" />
        <g
           style="fill:#0000ff;fill-opacity:1"
           id="g22" />
        <g
           style="fill:#0000ff;fill-opacity:1"
           id="g24" />
        <g
           style="fill:#0000ff;fill-opacity:1"
           id="g26" />
        <g
           style="fill:#0000ff;fill-opacity:1"
           id="g28" />
        <g
           style="fill:#0000ff;fill-opacity:1"
           id="g30" />
        <g
           style="fill:#0000ff;fill-opacity:1"
           id="g32" />
        <g
           style="fill:#0000ff;fill-opacity:1"
           id="g34" />
        <g
           style="fill:#0000ff;fill-opacity:1"
           id="g36" />
        <g
           style="fill:#0000ff;fill-opacity:1"
           id="g38" />
        <g
           style="fill:#0000ff;fill-opacity:1"
           id="g40" />
        <g
           style="fill:#0000ff;fill-opacity:1"
           id="g42" />
        <g
           style="fill:#0000ff;fill-opacity:1"
           id="g44" />
        <g
           style="fill:#0000ff;fill-opacity:1"
           id="g46" />
        <g
           style="fill:#0000ff;fill-opacity:1"
           id="g48" />
      </g>
    </g>
  </g>
</svg>
