<?xml version="1.0" encoding="UTF-8" standalone="no"?>
<!-- Created with Inkscape (http://www.inkscape.org/) -->

<svg
   xmlns:dc="http://purl.org/dc/elements/1.1/"
   xmlns:cc="http://creativecommons.org/ns#"
   xmlns:rdf="http://www.w3.org/1999/02/22-rdf-syntax-ns#"
   xmlns:svg="http://www.w3.org/2000/svg"
   xmlns="http://www.w3.org/2000/svg"
   xmlns:sodipodi="http://sodipodi.sourceforge.net/DTD/sodipodi-0.dtd"
   xmlns:inkscape="http://www.inkscape.org/namespaces/inkscape"
   width="100%"
   height="100%"
   viewBox="0 0 210 210"
   version="1.1"
   id="svg8"
   inkscape:version="0.92.2 (5c3e80d, 2017-08-06)"
   sodipodi:docname="b2.svg">
  <defs
     id="defs2" />
  <sodipodi:namedview
     id="base"
     pagecolor="#ffffff"
     bordercolor="#666666"
     borderopacity="1.0"
     inkscape:pageopacity="0.0"
     inkscape:pageshadow="2"
     inkscape:zoom="2.8"
     inkscape:cx="70.642129"
     inkscape:cy="95.715412"
     inkscape:document-units="mm"
     inkscape:current-layer="layer1"
     showgrid="false"
     inkscape:snap-text-baseline="false"
     inkscape:window-width="1680"
     inkscape:window-height="987"
     inkscape:window-x="-8"
     inkscape:window-y="-8"
     inkscape:window-maximized="1" />
  <metadata
     id="metadata5">
    <rdf:RDF>
      <cc:Work
         rdf:about="">
        <dc:format>image/svg+xml</dc:format>
        <dc:type
           rdf:resource="http://purl.org/dc/dcmitype/StillImage" />
        <dc:title />
      </cc:Work>
    </rdf:RDF>
  </metadata>
  <g
     inkscape:label="Capa 1"
     inkscape:groupmode="layer"
     id="layer1"
     transform="translate(0,-87)">
    <g
       id="g1034"
       transform="matrix(0.04206043,0,0,0.04206043,16.3529,173.04256)"
       style="fill:#646464;fill-opacity:1">
      <g
         id="g972"
         style="fill:#646464;fill-opacity:1">
        <g
           id="g970"
           style="fill:#646464;fill-opacity:1">
          <g
             id="g962"
             style="fill:#646464;fill-opacity:1">
            <path
               id="path958"
               d="m 685.4,508.85 c 0,13.7 11.1,24.8 24.699,24.8 v 4.2 c -29.399,3.8 -57.199,14.4 -81.6,30.9 l -11.5,-11.4 c -2.3,-2.3 -5.4,-3.5 -8.5,-3.5 -3.1,0 -6.1,1.2 -8.5,3.5 l -36.3,36.3 c -4.7,4.7 -4.7,12.2 0,16.9 l 11.8,11.8 c -20.2,30.7 -31,66.601 -31,104.2 0,50.8 19.8,98.6 55.7,134.5 35.899,35.9 83.7,55.7 134.5,55.7 50.8,0 98.8,-19.7 134.7,-55.7 35.899,-35.9 55.699,-83.7 55.699,-134.5 0,-50.8 -19.8,-98.6 -55.699,-134.5 -30,-30 -68.301,-48.8 -109.7,-54.1 v -4.2 c 13.7,-0.101 24.7,-11.2 24.7,-24.8 0,-13.7 -11.101,-24.801 -24.801,-24.801 H 710.2 c -13.7,-0.099 -24.8,11 -24.8,24.701 z m 49.5,68.6 c 82.399,0 149.1,66.8 149.1,149.1 0,82.4 -66.8,149.1 -149.1,149.1 -82.301,0 -149.101,-66.8 -149.101,-149.1 0,-82.3 66.801,-149.1 149.101,-149.1 z"
               inkscape:connector-curvature="0"
               style="fill:#646464;fill-opacity:1" />
            <path
               id="path960"
               d="m 614.1,676.45 c -6.399,15.399 -9.899,32.3 -9.899,50.1 0,68 52,124 118.399,130.2 6.7,0.6 18.2,0.6 24.9,0 66.4,-6.3 118.4,-62.2 118.4,-130.2 0,-68 -52,-124 -118.4,-130.2 -6.7,-0.6 -18.2,-0.6 -24.9,0 -13.199,1.2 -25.8,4.4 -37.5,9.3 -4.1,1.7 -8.1,3.601 -12,5.7 -22.5,12.101 -41.1,30.7 -53.199,53.2 -2.201,3.8 -4.101,7.8 -5.801,11.9 z"
               inkscape:connector-curvature="0"
               style="fill:#646464;fill-opacity:1" />
          </g>
          <path
             id="path964"
             d="m 59.8,652.25 h 179.4 v 199.3 c 0,33 26.8,59.8 59.8,59.8 33,0 59.8,-26.8 59.8,-59.8 v -259.1 c 0,-33 -26.8,-59.801 -59.8,-59.801 H 122.1 c 7.3,-85.899 43.6,-188.6 110.9,-246.1 l 50.3,104.5 0.101,-0.1 c 6.6,13.1 19.899,22.1 35.5,22.1 h 199.3 c 22,0 39.899,-17.9 39.899,-39.9 0,-22 -17.9,-39.899 -39.9,-39.899 H 362.5 c -17.1,-35.5 -34.2,-71.1 -51.4,-106.6 -15.699,-32.6 -28.699,-72.7 -71.899,-72.7 -9.6,0 -18.6,2.5 -26.6,6.5 l -0.1,-0.2 C 75.5,228.75 0,382.25 0,592.45 c 0,33 26.8,59.8 59.8,59.8 z"
             inkscape:connector-curvature="0"
             style="fill:#646464;fill-opacity:1" />
          <circle
             id="circle966"
             r="87.599998"
             cy="95.949997"
             cx="372.10001"
             style="fill:#646464;fill-opacity:1" />
          <path
             id="path968"
             d="M 654.7,321.65 604,454.95 H 449.5 c -13.8,0 -25,11.199 -25,25 0,13.8 11.2,25 25,25 h 171.7 c 10.399,0 19.7,-6.4 23.399,-16.101 l 56.9,-149.4 c 4.9,-12.9 -1.6,-27.3 -14.5,-32.3 C 674.1,302.25 659.7,308.75 654.7,321.65 Z"
             inkscape:connector-curvature="0"
             style="fill:#646464;fill-opacity:1" />
        </g>
      </g>
      <g
         id="g974"
         style="fill:#646464;fill-opacity:1" />
      <g
         id="g976"
         style="fill:#646464;fill-opacity:1" />
      <g
         id="g978"
         style="fill:#646464;fill-opacity:1" />
      <g
         id="g980"
         style="fill:#646464;fill-opacity:1" />
      <g
         id="g982"
         style="fill:#646464;fill-opacity:1" />
      <g
         id="g984"
         style="fill:#646464;fill-opacity:1" />
      <g
         id="g986"
         style="fill:#646464;fill-opacity:1" />
      <g
         id="g988"
         style="fill:#646464;fill-opacity:1" />
      <g
         id="g990"
         style="fill:#646464;fill-opacity:1" />
      <g
         id="g992"
         style="fill:#646464;fill-opacity:1" />
      <g
         id="g994"
         style="fill:#646464;fill-opacity:1" />
      <g
         id="g996"
         style="fill:#646464;fill-opacity:1" />
      <g
         id="g998"
         style="fill:#646464;fill-opacity:1" />
      <g
         id="g1000"
         style="fill:#646464;fill-opacity:1" />
      <g
         id="g1002"
         style="fill:#646464;fill-opacity:1" />
    </g>
    <g
       id="g1115"
       transform="matrix(0.08157424,0,0,0.08157424,152.7579,169.62623)"
       style="fill:#0000ff;fill-opacity:1">
      <g
         id="g1040"
         style="fill:#0000ff;fill-opacity:1">
        <g
           id="g1038"
           style="fill:#0000ff;fill-opacity:1">
          <path
             id="path1036"
             d="M 436.2,154.6 H 182.4 c -12.4,0 -33.1,4.7 -33.1,36.6 V 240 h 320 v -48.8 c 0,-31.8 -20.7,-36.6 -33.1,-36.6 z"
             inkscape:connector-curvature="0"
             style="fill:#0000ff;fill-opacity:1" />
        </g>
      </g>
      <g
         id="g1046"
         style="fill:#0000ff;fill-opacity:1">
        <g
           id="g1044"
           style="fill:#0000ff;fill-opacity:1">
          <polygon
             id="polygon1042"
             points="458.7,325.3 458.7,410.6 490.7,410.6 490.7,250.6 80.3,250.6 32,250.6 32,80 0,80 0,410.7 32,410.7 32,325.3 "
             style="fill:#0000ff;fill-opacity:1" />
        </g>
      </g>
      <g
         id="g1052"
         style="fill:#0000ff;fill-opacity:1">
        <g
           id="g1050"
           style="fill:#0000ff;fill-opacity:1">
          <circle
             id="circle1048"
             r="44.700001"
             cy="197.3"
             cx="85.300003"
             style="fill:#0000ff;fill-opacity:1" />
        </g>
      </g>
      <g
         id="g1054"
         style="fill:#0000ff;fill-opacity:1" />
      <g
         id="g1056"
         style="fill:#0000ff;fill-opacity:1" />
      <g
         id="g1058"
         style="fill:#0000ff;fill-opacity:1" />
      <g
         id="g1060"
         style="fill:#0000ff;fill-opacity:1" />
      <g
         id="g1062"
         style="fill:#0000ff;fill-opacity:1" />
      <g
         id="g1064"
         style="fill:#0000ff;fill-opacity:1" />
      <g
         id="g1066"
         style="fill:#0000ff;fill-opacity:1" />
      <g
         id="g1068"
         style="fill:#0000ff;fill-opacity:1" />
      <g
         id="g1070"
         style="fill:#0000ff;fill-opacity:1" />
      <g
         id="g1072"
         style="fill:#0000ff;fill-opacity:1" />
      <g
         id="g1074"
         style="fill:#0000ff;fill-opacity:1" />
      <g
         id="g1076"
         style="fill:#0000ff;fill-opacity:1" />
      <g
         id="g1078"
         style="fill:#0000ff;fill-opacity:1" />
      <g
         id="g1080"
         style="fill:#0000ff;fill-opacity:1" />
      <g
         id="g1082"
         style="fill:#0000ff;fill-opacity:1" />
    </g>
    <g
       id="g1178"
       transform="matrix(0.11902918,0,0,0.11902918,78.107154,93.088414)"
       style="fill:#0000ff;fill-opacity:1">
      <g
         id="g1121"
         style="fill:#0000ff;fill-opacity:1">
        <g
           id="g1119"
           style="fill:#0000ff;fill-opacity:1">
          <path
             id="path1117"
             d="m 508.582,259.261 c -4.285,0 -9.525,-3.786 -11.686,-8.434 l -8.416,-18.025 c -2.17,-4.647 -8.08,-8.826 -13.186,-9.313 L 364.35,212.864 c -5.115,-0.498 -11.686,-4.266 -14.688,-8.444 l -40.314,-56.199 c -2.994,-4.179 -9.582,-7.554 -14.727,-7.554 h -68.994 c -5.135,0 -11.379,-2.343 -13.952,-5.24 -2.572,-2.888 -8.816,-5.24 -13.952,-5.24 H 70.992 c -5.135,0 -10.662,3.949 -12.345,8.797 L 45.9,175.886 C 44.313,170.053 35.257,165.568 24.212,165.568 h -2.2 C 9.859,165.568 0,175.408 0,187.581 v 57.671 c 0,12.029 4.341,21.735 9.715,21.975 -1.578,3.175 -2.687,7.182 -2.687,10.634 v 13.292 c 0,5.135 4.169,9.304 9.304,9.304 h 29.042 c 2.562,0 5.9,0.153 9.237,0.393 -1.587,5.642 -2.496,11.57 -2.496,17.719 0,36.108 29.28,65.389 65.378,65.389 36.108,0 65.379,-29.28 65.379,-65.389 0,-0.028 -0.009,-0.066 -0.009,-0.104 1.597,0.066 3.098,0.104 4.389,0.104 H 359.34 c 0.641,0 1.338,-0.019 2.064,-0.028 0,0 0,0.01 0,0.028 0,36.108 29.271,65.389 65.379,65.389 36.109,0 65.379,-29.28 65.379,-65.389 0,-5.526 -0.764,-10.862 -2.055,-15.998 l 4.121,0.163 c 5.135,0.182 10.461,-3.672 11.904,-8.597 l 7.574,-25.934 c 1.454,-4.945 -0.851,-8.942 -5.124,-8.942 z M 182.883,203.464 H 56.199 l 14.363,-51.169 h 112.321 z m 31.9,3.863 -0.201,-48.864 h 80.621 l 35.928,48.864 z"
             inkscape:connector-curvature="0"
             style="fill:#0000ff;fill-opacity:1" />
        </g>
      </g>
      <g
         id="g1123"
         style="fill:#0000ff;fill-opacity:1" />
      <g
         id="g1125"
         style="fill:#0000ff;fill-opacity:1" />
      <g
         id="g1127"
         style="fill:#0000ff;fill-opacity:1" />
      <g
         id="g1129"
         style="fill:#0000ff;fill-opacity:1" />
      <g
         id="g1131"
         style="fill:#0000ff;fill-opacity:1" />
      <g
         id="g1133"
         style="fill:#0000ff;fill-opacity:1" />
      <g
         id="g1135"
         style="fill:#0000ff;fill-opacity:1" />
      <g
         id="g1137"
         style="fill:#0000ff;fill-opacity:1" />
      <g
         id="g1139"
         style="fill:#0000ff;fill-opacity:1" />
      <g
         id="g1141"
         style="fill:#0000ff;fill-opacity:1" />
      <g
         id="g1143"
         style="fill:#0000ff;fill-opacity:1" />
      <g
         id="g1145"
         style="fill:#0000ff;fill-opacity:1" />
      <g
         id="g1147"
         style="fill:#0000ff;fill-opacity:1" />
      <g
         id="g1149"
         style="fill:#0000ff;fill-opacity:1" />
      <g
         id="g1151"
         style="fill:#0000ff;fill-opacity:1" />
    </g>
    <g
       id="g1238"
       transform="matrix(0.06941742,0,0,0.06941742,-0.52360912,86.887658)">
      <g
         id="g1182">
        <path
           id="path1180"
           d="m 497.78,326.334 -51.395,-70.808 51.395,-70.804 c 1.711,-2.475 2.088,-5.232 1.14,-8.276 -0.767,-2.859 -2.669,-4.762 -5.712,-5.712 L 409.845,143.326 V 55.959 c 0,-3.044 -1.242,-5.519 -3.721,-7.421 -2.85,-1.902 -5.615,-2.284 -8.274,-1.143 L 314.483,74.231 263.092,3.427 C 261.378,1.143 258.905,0 255.667,0 c -3.234,0 -5.708,1.146 -7.422,3.427 L 196.851,74.232 113.483,47.396 c -2.662,-1.142 -5.424,-0.76 -8.28,1.143 -2.474,1.903 -3.711,4.377 -3.711,7.421 v 87.366 l -83.367,27.408 c -3.044,0.953 -4.947,2.856 -5.708,5.712 -0.95,3.044 -0.571,5.802 1.143,8.276 l 51.391,70.804 -51.391,70.808 c -1.714,2.282 -2.093,5.041 -1.143,8.278 0.76,2.847 2.664,4.753 5.708,5.712 l 83.367,27.407 v 87.364 c 0,3.043 1.237,5.521 3.711,7.423 2.856,1.903 5.618,2.283 8.28,1.144 l 83.368,-26.837 51.394,70.805 c 1.902,2.471 4.377,3.71 7.422,3.71 3.045,0 5.522,-1.239 7.424,-3.71 l 51.391,-70.805 83.371,26.837 c 2.659,1.143 5.421,0.76 8.271,-1.144 2.479,-1.902 3.721,-4.38 3.721,-7.423 v -87.364 l 83.363,-27.407 c 3.043,-0.955 4.945,-2.861 5.712,-5.712 0.955,-3.237 0.571,-5.996 -1.14,-8.278 z m -90.646,-6.995 c -8.661,20.27 -20.365,37.78 -35.114,52.534 -14.753,14.749 -32.261,26.456 -52.534,35.118 -20.266,8.657 -41.541,12.99 -63.811,12.99 -22.27,0 -43.537,-4.333 -63.81,-12.99 -20.27,-8.665 -37.782,-20.369 -52.532,-35.118 -14.75,-14.754 -26.455,-32.265 -35.117,-52.534 -8.66,-20.272 -12.99,-41.541 -12.99,-63.813 0,-22.27 4.331,-43.537 12.99,-63.81 8.658,-20.27 20.367,-37.781 35.117,-52.534 14.753,-14.749 32.262,-26.457 52.532,-35.115 20.27,-8.663 41.54,-12.99 63.81,-12.99 22.266,0 43.545,4.327 63.811,12.99 20.273,8.658 37.781,20.366 52.534,35.115 14.749,14.753 26.453,32.264 35.114,52.534 8.658,20.273 12.991,41.543 12.991,63.81 0,22.272 -4.336,43.54 -12.991,63.813 z"
           inkscape:connector-curvature="0" />
      </g>
      <g
         id="g1184" />
      <g
         id="g1186" />
      <g
         id="g1188" />
      <g
         id="g1190" />
      <g
         id="g1192" />
      <g
         id="g1194" />
      <g
         id="g1196" />
      <g
         id="g1198" />
      <g
         id="g1200" />
      <g
         id="g1202" />
      <g
         id="g1204" />
      <g
         id="g1206" />
      <g
         id="g1208" />
      <g
         id="g1210" />
      <g
         id="g1212" />
    </g>
    <g
       id="g1301"
       transform="matrix(0.1160047,0,0,0.1160047,173.64219,260.80044)">
      <g
         id="g1244">
        <g
           id="g1242">
          <path
             id="path1240"
             d="m 305.6,178.053 c -3.2,-0.8 -6.4,0 -9.2,2 -10.4,8.8 -22.4,16 -35.6,20.8 -12.4,4.8 -26,7.2 -40.4,7.2 -32.4,0 -62,-13.2 -83.2,-34.4 -21.2,-21.2 -34.4,-50.8 -34.4,-83.2 0,-13.6 2.4,-26.8 6.4,-38.8 4.4,-12.8 10.8,-24.4 19.2,-34.4 3.6,-4.4 2.8,-10.8 -1.6,-14.4 -2.8,-2 -6,-2.8 -9.2,-2 -34,9.2 -63.6,29.6 -84.8,56.8 -20.4,26.8 -32.8,60 -32.8,96.4 0,43.6 17.6,83.2 46.4,112 28.8,28.8 68.4,46.4 112,46.4 36.8,0 70.8,-12.8 98,-34 27.6,-21.6 47.6,-52.4 56,-87.6 2,-6 -1.2,-11.6 -6.8,-12.8 z m -61.2,83.6 c -23.2,18.4 -52.8,29.6 -85.2,29.6 -38,0 -72.4,-15.6 -97.2,-40.4 -24.8,-24.8 -40.4,-59.2 -40.4,-97.2 0,-31.6 10.4,-60.4 28.4,-83.6 12.4,-16 28,-29.2 46,-38.4 -2,4.4 -4,8.8 -5.6,13.6 -5.2,14.4 -7.6,29.6 -7.6,45.6 0,38 15.6,72.8 40.4,97.6 24.8,24.8 59.6,40.4 97.6,40.4 16.8,0 32.8,-2.8 47.6,-8.4 5.2,-2 10.4,-4 15.2,-6.4 -9.6,18.4 -22.8,34.8 -39.2,47.6 z"
             inkscape:connector-curvature="0" />
        </g>
      </g>
      <g
         id="g1246" />
      <g
         id="g1248" />
      <g
         id="g1250" />
      <g
         id="g1252" />
      <g
         id="g1254" />
      <g
         id="g1256" />
      <g
         id="g1258" />
      <g
         id="g1260" />
      <g
         id="g1262" />
      <g
         id="g1264" />
      <g
         id="g1266" />
      <g
         id="g1268" />
      <g
         id="g1270" />
      <g
         id="g1272" />
      <g
         id="g1274" />
    </g>
    <path
       style="fill:none;stroke:#000000;stroke-width:1.16031496;stroke-linecap:round;stroke-linejoin:miter;stroke-miterlimit:4;stroke-dasharray:none;stroke-opacity:1"
       d="M 191.63951,105.91793 18.701596,279.07729 v 0"
       id="path1303"
       inkscape:connector-curvature="0"
       sodipodi:nodetypes="ccc" />
    <g
       id="g1411"
       transform="matrix(0.09023068,0,0,0.09023068,80.28592,231.13866)"
       style="fill:#646464;fill-opacity:1">
      <g
         id="g1309"
         style="fill:#646464;fill-opacity:1">
        <g
           id="g1307"
           style="fill:#646464;fill-opacity:1">
          <circle
             id="circle1305"
             r="44.386002"
             cy="157.427"
             cx="287.146"
             style="fill:#646464;fill-opacity:1" />
        </g>
      </g>
      <g
         id="g1315"
         style="fill:#646464;fill-opacity:1">
        <g
           id="g1313"
           style="fill:#646464;fill-opacity:1">
          <path
             id="path1311"
             d="M 495.354,261.85 H 333.299 c 3.7,-3.747 5.943,-8.923 5.806,-14.603 -0.265,-11.103 -9.508,-19.918 -20.585,-19.622 l -69.543,1.665 -24.22297,-36.46697 c 0,0 -0.86631,-10.90941 -7.0005,-20.847 -6.592,-8.063 -16.494,-12.69 -26.909,-12.571 -10.415,0.119 -20.208,4.971 -26.615,13.183 L 78.092,263.207 c -8.148,10.456 -11.39,25.034 -6.617,37.963 2.83,7.664 10.743,13.744 19.061,16.148 7.889,3.882 10.432,2.532 36.608,8.815 H 53.671 L 32.05,155.401 c -1.115,-8.814 -9.165,-15.058 -17.981,-13.939 -8.815,1.116 -15.055,9.166 -13.94,17.981 l 23.402,184.799 c 1.018,8.039 7.857,14.067 15.96,14.067 h 58.097 v 65.881 l -38.216,31.197 c -4.747,3.876 -5.456,10.867 -1.579,15.614 3.877,4.747 10.867,5.455 15.614,1.579 l 24.18,-19.739 v 11.143 c 0,6.129 4.968,11.097 11.097,11.097 6.129,0 11.097,-4.968 11.097,-11.097 v -11.143 l 24.18,19.739 c 4.751,3.877 11.74,3.167 15.614,-1.579 3.876,-4.747 3.168,-11.739 -1.579,-15.614 L 119.78,424.19 v -65.881 h 52.977 c 9.224,0 16.787,-7.819 16.023,-17.384 l 4.59,1.102 -28.156,102.527 c -3.53,12.852 4.027,26.131 16.879,29.661 12.855,3.53 26.132,-4.031 29.661,-16.879 l 34.758,-126.565 c 3.608,-13.136 -4.38,-26.674 -17.639,-29.857 L 127.70552,283.9235 c 66.18501,-64.90372 0,0 66.18501,-64.90372 L 222.2,261.18 c 3.769,5.387 9.923,8.582 16.476,8.582 0.161,0 0.322,-0.002 0.483,-0.006 l 17.015,-0.407 c -1.732,2.626 -2.747,5.767 -2.747,9.149 0,9.18 7.443,16.646 16.646,16.646 h 2.219 v 168.842 c 0,6.129 4.968,11.097 11.097,11.097 6.129,0 11.097,-4.968 11.097,-11.097 V 295.142 h 177.559 v 168.842 c 0,6.129 4.968,11.097 11.097,11.097 6.129,0 11.097,-4.968 11.097,-11.097 V 295.142 h 1.11 c 9.195,0 16.648,-7.453 16.648,-16.646 0,-9.193 -7.45,-16.646 -16.643,-16.646 z"
             inkscape:connector-curvature="0"
             sodipodi:nodetypes="sccccccsccccccccccscccsccsssccccccsccccccccccsccsscsssccssscsss"
             style="fill:#646464;fill-opacity:1" />
        </g>
      </g>
      <g
         id="g1321"
         style="fill:#646464;fill-opacity:1">
        <g
           id="g1319"
           style="fill:#646464;fill-opacity:1">
          <path
             id="path1317"
             d="m 498.466,160.972 c -5.375,-2.944 -12.12,-0.975 -15.065,4.4 l -33.463,61.078 h -60.176 c -6.127,0 -11.096,4.968 -11.096,11.097 0,6.129 4.968,11.097 11.097,11.097 h 66.749 c 4.054,0 7.785,-2.211 9.732,-5.765 l 36.622,-66.843 c 2.945,-5.373 0.974,-12.118 -4.4,-15.064 z"
             inkscape:connector-curvature="0"
             style="fill:#646464;fill-opacity:1" />
        </g>
      </g>
      <g
         id="g1327"
         style="fill:#646464;fill-opacity:1">
        <g
           id="g1325"
           style="fill:#646464;fill-opacity:1">
          <path
             id="path1323"
             d="M 395.091,122.819 H 374.677 L 395.841,85.37 c 0.826,-1.501 1.276,-2.926 1.276,-4.127 0,-1.801 -1.126,-3.077 -3.377,-3.077 h -28.969 c -2.476,0 -3.528,2.627 -3.528,5.104 0,2.702 1.276,5.104 3.528,5.104 h 17.411 l -21.164,37.449 c -0.826,1.426 -1.276,2.927 -1.276,4.128 0,1.801 0.977,3.076 3.378,3.076 h 31.971 c 2.252,0 3.528,-2.702 3.528,-5.104 0,-2.402 -1.276,-5.104 -3.528,-5.104 z"
             inkscape:connector-curvature="0"
             style="fill:#646464;fill-opacity:1" />
        </g>
      </g>
      <g
         id="g1333"
         style="fill:#646464;fill-opacity:1">
        <g
           id="g1331"
           style="fill:#646464;fill-opacity:1">
          <path
             id="path1329"
             d="m 438.629,84.181 h -14.062 l 14.579,-25.797 c 0.569,-1.034 0.879,-2.016 0.879,-2.843 0,-1.241 -0.776,-2.12 -2.326,-2.12 h -19.955 c -1.707,0 -2.429,1.809 -2.429,3.516 0,1.861 0.879,3.515 2.429,3.515 h 11.994 l -14.579,25.797 c -0.569,0.982 -0.879,2.016 -0.879,2.843 0,1.241 0.672,2.12 2.326,2.12 h 22.023 c 1.55,0 2.429,-1.861 2.429,-3.516 0,-1.655 -0.879,-3.515 -2.429,-3.515 z"
             inkscape:connector-curvature="0"
             style="fill:#646464;fill-opacity:1" />
        </g>
      </g>
      <g
         id="g1339"
         style="fill:#646464;fill-opacity:1">
        <g
           id="g1337"
           style="fill:#646464;fill-opacity:1">
          <path
             id="path1335"
             d="m 467.323,53.721 h -7.683 l 7.965,-14.094 c 0.311,-0.565 0.481,-1.102 0.481,-1.554 0,-0.678 -0.423,-1.157 -1.271,-1.157 h -10.902 c -0.932,0 -1.327,0.989 -1.327,1.92 0,1.018 0.481,1.921 1.327,1.921 h 6.552 L 454.5,54.851 c -0.311,0.536 -0.481,1.102 -0.481,1.554 0,0.677 0.367,1.157 1.272,1.157 h 12.032 c 0.848,0 1.327,-1.016 1.327,-1.92 0,-0.903 -0.48,-1.921 -1.327,-1.921 z"
             inkscape:connector-curvature="0"
             style="fill:#646464;fill-opacity:1" />
        </g>
      </g>
      <g
         id="g1341"
         style="fill:#646464;fill-opacity:1" />
      <g
         id="g1343"
         style="fill:#646464;fill-opacity:1" />
      <g
         id="g1345"
         style="fill:#646464;fill-opacity:1" />
      <g
         id="g1347"
         style="fill:#646464;fill-opacity:1" />
      <g
         id="g1349"
         style="fill:#646464;fill-opacity:1" />
      <g
         id="g1351"
         style="fill:#646464;fill-opacity:1" />
      <g
         id="g1353"
         style="fill:#646464;fill-opacity:1" />
      <g
         id="g1355"
         style="fill:#646464;fill-opacity:1" />
      <g
         id="g1357"
         style="fill:#646464;fill-opacity:1" />
      <g
         id="g1359"
         style="fill:#646464;fill-opacity:1" />
      <g
         id="g1361"
         style="fill:#646464;fill-opacity:1" />
      <g
         id="g1363"
         style="fill:#646464;fill-opacity:1" />
      <g
         id="g1365"
         style="fill:#646464;fill-opacity:1" />
      <g
         id="g1367"
         style="fill:#646464;fill-opacity:1" />
      <g
         id="g1369"
         style="fill:#646464;fill-opacity:1" />
    </g>
  </g>
</svg>
