<?xml version="1.0" encoding="UTF-8" standalone="no"?>
<!-- Created with Inkscape (http://www.inkscape.org/) -->

<svg
   xmlns:dc="http://purl.org/dc/elements/1.1/"
   xmlns:cc="http://creativecommons.org/ns#"
   xmlns:rdf="http://www.w3.org/1999/02/22-rdf-syntax-ns#"
   xmlns:svg="http://www.w3.org/2000/svg"
   xmlns="http://www.w3.org/2000/svg"
   xmlns:sodipodi="http://sodipodi.sourceforge.net/DTD/sodipodi-0.dtd"
   xmlns:inkscape="http://www.inkscape.org/namespaces/inkscape"
   width="100%"
   height="100%"
   viewBox="0 0 210 210"
   version="1.1"
   id="svg8"
   inkscape:version="0.92.2 (5c3e80d, 2017-08-06)"
   sodipodi:docname="b6.svg">
  <defs
     id="defs2" />
  <sodipodi:namedview
     id="base"
     pagecolor="#ffffff"
     bordercolor="#666666"
     borderopacity="1.0"
     inkscape:pageopacity="0.0"
     inkscape:pageshadow="2"
     inkscape:zoom="1.4"
     inkscape:cx="250.58834"
     inkscape:cy="186.1455"
     inkscape:document-units="mm"
     inkscape:current-layer="g1242"
     showgrid="false"
     inkscape:snap-text-baseline="false"
     inkscape:window-width="1366"
     inkscape:window-height="705"
     inkscape:window-x="1672"
     inkscape:window-y="269"
     inkscape:window-maximized="1" />
  <metadata
     id="metadata5">
    <rdf:RDF>
      <cc:Work
         rdf:about="">
        <dc:format>image/svg+xml</dc:format>
        <dc:type
           rdf:resource="http://purl.org/dc/dcmitype/StillImage" />
        <dc:title />
      </cc:Work>
    </rdf:RDF>
  </metadata>
  <g
     inkscape:label="Capa 1"
     inkscape:groupmode="layer"
     id="layer1"
     transform="translate(0,-87)">
    <g
       id="g3338"
       transform="matrix(0.26458333,0,0,0.26458333,44.466121,103.7191)" />
    <g
       id="g3340"
       transform="matrix(0.26458333,0,0,0.26458333,44.466121,103.7191)" />
    <g
       id="g3342"
       transform="matrix(0.26458333,0,0,0.26458333,44.466121,103.7191)" />
    <g
       id="g3344"
       transform="matrix(0.26458333,0,0,0.26458333,44.466121,103.7191)" />
    <g
       id="g3346"
       transform="matrix(0.26458333,0,0,0.26458333,44.466121,103.7191)" />
    <g
       id="g3348"
       transform="matrix(0.26458333,0,0,0.26458333,44.466121,103.7191)" />
    <g
       id="g3350"
       transform="matrix(0.26458333,0,0,0.26458333,44.466121,103.7191)" />
    <g
       id="g3352"
       transform="matrix(0.26458333,0,0,0.26458333,44.466121,103.7191)" />
    <g
       id="g3354"
       transform="matrix(0.26458333,0,0,0.26458333,44.466121,103.7191)" />
    <g
       id="g3356"
       transform="matrix(0.26458333,0,0,0.26458333,44.466121,103.7191)" />
    <g
       id="g3358"
       transform="matrix(0.26458333,0,0,0.26458333,44.466121,103.7191)" />
    <g
       id="g3360"
       transform="matrix(0.26458333,0,0,0.26458333,44.466121,103.7191)" />
    <g
       id="g3362"
       transform="matrix(0.26458333,0,0,0.26458333,44.466121,103.7191)" />
    <g
       id="g3364"
       transform="matrix(0.26458333,0,0,0.26458333,44.466121,103.7191)" />
    <g
       id="g3366"
       transform="matrix(0.26458333,0,0,0.26458333,44.466121,103.7191)" />
    <g
       style="fill:#0000ff;fill-opacity:1"
       id="g3429"
       transform="matrix(0.06836269,0,0,0.06836269,109.42017,187.30312)" />
    <g
       style="fill:#0000ff;fill-opacity:1"
       id="g3431"
       transform="matrix(0.06836269,0,0,0.06836269,109.42017,187.30312)" />
    <g
       style="fill:#0000ff;fill-opacity:1"
       id="g3433"
       transform="matrix(0.06836269,0,0,0.06836269,109.42017,187.30312)" />
    <g
       style="fill:#0000ff;fill-opacity:1"
       id="g3435"
       transform="matrix(0.06836269,0,0,0.06836269,109.42017,187.30312)" />
    <g
       style="fill:#0000ff;fill-opacity:1"
       id="g3437"
       transform="matrix(0.06836269,0,0,0.06836269,109.42017,187.30312)" />
    <g
       style="fill:#0000ff;fill-opacity:1"
       id="g3439"
       transform="matrix(0.06836269,0,0,0.06836269,109.42017,187.30312)" />
    <g
       style="fill:#0000ff;fill-opacity:1"
       id="g3441"
       transform="matrix(0.06836269,0,0,0.06836269,109.42017,187.30312)" />
    <g
       style="fill:#0000ff;fill-opacity:1"
       id="g3443"
       transform="matrix(0.06836269,0,0,0.06836269,109.42017,187.30312)" />
    <g
       style="fill:#0000ff;fill-opacity:1"
       id="g3445"
       transform="matrix(0.06836269,0,0,0.06836269,109.42017,187.30312)" />
    <g
       style="fill:#0000ff;fill-opacity:1"
       id="g3447"
       transform="matrix(0.06836269,0,0,0.06836269,109.42017,187.30312)" />
    <g
       style="fill:#0000ff;fill-opacity:1"
       id="g3449"
       transform="matrix(0.06836269,0,0,0.06836269,109.42017,187.30312)" />
    <g
       style="fill:#0000ff;fill-opacity:1"
       id="g3451"
       transform="matrix(0.06836269,0,0,0.06836269,109.42017,187.30312)" />
    <g
       style="fill:#0000ff;fill-opacity:1"
       id="g3453"
       transform="matrix(0.06836269,0,0,0.06836269,109.42017,187.30312)" />
    <g
       style="fill:#0000ff;fill-opacity:1"
       id="g3455"
       transform="matrix(0.06836269,0,0,0.06836269,109.42017,187.30312)" />
    <g
       style="fill:#0000ff;fill-opacity:1"
       id="g3457"
       transform="matrix(0.06836269,0,0,0.06836269,109.42017,187.30312)" />
    <g
       style="fill:#646464;fill-opacity:1"
       id="g4176"
       transform="matrix(0.58717707,0,0,0.58717707,27.089748,232.675)" />
    <g
       style="fill:#646464;fill-opacity:1"
       id="g4178"
       transform="matrix(0.58717707,0,0,0.58717707,27.089748,232.675)" />
    <g
       style="fill:#646464;fill-opacity:1"
       id="g4180"
       transform="matrix(0.58717707,0,0,0.58717707,27.089748,232.675)" />
    <g
       style="fill:#646464;fill-opacity:1"
       id="g4182"
       transform="matrix(0.58717707,0,0,0.58717707,27.089748,232.675)" />
    <g
       style="fill:#646464;fill-opacity:1"
       id="g4184"
       transform="matrix(0.58717707,0,0,0.58717707,27.089748,232.675)" />
    <g
       style="fill:#646464;fill-opacity:1"
       id="g4186"
       transform="matrix(0.58717707,0,0,0.58717707,27.089748,232.675)" />
    <g
       style="fill:#646464;fill-opacity:1"
       id="g4188"
       transform="matrix(0.58717707,0,0,0.58717707,27.089748,232.675)" />
    <g
       style="fill:#646464;fill-opacity:1"
       id="g4190"
       transform="matrix(0.58717707,0,0,0.58717707,27.089748,232.675)" />
    <g
       style="fill:#646464;fill-opacity:1"
       id="g4192"
       transform="matrix(0.58717707,0,0,0.58717707,27.089748,232.675)" />
    <g
       style="fill:#646464;fill-opacity:1"
       id="g4194"
       transform="matrix(0.58717707,0,0,0.58717707,27.089748,232.675)" />
    <g
       style="fill:#646464;fill-opacity:1"
       id="g4196"
       transform="matrix(0.58717707,0,0,0.58717707,27.089748,232.675)" />
    <g
       style="fill:#646464;fill-opacity:1"
       id="g4198"
       transform="matrix(0.58717707,0,0,0.58717707,27.089748,232.675)" />
    <g
       style="fill:#646464;fill-opacity:1"
       id="g4200"
       transform="matrix(0.58717707,0,0,0.58717707,27.089748,232.675)" />
    <g
       style="fill:#646464;fill-opacity:1"
       id="g4202"
       transform="matrix(0.58717707,0,0,0.58717707,27.089748,232.675)" />
    <g
       style="fill:#646464;fill-opacity:1"
       id="g4204"
       transform="matrix(0.58717707,0,0,0.58717707,27.089748,232.675)" />
    <g
       id="g1266"
       transform="matrix(1.2005752,0,0,1.2005752,-16.388516,-37.020459)">
      <g
         transform="matrix(0.21582948,0,0,0.21582948,15.640157,105.29047)"
         id="g1000">
        <g
           id="g944">
          <path
             inkscape:connector-curvature="0"
             d="m 521.806,792 c 0,0 71.889,0 71.889,-71.997 V 71.997 C 593.694,0 521.806,0 521.806,0 H 270.194 c 0,0 -71.889,0 -71.889,71.997 V 720.003 C 198.306,792 270.194,792 270.194,792 Z M 396,762.022 c -19.841,0 -35.944,-16.104 -35.944,-35.944 0,-19.842 16.103,-35.944 35.944,-35.944 19.842,0 35.944,16.103 35.944,35.944 0,19.841 -16.102,35.944 -35.944,35.944 z M 342.083,43.888 c 0,-4.457 2.121,-7.944 4.78,-7.944 h 98.272 c 2.624,0 4.781,3.559 4.781,7.944 v 2.121 c 0,4.457 -2.157,7.944 -4.781,7.944 h -98.272 c -2.624,0 -4.78,-3.559 -4.78,-7.944 z M 234.25,89.861 h 323.5 v 575.111 h -323.5 z"
             id="path942" />
        </g>
        <g
           id="g946" />
        <g
           id="g948" />
        <g
           id="g950" />
        <g
           id="g952" />
        <g
           id="g954" />
        <g
           id="g956" />
        <g
           id="g958" />
        <g
           id="g960" />
        <g
           id="g962" />
        <g
           id="g964" />
        <g
           id="g966" />
        <g
           id="g968" />
        <g
           id="g970" />
        <g
           id="g972" />
        <g
           id="g974" />
      </g>
      <g
         transform="translate(-0.66864342)"
         id="g1242">
        <path
           id="path1002"
           d="m 102.37971,146.44964 c -0.0873,-0.17223 -0.2759,-0.26905 -0.4661,-0.2393 l -2.383121,0.36737 0.36736,-2.38313 c 0.0294,-0.19073 -0.0671,-0.37879 -0.23929,-0.46609 -0.17223,-0.0873 -0.38099,-0.054 -0.51745,0.0825 l -2.76632,2.76632 c -0.0671,0.0671 -0.11105,0.15384 -0.12545,0.24763 l -0.43789,2.84065 -1.58353,1.58353 c -2.18132,-2.02516 -5.00501,-3.13588 -8.00152,-3.13588 -3.146,0 -6.10204,1.22349 -8.32359,3.44504 -2.22167,2.22161 -3.44517,5.17765 -3.44517,8.32365 0,3.146 1.2235,6.10198 3.44505,8.32359 2.22161,2.22156 5.17765,3.44499 8.32359,3.44499 3.14595,0 6.10204,-1.22349 8.3236,-3.44505 2.22155,-2.22161 3.44504,-5.17765 3.44504,-8.32359 0,-2.5025 -0.7734,-4.89116 -2.23661,-6.90782 -0.14479,-0.1996 -0.42402,-0.24399 -0.62338,-0.0991 -0.19954,0.14479 -0.24393,0.42383 -0.0991,0.62337 1.35192,1.8633 2.06647,4.07069 2.06647,6.38365 0,5.997 -4.87897,10.87591 -10.87597,10.87591 -5.997,0 -10.87597,-4.87891 -10.87597,-10.87591 0,-5.997 4.87897,-10.87597 10.87597,-10.87597 2.75805,0 5.35756,1.01794 7.36987,2.87487 l -2.04028,2.04028 c -1.46713,-1.31377 -3.34632,-2.03367 -5.32965,-2.03367 -4.40823,0 -7.99456,3.58638 -7.99456,7.99455 0,4.40817 3.58633,7.99456 7.99456,7.99456 4.40823,0 7.9945,-3.58639 7.9945,-7.99456 0,-1.4713 -0.4023,-2.90902 -1.16333,-4.15781 -0.1283,-0.21049 -0.40295,-0.2772 -0.61344,-0.14883 -0.21049,0.12824 -0.27708,0.40294 -0.14884,0.61343 0.67569,1.10882 1.03288,2.38593 1.03288,3.69327 0,3.91601 -3.18587,7.10189 -7.10183,7.10189 -3.91602,0 -7.10189,-3.18588 -7.10189,-7.10189 0,-3.91601 3.18587,-7.10189 7.10189,-7.10189 1.74529,0 3.39994,0.62713 4.69764,1.77302 l -2.04511,2.0451 c -0.74835,-0.6066 -1.6747,-0.9367 -2.65253,-0.9367 -2.32713,0 -4.22041,1.89328 -4.22041,4.22047 0,2.32719 1.89328,4.22042 4.22041,4.22042 2.32719,0 4.22042,-1.89323 4.22042,-4.22042 0,-0.41462 -0.06,-0.82441 -0.17824,-1.21808 -0.0709,-0.23608 -0.31981,-0.37009 -0.55589,-0.29898 -0.23608,0.0709 -0.36999,0.31975 -0.29899,0.55589 0.0932,0.3103 0.14045,0.63362 0.14045,0.96117 0,1.83491 -1.49284,3.32775 -3.32775,3.32775 -1.83491,0 -3.32775,-1.49284 -3.32775,-3.32775 0,-1.83497 1.49284,-3.32781 3.32775,-3.32781 0.73889,0 1.44017,0.2393 2.0166,0.67998 l -2.33225,2.33224 c -0.17431,0.17437 -0.17431,0.45693 0,0.63124 0.0871,0.0871 0.20139,0.13069 0.31559,0.13069 0.1142,0 0.22846,-0.0436 0.31559,-0.13069 l 8.00658,-8.00658 c 0.003,-0.003 1.89412,-1.89412 1.89412,-1.89412 l 2.84065,-0.43794 c 0.0938,-0.0144 0.18049,-0.0584 0.24762,-0.12545 l 2.766321,-2.76632 c 0.1367,-0.1367 0.16997,-0.34546 0.0827,-0.51763 z m -5.270491,0.65563 1.69856,-1.69851 -0.23007,1.49249 -1.69856,1.69856 z m 1.89364,1.89371 -1.49242,0.23007 1.69857,-1.69857 1.492361,-0.23007 z"
           inkscape:connector-curvature="0"
           style="fill:#0000ff;fill-opacity:1;stroke-width:0.15740487;stroke:#0000ff;stroke-opacity:1;stroke-miterlimit:4;stroke-dasharray:none" />
        <path
           inkscape:connector-curvature="0"
           d="m 127.66438,158.33069 h -19.82193 l 3.39449,-3.39449 c 0.54498,-0.54498 0.54498,-1.4481 0,-1.99309 -0.54499,-0.54499 -1.44811,-0.54499 -1.9931,0 l -5.80799,5.79242 c -0.54499,0.54499 -0.54499,1.44811 0,1.9931 l 5.80799,5.80799 c 0.28028,0.28028 0.63842,0.42042 0.99655,0.42042 0.35813,0 0.71627,-0.14014 0.99655,-0.42042 0.54498,-0.54498 0.54498,-1.4481 0,-1.99309 l -3.39449,-3.39448 h 18.40496 v 52.45881 H 96.724729 v -7.7388 c 0,-0.77855 -0.63841,-1.41697 -1.41696,-1.41697 h -18.31154 c -0.77855,0 -1.41696,0.63842 -1.41696,1.41697 v 18.31153 c 0,0.77856 0.63841,1.41697 1.41696,1.41697 h 18.31154 c 0.77855,0 1.41696,-0.63841 1.41696,-1.41697 v -7.7388 h 30.955221 c 0.77855,0 1.41696,-0.63841 1.41696,-1.41696 v -55.27718 c -0.0156,-0.79412 -0.65398,-1.41696 -1.43253,-1.41696 z m -33.773581,64.43294 h -15.49318 v -15.49318 h 15.49318 z"
           id="path1014"
           style="stroke-width:0.15571035" />
        <path
           inkscape:connector-curvature="0"
           d="m 75.579269,178.38618 v 18.31154 c 0,0.77855 0.63841,1.41696 1.41696,1.41696 h 18.31154 c 0.77855,0 1.41696,-0.63841 1.41696,-1.41696 v -18.31154 c 0,-0.77855 -0.63841,-1.41696 -1.41696,-1.41696 h -18.31154 c -0.77855,0 -1.41696,0.63841 -1.41696,1.41696 z m 2.81835,1.41697 h 15.49318 v 15.49317 h -15.49318 c 0,0 0,-15.49317 0,-15.49317 z"
           id="path1016"
           style="stroke-width:0.15571035" />
      </g>
    </g>
    <g
       id="g1056"
       transform="matrix(0.15571035,0,0,0.15571035,63.430998,147.66917)" />
    <g
       id="g1058"
       transform="matrix(0.15571035,0,0,0.15571035,63.430998,147.66917)" />
    <g
       id="g1060"
       transform="matrix(0.15571035,0,0,0.15571035,63.430998,147.66917)" />
    <g
       id="g1062"
       transform="matrix(0.15571035,0,0,0.15571035,63.430998,147.66917)" />
    <g
       id="g1064"
       transform="matrix(0.15571035,0,0,0.15571035,63.430998,147.66917)" />
    <g
       id="g1066"
       transform="matrix(0.15571035,0,0,0.15571035,63.430998,147.66917)" />
    <g
       id="g1068"
       transform="matrix(0.15571035,0,0,0.15571035,63.430998,147.66917)" />
    <g
       id="g1070"
       transform="matrix(0.15571035,0,0,0.15571035,63.430998,147.66917)" />
    <g
       id="g1072"
       transform="matrix(0.15571035,0,0,0.15571035,63.430998,147.66917)" />
    <g
       id="g1074"
       transform="matrix(0.15571035,0,0,0.15571035,63.430998,147.66917)" />
    <g
       id="g1076"
       transform="matrix(0.15571035,0,0,0.15571035,63.430998,147.66917)" />
    <g
       id="g1078"
       transform="matrix(0.15571035,0,0,0.15571035,63.430998,147.66917)" />
    <g
       id="g1080"
       transform="matrix(0.15571035,0,0,0.15571035,63.430998,147.66917)" />
    <g
       id="g1082"
       transform="matrix(0.15571035,0,0,0.15571035,63.430998,147.66917)" />
    <g
       id="g1084"
       transform="matrix(0.15571035,0,0,0.15571035,63.430998,147.66917)" />
  </g>
</svg>
