<?xml version="1.0" encoding="UTF-8" standalone="no"?>
<!-- Created with Inkscape (http://www.inkscape.org/) -->

<svg
   xmlns:dc="http://purl.org/dc/elements/1.1/"
   xmlns:cc="http://creativecommons.org/ns#"
   xmlns:rdf="http://www.w3.org/1999/02/22-rdf-syntax-ns#"
   xmlns:svg="http://www.w3.org/2000/svg"
   xmlns="http://www.w3.org/2000/svg"
   xmlns:sodipodi="http://sodipodi.sourceforge.net/DTD/sodipodi-0.dtd"
   xmlns:inkscape="http://www.inkscape.org/namespaces/inkscape"
   width="100%"
   height="100%"
   viewBox="0 0 210 210"
   version="1.1"
   id="svg8"
   inkscape:version="0.92.2 (5c3e80d, 2017-08-06)"
   sodipodi:docname="b8.svg">
  <defs
     id="defs2" />
  <sodipodi:namedview
     id="base"
     pagecolor="#ffffff"
     bordercolor="#666666"
     borderopacity="1.0"
     inkscape:pageopacity="0.0"
     inkscape:pageshadow="2"
     inkscape:zoom="0.7"
     inkscape:cx="267.70943"
     inkscape:cy="181.45443"
     inkscape:document-units="mm"
     inkscape:current-layer="g1353"
     showgrid="false"
     inkscape:snap-text-baseline="false"
     inkscape:window-width="1366"
     inkscape:window-height="705"
     inkscape:window-x="1672"
     inkscape:window-y="269"
     inkscape:window-maximized="1" />
  <metadata
     id="metadata5">
    <rdf:RDF>
      <cc:Work
         rdf:about="">
        <dc:format>image/svg+xml</dc:format>
        <dc:type
           rdf:resource="http://purl.org/dc/dcmitype/StillImage" />
        <dc:title />
      </cc:Work>
    </rdf:RDF>
  </metadata>
  <g
     inkscape:label="Capa 1"
     inkscape:groupmode="layer"
     id="layer1"
     transform="translate(0,-87)">
    <g
       id="g3338"
       transform="matrix(0.26458333,0,0,0.26458333,44.466121,103.7191)" />
    <g
       id="g3340"
       transform="matrix(0.26458333,0,0,0.26458333,44.466121,103.7191)" />
    <g
       id="g3342"
       transform="matrix(0.26458333,0,0,0.26458333,44.466121,103.7191)" />
    <g
       id="g3344"
       transform="matrix(0.26458333,0,0,0.26458333,44.466121,103.7191)" />
    <g
       id="g3346"
       transform="matrix(0.26458333,0,0,0.26458333,44.466121,103.7191)" />
    <g
       id="g3348"
       transform="matrix(0.26458333,0,0,0.26458333,44.466121,103.7191)" />
    <g
       id="g3350"
       transform="matrix(0.26458333,0,0,0.26458333,44.466121,103.7191)" />
    <g
       id="g3352"
       transform="matrix(0.26458333,0,0,0.26458333,44.466121,103.7191)" />
    <g
       id="g3354"
       transform="matrix(0.26458333,0,0,0.26458333,44.466121,103.7191)" />
    <g
       id="g3356"
       transform="matrix(0.26458333,0,0,0.26458333,44.466121,103.7191)" />
    <g
       id="g3358"
       transform="matrix(0.26458333,0,0,0.26458333,44.466121,103.7191)" />
    <g
       id="g3360"
       transform="matrix(0.26458333,0,0,0.26458333,44.466121,103.7191)" />
    <g
       id="g3362"
       transform="matrix(0.26458333,0,0,0.26458333,44.466121,103.7191)" />
    <g
       id="g3364"
       transform="matrix(0.26458333,0,0,0.26458333,44.466121,103.7191)" />
    <g
       id="g3366"
       transform="matrix(0.26458333,0,0,0.26458333,44.466121,103.7191)" />
    <g
       style="fill:#0000ff;fill-opacity:1"
       id="g3429"
       transform="matrix(0.06836269,0,0,0.06836269,109.42017,187.30312)" />
    <g
       style="fill:#0000ff;fill-opacity:1"
       id="g3431"
       transform="matrix(0.06836269,0,0,0.06836269,109.42017,187.30312)" />
    <g
       style="fill:#0000ff;fill-opacity:1"
       id="g3433"
       transform="matrix(0.06836269,0,0,0.06836269,109.42017,187.30312)" />
    <g
       style="fill:#0000ff;fill-opacity:1"
       id="g3435"
       transform="matrix(0.06836269,0,0,0.06836269,109.42017,187.30312)" />
    <g
       style="fill:#0000ff;fill-opacity:1"
       id="g3437"
       transform="matrix(0.06836269,0,0,0.06836269,109.42017,187.30312)" />
    <g
       style="fill:#0000ff;fill-opacity:1"
       id="g3439"
       transform="matrix(0.06836269,0,0,0.06836269,109.42017,187.30312)" />
    <g
       style="fill:#0000ff;fill-opacity:1"
       id="g3441"
       transform="matrix(0.06836269,0,0,0.06836269,109.42017,187.30312)" />
    <g
       style="fill:#0000ff;fill-opacity:1"
       id="g3443"
       transform="matrix(0.06836269,0,0,0.06836269,109.42017,187.30312)" />
    <g
       style="fill:#0000ff;fill-opacity:1"
       id="g3445"
       transform="matrix(0.06836269,0,0,0.06836269,109.42017,187.30312)" />
    <g
       style="fill:#0000ff;fill-opacity:1"
       id="g3447"
       transform="matrix(0.06836269,0,0,0.06836269,109.42017,187.30312)" />
    <g
       style="fill:#0000ff;fill-opacity:1"
       id="g3449"
       transform="matrix(0.06836269,0,0,0.06836269,109.42017,187.30312)" />
    <g
       style="fill:#0000ff;fill-opacity:1"
       id="g3451"
       transform="matrix(0.06836269,0,0,0.06836269,109.42017,187.30312)" />
    <g
       style="fill:#0000ff;fill-opacity:1"
       id="g3453"
       transform="matrix(0.06836269,0,0,0.06836269,109.42017,187.30312)" />
    <g
       style="fill:#0000ff;fill-opacity:1"
       id="g3455"
       transform="matrix(0.06836269,0,0,0.06836269,109.42017,187.30312)" />
    <g
       style="fill:#0000ff;fill-opacity:1"
       id="g3457"
       transform="matrix(0.06836269,0,0,0.06836269,109.42017,187.30312)" />
    <g
       style="fill:#646464;fill-opacity:1"
       id="g4176"
       transform="matrix(0.58717707,0,0,0.58717707,27.089748,232.675)" />
    <g
       style="fill:#646464;fill-opacity:1"
       id="g4178"
       transform="matrix(0.58717707,0,0,0.58717707,27.089748,232.675)" />
    <g
       style="fill:#646464;fill-opacity:1"
       id="g4180"
       transform="matrix(0.58717707,0,0,0.58717707,27.089748,232.675)" />
    <g
       style="fill:#646464;fill-opacity:1"
       id="g4182"
       transform="matrix(0.58717707,0,0,0.58717707,27.089748,232.675)" />
    <g
       style="fill:#646464;fill-opacity:1"
       id="g4184"
       transform="matrix(0.58717707,0,0,0.58717707,27.089748,232.675)" />
    <g
       style="fill:#646464;fill-opacity:1"
       id="g4186"
       transform="matrix(0.58717707,0,0,0.58717707,27.089748,232.675)" />
    <g
       style="fill:#646464;fill-opacity:1"
       id="g4188"
       transform="matrix(0.58717707,0,0,0.58717707,27.089748,232.675)" />
    <g
       style="fill:#646464;fill-opacity:1"
       id="g4190"
       transform="matrix(0.58717707,0,0,0.58717707,27.089748,232.675)" />
    <g
       style="fill:#646464;fill-opacity:1"
       id="g4192"
       transform="matrix(0.58717707,0,0,0.58717707,27.089748,232.675)" />
    <g
       style="fill:#646464;fill-opacity:1"
       id="g4194"
       transform="matrix(0.58717707,0,0,0.58717707,27.089748,232.675)" />
    <g
       style="fill:#646464;fill-opacity:1"
       id="g4196"
       transform="matrix(0.58717707,0,0,0.58717707,27.089748,232.675)" />
    <g
       style="fill:#646464;fill-opacity:1"
       id="g4198"
       transform="matrix(0.58717707,0,0,0.58717707,27.089748,232.675)" />
    <g
       style="fill:#646464;fill-opacity:1"
       id="g4200"
       transform="matrix(0.58717707,0,0,0.58717707,27.089748,232.675)" />
    <g
       style="fill:#646464;fill-opacity:1"
       id="g4202"
       transform="matrix(0.58717707,0,0,0.58717707,27.089748,232.675)" />
    <g
       style="fill:#646464;fill-opacity:1"
       id="g4204"
       transform="matrix(0.58717707,0,0,0.58717707,27.089748,232.675)" />
    <g
       id="g1056"
       transform="matrix(0.15571035,0,0,0.15571035,63.430998,147.66917)" />
    <g
       id="g1058"
       transform="matrix(0.15571035,0,0,0.15571035,63.430998,147.66917)" />
    <g
       id="g1060"
       transform="matrix(0.15571035,0,0,0.15571035,63.430998,147.66917)" />
    <g
       id="g1062"
       transform="matrix(0.15571035,0,0,0.15571035,63.430998,147.66917)" />
    <g
       id="g1064"
       transform="matrix(0.15571035,0,0,0.15571035,63.430998,147.66917)" />
    <g
       id="g1066"
       transform="matrix(0.15571035,0,0,0.15571035,63.430998,147.66917)" />
    <g
       id="g1068"
       transform="matrix(0.15571035,0,0,0.15571035,63.430998,147.66917)" />
    <g
       id="g1070"
       transform="matrix(0.15571035,0,0,0.15571035,63.430998,147.66917)" />
    <g
       id="g1072"
       transform="matrix(0.15571035,0,0,0.15571035,63.430998,147.66917)" />
    <g
       id="g1074"
       transform="matrix(0.15571035,0,0,0.15571035,63.430998,147.66917)" />
    <g
       id="g1076"
       transform="matrix(0.15571035,0,0,0.15571035,63.430998,147.66917)" />
    <g
       id="g1078"
       transform="matrix(0.15571035,0,0,0.15571035,63.430998,147.66917)" />
    <g
       id="g1080"
       transform="matrix(0.15571035,0,0,0.15571035,63.430998,147.66917)" />
    <g
       id="g1082"
       transform="matrix(0.15571035,0,0,0.15571035,63.430998,147.66917)" />
    <g
       id="g1084"
       transform="matrix(0.15571035,0,0,0.15571035,63.430998,147.66917)" />
    <g
       id="g1353"
       transform="matrix(0.26458333,0,0,0.26458333,39.383334,126.38333)">
      <circle
         id="circle1283"
         r="86.293991"
         cy="53.838528"
         cx="248"
         style="fill:#0000ff;fill-opacity:1;stroke-width:1.34834361" />
      <g
         id="g1293"
         style="fill:#000000;fill-opacity:1"
         transform="matrix(1.3483436,0,0,1.3483436,-86.389202,-86.389202)">
        <path
           id="path1285"
           d="m 160,264 c -13.232,0 -24,-10.768 -24,-24 h -16 c 0,22.056 17.944,40 40,40 22.056,0 40,-17.944 40,-40 h -16 c 0,13.232 -10.768,24 -24,24 z"
           style="fill:#000000;fill-opacity:1"
           inkscape:connector-curvature="0" />
        <path
           id="path1287"
           d="m 336,264 c -13.232,0 -24,-10.768 -24,-24 h -16 c 0,22.056 17.944,40 40,40 22.056,0 40,-17.944 40,-40 h -16 c 0,13.232 -10.768,24 -24,24 z"
           style="fill:#000000;fill-opacity:1"
           inkscape:connector-curvature="0" />
        <path
           id="path1289"
           d="m 480,240 c 0,-28.152 -20.912,-51.456 -48,-55.36 V 176 c 0,-10.968 -9.512,-20 -29.104,-27.616 l -5.8,14.912 C 412.6,169.328 416,174.512 416,176 c 0,10.856 -59.296,32 -168,32 -108.704,0 -168,-21.144 -168,-32 0,-1.488 3.4,-6.672 18.896,-12.696 l -5.8,-14.912 C 73.512,156 64,165.032 64,176 v 8.64 C 36.912,188.544 16,211.848 16,240 16,268.224 37.008,291.568 64.184,295.392 66.96,365.048 108.6,424.872 168,453.672 V 496 h 16 v -35.496 c 19.944,7.424 41.504,11.496 64,11.496 22.496,0 44.056,-4.072 64,-11.496 V 496 h 16 V 453.672 C 387.4,424.872 429.04,365.048 431.816,295.384 458.992,291.568 480,268.224 480,240 Z m -448,0 c 0,-19.312 13.768,-35.472 32,-39.192 v 78.384 C 45.768,275.472 32,259.312 32,240 Z M 248,456 C 155.368,456 80,380.64 80,288 V 197.416 C 114.856,217.936 198.544,224 248,224 c 49.456,0 133.144,-6.064 168,-26.584 V 288 c 0,92.64 -75.368,168 -168,168 z M 432,279.192 v -78.384 c 18.232,3.72 32,19.872 32,39.192 0,19.32 -13.768,35.472 -32,39.192 z"
           style="fill:#000000;fill-opacity:1"
           inkscape:connector-curvature="0" />
        <path
           id="path1291"
           d="m 72,80 c 1.728,0 3.408,-0.2 5.032,-0.552 l 40.36,65.576 c -3.32,4.12 -5.392,9.288 -5.392,14.976 0,13.232 10.768,24 24,24 10,0 18.568,-6.152 22.168,-14.864 l 66.248,11.04 C 226.416,191.424 236.2,200 248,200 c 11.616,0 21.32,-8.296 23.52,-19.28 l 67.328,-9.616 C 342.872,178.728 350.792,184 360,184 c 13.232,0 24,-10.768 24,-24 0,-4.288 -1.224,-8.256 -3.2,-11.736 l 34.472,-45.96 c 2.712,1.064 5.64,1.696 8.728,1.696 13.232,0 24,-10.768 24,-24 0,-13.232 -10.768,-24 -24,-24 -4.64,0 -8.944,1.384 -12.624,3.672 L 366.616,31.696 C 367.448,29.272 368,26.712 368,24 368,10.768 357.232,0 344,0 333.36,0 324.424,7 321.288,16.6 L 181.696,29.896 C 177.864,21.72 169.616,16 160,16 148.08,16 138.24,24.76 136.384,36.16 L 92.72,44.104 C 88.568,36.912 80.888,32 72,32 58.768,32 48,42.768 48,56 48,69.232 58.768,80 72,80 Z m 75.736,-19.48 -15.16,75.824 c -0.536,0.08 -1.088,0.096 -1.616,0.208 L 90.6,70.976 c 2.552,-3.168 4.328,-6.952 5.008,-11.136 l 43.672,-7.936 c 2.048,3.544 4.944,6.504 8.456,8.616 z M 183.2,45.824 321.672,32.64 c 0.072,0.192 0.104,0.408 0.184,0.6 L 279.512,67.888 C 271.072,60.504 260.064,56 248,56 c -26.472,0 -48,21.528 -48,48 0,4.872 0.744,9.576 2.096,14.008 l -49.48,24.744 c -1.312,-1.264 -2.784,-2.328 -4.352,-3.264 l 15.16,-75.824 c 9.656,-1.408 17.432,-8.512 19.776,-17.84 z M 344,48 c 4.64,0 8.944,-1.384 12.624,-3.672 l 44.76,27.976 C 400.552,74.728 400,77.288 400,80 c 0,4.288 1.224,8.256 3.2,11.736 l -34.472,45.96 C 366.016,136.632 363.088,136 360,136 c -6.456,0 -12.296,2.592 -16.616,6.752 l -49.48,-24.744 C 295.256,113.576 296,108.872 296,104 296,95.36 293.672,87.264 289.656,80.248 L 332.696,45.04 C 336.08,46.864 339.888,48 344,48 Z m -96,104 c -9.008,0 -16.784,5.048 -20.888,12.408 l -61.536,-10.256 43.728,-21.864 C 218.048,144.216 232.112,152 248,152 c 15.888,0 29.952,-7.784 38.688,-19.712 l 46.824,23.416 -64.368,9.192 C 265.128,157.272 257.208,152 248,152 Z m 32,-48 c 0,17.648 -14.352,32 -32,32 -17.648,0 -32,-14.352 -32,-32 0,-17.648 14.352,-32 32,-32 17.648,0 32,14.352 32,32 z m -144,64 c -4.416,0 -8,-3.592 -8,-8 0,-4.408 3.584,-8 8,-8 4.416,0 8,3.592 8,8 0,4.408 -3.584,8 -8,8 z m 112,16 c -4.416,0 -8,-3.592 -8,-8 0,-4.408 3.584,-8 8,-8 4.416,0 8,3.592 8,8 0,4.408 -3.584,8 -8,8 z m 112,-16 c -4.416,0 -8,-3.592 -8,-8 0,-4.408 3.584,-8 8,-8 4.416,0 8,3.592 8,8 0,4.408 -3.584,8 -8,8 z m 72,-88 c 0,4.408 -3.584,8 -8,8 -4.416,0 -8,-3.592 -8,-8 0,-4.408 3.584,-8 8,-8 4.416,0 8,3.592 8,8 z M 344,16 c 4.416,0 8,3.592 8,8 0,4.408 -3.584,8 -8,8 -4.416,0 -8,-3.592 -8,-8 0,-4.408 3.584,-8 8,-8 z M 160,32 c 4.416,0 8,3.592 8,8 0,4.408 -3.584,8 -8,8 -4.416,0 -8,-3.592 -8,-8 0,-4.408 3.584,-8 8,-8 z M 72,48 c 4.416,0 8,3.592 8,8 0,4.408 -3.584,8 -8,8 -4.416,0 -8,-3.592 -8,-8 0,-4.408 3.584,-8 8,-8 z"
           style="fill:#000000;fill-opacity:1"
           inkscape:connector-curvature="0" />
      </g>
      <g
         id="g1295" />
      <g
         id="g1297" />
      <g
         id="g1299" />
      <g
         id="g1301" />
      <g
         id="g1303" />
      <g
         id="g1305" />
      <g
         id="g1307" />
      <g
         id="g1309" />
      <g
         id="g1311" />
      <g
         id="g1313" />
      <g
         id="g1315" />
      <g
         id="g1317" />
      <g
         id="g1319" />
      <g
         id="g1321" />
      <g
         id="g1323" />
    </g>
  </g>
</svg>
