<?xml version="1.0" encoding="UTF-8" standalone="no"?>
<!-- Created with Inkscape (http://www.inkscape.org/) -->

<svg
   xmlns:dc="http://purl.org/dc/elements/1.1/"
   xmlns:cc="http://creativecommons.org/ns#"
   xmlns:rdf="http://www.w3.org/1999/02/22-rdf-syntax-ns#"
   xmlns:svg="http://www.w3.org/2000/svg"
   xmlns="http://www.w3.org/2000/svg"
   xmlns:sodipodi="http://sodipodi.sourceforge.net/DTD/sodipodi-0.dtd"
   xmlns:inkscape="http://www.inkscape.org/namespaces/inkscape"
   width="100%"
   height="100%"
   viewBox="0 0 210 210"
   version="1.1"
   id="svg8"
   inkscape:version="0.92.2 (5c3e80d, 2017-08-06)"
   sodipodi:docname="b9.svg">
  <defs
     id="defs2" />
  <sodipodi:namedview
     id="base"
     pagecolor="#ffffff"
     bordercolor="#666666"
     borderopacity="1.0"
     inkscape:pageopacity="0.0"
     inkscape:pageshadow="2"
     inkscape:zoom="0.7"
     inkscape:cx="338.32433"
     inkscape:cy="213.0269"
     inkscape:document-units="mm"
     inkscape:current-layer="g1353"
     showgrid="false"
     inkscape:snap-text-baseline="false"
     inkscape:window-width="1366"
     inkscape:window-height="705"
     inkscape:window-x="1672"
     inkscape:window-y="269"
     inkscape:window-maximized="1" />
  <metadata
     id="metadata5">
    <rdf:RDF>
      <cc:Work
         rdf:about="">
        <dc:format>image/svg+xml</dc:format>
        <dc:type
           rdf:resource="http://purl.org/dc/dcmitype/StillImage" />
        <dc:title />
      </cc:Work>
    </rdf:RDF>
  </metadata>
  <g
     inkscape:label="Capa 1"
     inkscape:groupmode="layer"
     id="layer1"
     transform="translate(0,-87)">
    <g
       id="g3338"
       transform="matrix(0.26458333,0,0,0.26458333,44.466121,103.7191)" />
    <g
       id="g3340"
       transform="matrix(0.26458333,0,0,0.26458333,44.466121,103.7191)" />
    <g
       id="g3342"
       transform="matrix(0.26458333,0,0,0.26458333,44.466121,103.7191)" />
    <g
       id="g3344"
       transform="matrix(0.26458333,0,0,0.26458333,44.466121,103.7191)" />
    <g
       id="g3346"
       transform="matrix(0.26458333,0,0,0.26458333,44.466121,103.7191)" />
    <g
       id="g3348"
       transform="matrix(0.26458333,0,0,0.26458333,44.466121,103.7191)" />
    <g
       id="g3350"
       transform="matrix(0.26458333,0,0,0.26458333,44.466121,103.7191)" />
    <g
       id="g3352"
       transform="matrix(0.26458333,0,0,0.26458333,44.466121,103.7191)" />
    <g
       id="g3354"
       transform="matrix(0.26458333,0,0,0.26458333,44.466121,103.7191)" />
    <g
       id="g3356"
       transform="matrix(0.26458333,0,0,0.26458333,44.466121,103.7191)" />
    <g
       id="g3358"
       transform="matrix(0.26458333,0,0,0.26458333,44.466121,103.7191)" />
    <g
       id="g3360"
       transform="matrix(0.26458333,0,0,0.26458333,44.466121,103.7191)" />
    <g
       id="g3362"
       transform="matrix(0.26458333,0,0,0.26458333,44.466121,103.7191)" />
    <g
       id="g3364"
       transform="matrix(0.26458333,0,0,0.26458333,44.466121,103.7191)" />
    <g
       id="g3366"
       transform="matrix(0.26458333,0,0,0.26458333,44.466121,103.7191)" />
    <g
       style="fill:#0000ff;fill-opacity:1"
       id="g3429"
       transform="matrix(0.06836269,0,0,0.06836269,109.42017,187.30312)" />
    <g
       style="fill:#0000ff;fill-opacity:1"
       id="g3431"
       transform="matrix(0.06836269,0,0,0.06836269,109.42017,187.30312)" />
    <g
       style="fill:#0000ff;fill-opacity:1"
       id="g3433"
       transform="matrix(0.06836269,0,0,0.06836269,109.42017,187.30312)" />
    <g
       style="fill:#0000ff;fill-opacity:1"
       id="g3435"
       transform="matrix(0.06836269,0,0,0.06836269,109.42017,187.30312)" />
    <g
       style="fill:#0000ff;fill-opacity:1"
       id="g3437"
       transform="matrix(0.06836269,0,0,0.06836269,109.42017,187.30312)" />
    <g
       style="fill:#0000ff;fill-opacity:1"
       id="g3439"
       transform="matrix(0.06836269,0,0,0.06836269,109.42017,187.30312)" />
    <g
       style="fill:#0000ff;fill-opacity:1"
       id="g3441"
       transform="matrix(0.06836269,0,0,0.06836269,109.42017,187.30312)" />
    <g
       style="fill:#0000ff;fill-opacity:1"
       id="g3443"
       transform="matrix(0.06836269,0,0,0.06836269,109.42017,187.30312)" />
    <g
       style="fill:#0000ff;fill-opacity:1"
       id="g3445"
       transform="matrix(0.06836269,0,0,0.06836269,109.42017,187.30312)" />
    <g
       style="fill:#0000ff;fill-opacity:1"
       id="g3447"
       transform="matrix(0.06836269,0,0,0.06836269,109.42017,187.30312)" />
    <g
       style="fill:#0000ff;fill-opacity:1"
       id="g3449"
       transform="matrix(0.06836269,0,0,0.06836269,109.42017,187.30312)" />
    <g
       style="fill:#0000ff;fill-opacity:1"
       id="g3451"
       transform="matrix(0.06836269,0,0,0.06836269,109.42017,187.30312)" />
    <g
       style="fill:#0000ff;fill-opacity:1"
       id="g3453"
       transform="matrix(0.06836269,0,0,0.06836269,109.42017,187.30312)" />
    <g
       style="fill:#0000ff;fill-opacity:1"
       id="g3455"
       transform="matrix(0.06836269,0,0,0.06836269,109.42017,187.30312)" />
    <g
       style="fill:#0000ff;fill-opacity:1"
       id="g3457"
       transform="matrix(0.06836269,0,0,0.06836269,109.42017,187.30312)" />
    <g
       style="fill:#646464;fill-opacity:1"
       id="g4176"
       transform="matrix(0.58717707,0,0,0.58717707,27.089748,232.675)" />
    <g
       style="fill:#646464;fill-opacity:1"
       id="g4178"
       transform="matrix(0.58717707,0,0,0.58717707,27.089748,232.675)" />
    <g
       style="fill:#646464;fill-opacity:1"
       id="g4180"
       transform="matrix(0.58717707,0,0,0.58717707,27.089748,232.675)" />
    <g
       style="fill:#646464;fill-opacity:1"
       id="g4182"
       transform="matrix(0.58717707,0,0,0.58717707,27.089748,232.675)" />
    <g
       style="fill:#646464;fill-opacity:1"
       id="g4184"
       transform="matrix(0.58717707,0,0,0.58717707,27.089748,232.675)" />
    <g
       style="fill:#646464;fill-opacity:1"
       id="g4186"
       transform="matrix(0.58717707,0,0,0.58717707,27.089748,232.675)" />
    <g
       style="fill:#646464;fill-opacity:1"
       id="g4188"
       transform="matrix(0.58717707,0,0,0.58717707,27.089748,232.675)" />
    <g
       style="fill:#646464;fill-opacity:1"
       id="g4190"
       transform="matrix(0.58717707,0,0,0.58717707,27.089748,232.675)" />
    <g
       style="fill:#646464;fill-opacity:1"
       id="g4192"
       transform="matrix(0.58717707,0,0,0.58717707,27.089748,232.675)" />
    <g
       style="fill:#646464;fill-opacity:1"
       id="g4194"
       transform="matrix(0.58717707,0,0,0.58717707,27.089748,232.675)" />
    <g
       style="fill:#646464;fill-opacity:1"
       id="g4196"
       transform="matrix(0.58717707,0,0,0.58717707,27.089748,232.675)" />
    <g
       style="fill:#646464;fill-opacity:1"
       id="g4198"
       transform="matrix(0.58717707,0,0,0.58717707,27.089748,232.675)" />
    <g
       style="fill:#646464;fill-opacity:1"
       id="g4200"
       transform="matrix(0.58717707,0,0,0.58717707,27.089748,232.675)" />
    <g
       style="fill:#646464;fill-opacity:1"
       id="g4202"
       transform="matrix(0.58717707,0,0,0.58717707,27.089748,232.675)" />
    <g
       style="fill:#646464;fill-opacity:1"
       id="g4204"
       transform="matrix(0.58717707,0,0,0.58717707,27.089748,232.675)" />
    <g
       id="g1056"
       transform="matrix(0.15571035,0,0,0.15571035,63.430998,147.66917)" />
    <g
       id="g1058"
       transform="matrix(0.15571035,0,0,0.15571035,63.430998,147.66917)" />
    <g
       id="g1060"
       transform="matrix(0.15571035,0,0,0.15571035,63.430998,147.66917)" />
    <g
       id="g1062"
       transform="matrix(0.15571035,0,0,0.15571035,63.430998,147.66917)" />
    <g
       id="g1064"
       transform="matrix(0.15571035,0,0,0.15571035,63.430998,147.66917)" />
    <g
       id="g1066"
       transform="matrix(0.15571035,0,0,0.15571035,63.430998,147.66917)" />
    <g
       id="g1068"
       transform="matrix(0.15571035,0,0,0.15571035,63.430998,147.66917)" />
    <g
       id="g1070"
       transform="matrix(0.15571035,0,0,0.15571035,63.430998,147.66917)" />
    <g
       id="g1072"
       transform="matrix(0.15571035,0,0,0.15571035,63.430998,147.66917)" />
    <g
       id="g1074"
       transform="matrix(0.15571035,0,0,0.15571035,63.430998,147.66917)" />
    <g
       id="g1076"
       transform="matrix(0.15571035,0,0,0.15571035,63.430998,147.66917)" />
    <g
       id="g1078"
       transform="matrix(0.15571035,0,0,0.15571035,63.430998,147.66917)" />
    <g
       id="g1080"
       transform="matrix(0.15571035,0,0,0.15571035,63.430998,147.66917)" />
    <g
       id="g1082"
       transform="matrix(0.15571035,0,0,0.15571035,63.430998,147.66917)" />
    <g
       id="g1084"
       transform="matrix(0.15571035,0,0,0.15571035,63.430998,147.66917)" />
    <g
       id="g1353"
       transform="matrix(0.26458333,0,0,0.26458333,39.383334,126.38333)">
      <g
         id="g1295" />
      <g
         id="g1297" />
      <g
         id="g1299" />
      <g
         id="g1301" />
      <g
         id="g1303" />
      <g
         id="g1305" />
      <g
         id="g1307" />
      <g
         id="g1309" />
      <g
         id="g1311" />
      <g
         id="g1313" />
      <g
         id="g1315" />
      <g
         id="g1317" />
      <g
         id="g1319" />
      <g
         id="g1321" />
      <g
         id="g1323" />
      <g
         id="g1767"
         transform="matrix(1.1551424,0,0,1.1551424,-54.997663,-117.6004)"
         style="fill:#000000;fill-opacity:1">
        <g
           style="fill:#000000;fill-opacity:1"
           id="g1433"
           transform="matrix(0.52566964,0,0,0.52566964,-69.136106,292.75273)" />
        <g
           style="fill:#000000;fill-opacity:1"
           id="g1435"
           transform="matrix(0.52566964,0,0,0.52566964,-69.136106,292.75273)" />
        <g
           style="fill:#000000;fill-opacity:1"
           id="g1437"
           transform="matrix(0.52566964,0,0,0.52566964,-69.136106,292.75273)" />
        <g
           style="fill:#000000;fill-opacity:1"
           id="g1439"
           transform="matrix(0.52566964,0,0,0.52566964,-69.136106,292.75273)" />
        <g
           style="fill:#000000;fill-opacity:1"
           id="g1441"
           transform="matrix(0.52566964,0,0,0.52566964,-69.136106,292.75273)" />
        <g
           style="fill:#000000;fill-opacity:1"
           id="g1443"
           transform="matrix(0.52566964,0,0,0.52566964,-69.136106,292.75273)" />
        <g
           style="fill:#000000;fill-opacity:1"
           id="g1445"
           transform="matrix(0.52566964,0,0,0.52566964,-69.136106,292.75273)" />
        <g
           style="fill:#000000;fill-opacity:1"
           id="g1447"
           transform="matrix(0.52566964,0,0,0.52566964,-69.136106,292.75273)" />
        <g
           style="fill:#000000;fill-opacity:1"
           id="g1449"
           transform="matrix(0.52566964,0,0,0.52566964,-69.136106,292.75273)" />
        <g
           style="fill:#000000;fill-opacity:1"
           id="g1451"
           transform="matrix(0.52566964,0,0,0.52566964,-69.136106,292.75273)" />
        <g
           style="fill:#000000;fill-opacity:1"
           id="g1453"
           transform="matrix(0.52566964,0,0,0.52566964,-69.136106,292.75273)" />
        <g
           style="fill:#000000;fill-opacity:1"
           id="g1455"
           transform="matrix(0.52566964,0,0,0.52566964,-69.136106,292.75273)" />
        <g
           style="fill:#000000;fill-opacity:1"
           id="g1457"
           transform="matrix(0.52566964,0,0,0.52566964,-69.136106,292.75273)" />
        <g
           style="fill:#000000;fill-opacity:1"
           id="g1459"
           transform="matrix(0.52566964,0,0,0.52566964,-69.136106,292.75273)" />
        <g
           style="fill:#000000;fill-opacity:1"
           id="g1461"
           transform="matrix(0.52566964,0,0,0.52566964,-69.136106,292.75273)" />
        <path
           style="fill:#000000;fill-opacity:1;stroke-width:3.10104322"
           id="path1526"
           d="m 299.55729,181.48745 h 264.62443 c 6.8409,0 12.40418,-5.56637 12.40418,-12.40417 V 15.680871 c 0,-6.8440027 -5.56328,-12.4041733 -12.40418,-12.4041733 H 299.55729 c -6.8409,0 -12.40417,5.5601706 -12.40417,12.4041733 V 169.08638 c 0,6.8347 5.56327,12.40107 12.40417,12.40107 z m 0,-165.806579 h 264.62443 l 0.009,153.405509 H 299.55729 Z"
           inkscape:connector-curvature="0" />
        <path
           style="fill:#000000;fill-opacity:1;stroke-width:3.10104322"
           id="path1528"
           d="m 590.07233,218.82091 c -0.37832,0.16436 -0.79696,0.26049 -1.23111,0.26049 -0.0217,-0.003 -0.0403,-0.003 -0.062,0 h -313.8194 c -0.41864,0 -0.81247,-0.10853 -1.1846,-0.26669 v 0 c -1.22491,0 -2.33198,0.71324 -2.84676,1.82342 -0.57059,1.24041 -0.46826,2.61728 0.27599,3.78017 1.30865,2.04048 3.49798,5.46714 53.30384,7.94797 28.14507,1.40477 65.66149,2.17383 105.63084,2.17383 35.89147,0 153.62258,-0.70704 161.91167,-9.75898 0.80937,-0.8838 1.2001,-1.98467 1.09777,-3.10104 -0.13335,-1.60945 -1.4668,-2.84056 -3.07624,-2.85917 z m -136.03036,9.71557 h -44.34492 c -1.02645,0 -1.86063,-0.83418 -1.86063,-1.86062 0,-1.02645 0.83418,-1.86063 1.86063,-1.86063 h 44.34492 c 1.02644,0 1.86062,0.83418 1.86062,1.86063 0,1.02644 -0.83418,1.86062 -1.86062,1.86062 z"
           inkscape:connector-curvature="0" />
        <path
           style="fill:#000000;fill-opacity:1;stroke-width:3.10104322"
           id="path1530"
           d="m 273.78142,215.71367 h 316.2599 c 0.009,0 0.0217,0.006 0.0341,0.006 1.09777,-0.47136 1.86993,-1.56603 1.86993,-2.84055 0,-0.8838 -0.37522,-1.69007 -0.96752,-2.25446 l -19.07452,-25.94333 c -0.583,-0.79387 -1.51331,-1.26213 -2.49944,-1.26213 H 295.21273 c -0.96442,0 -1.87303,0.45276 -2.45913,1.21251 l -20.24671,26.35887 c -0.71944,0.93962 -0.84348,2.20484 -0.32251,3.2654 0.33182,0.67603 0.91171,1.17529 1.59704,1.45749 z m 22.95392,-26.09218 h 271.08701 l 14.81988,20.15678 H 281.25494 Z"
           inkscape:connector-curvature="0" />
        <path
           style="fill:#0000ff;fill-opacity:1;stroke-width:3.10104322"
           id="path1532"
           d="m 480.33261,107.58649 v 0 c 0.009,-0.0589 -0.003,-0.10854 -0.006,-0.16435 0,-0.0651 0.006,-0.13335 -0.009,-0.19537 -0.0124,-0.0558 -0.0465,-0.0992 -0.0651,-0.15195 -0.0279,-0.0558 -0.0434,-0.11474 -0.0775,-0.16436 -0.0341,-0.0496 -0.0837,-0.0775 -0.12714,-0.11784 -0.0434,-0.0403 -0.0775,-0.0868 -0.13025,-0.12094 -0.0496,-0.0279 -0.10853,-0.0403 -0.16125,-0.0589 -0.062,-0.0248 -0.10854,-0.0558 -0.17056,-0.0651 h -0.009 v 0 l -16.47274,-2.53975 c -0.0589,-0.009 -0.11474,0.006 -0.17056,0.009 -0.0651,0 -0.12404,-0.006 -0.18606,0.006 -0.0651,0.0186 -0.11784,0.0558 -0.17676,0.0806 -0.0465,0.0217 -0.0961,0.0341 -0.13645,0.0651 -0.062,0.0403 -0.0992,0.0992 -0.14575,0.15505 -0.031,0.0341 -0.0651,0.062 -0.0899,0.0961 -0.0341,0.0589 -0.0496,0.12714 -0.0713,0.19226 -0.0155,0.0496 -0.0465,0.0899 -0.0527,0.14265 -1.10397,6.65794 -4.24843,12.69567 -9.08606,17.44337 -5.99121,5.87958 -13.89887,9.11706 -22.2872,9.11706 -17.5395,0 -31.8105,-14.271 -31.8105,-31.807397 0,-17.536399 14.271,-31.807401 31.8105,-31.807401 3.68094,0 7.29986,0.626411 10.74822,1.866828 v 0 0 c 0.0992,0.03721 0.20157,0.05272 0.307,0.05272 0.009,0 0.0186,-0.0031 0.0279,-0.0031 0.0279,0 0.0527,-0.0093 0.0806,-0.0124 0.0744,-0.0093 0.15505,-0.03101 0.22638,-0.05892 0.0341,-0.0155 0.0651,-0.03101 0.093,-0.04652 0.0651,-0.03721 0.12714,-0.08063 0.18296,-0.133345 0.0248,-0.02171 0.0496,-0.04341 0.0682,-0.06512 0.0682,-0.07753 0.12715,-0.170558 0.16436,-0.272892 0,-0.0031 0.003,-0.0062 0.006,-0.0093 v -0.0031 l 5.56327,-15.709886 c 0.0248,-0.06512 0.0217,-0.127143 0.031,-0.192264 0.006,-0.05582 0.0248,-0.108537 0.0217,-0.164356 -0.003,-0.06822 -0.031,-0.133345 -0.0558,-0.198467 -0.0124,-0.04651 -0.0155,-0.09303 -0.0341,-0.136445 -0.0341,-0.06512 -0.0868,-0.124042 -0.13335,-0.182962 -0.0248,-0.03411 -0.0403,-0.06822 -0.0682,-0.09613 -0.0589,-0.05272 -0.12714,-0.08063 -0.19536,-0.11784 -0.0403,-0.02171 -0.0651,-0.05272 -0.11474,-0.06822 0,0 0,0 -0.003,0 -5.43303,-1.941253 -11.12655,-2.924284 -16.9193,-2.924284 -27.72953,0 -50.28651,22.556989 -50.28651,50.286518 0,27.729523 22.55698,50.286513 50.28651,50.286513 13.31278,0 25.86581,-5.15703 35.33949,-14.52528 7.64718,-7.55104 12.59024,-17.12086 14.29581,-27.68612 z m -14.93772,25.75727 -10.51564,-10.51564 c 4.53993,-4.70738 7.56034,-10.51254 8.79456,-16.90069 l 14.70515,2.26376 c -1.72108,9.53261 -6.18969,18.19383 -12.98407,25.15257 z"
           inkscape:connector-curvature="0" />
        <path
           style="fill:#0000ff;fill-opacity:1;stroke-width:3.10104322"
           id="path1534"
           d="m 452.43563,59.092376 c 0.0279,0.05582 0.0682,0.09613 0.10543,0.142648 0.0372,0.04962 0.062,0.09613 0.0992,0.136446 0.0496,0.04652 0.11473,0.07132 0.17365,0.105435 0.0496,0.02791 0.0837,0.06512 0.13335,0.07753 12.59644,4.524423 21.06229,16.556471 21.06229,29.943675 0,1.727281 -0.14575,3.488673 -0.43725,5.240763 v 0.0031 c 0,0.0031 0,0.0031 0,0.0031 -0.009,0.06512 0.003,0.124042 0.009,0.186062 0.003,0.05892 -0.006,0.11784 0.006,0.173659 0.0155,0.05892 0.0527,0.108536 0.0744,0.161254 0.0217,0.05272 0.0403,0.108537 0.0682,0.155052 0.0403,0.05272 0.0868,0.08373 0.13335,0.124042 0.0434,0.04031 0.0713,0.08063 0.12094,0.111638 0.0558,0.03411 0.12094,0.04962 0.18296,0.06822 0.0527,0.01861 0.093,0.04962 0.15195,0.05892 0,0 0.003,0 0.006,0 0,0 0,0 0.003,0 l 16.46654,2.539755 v 0 h 0.006 c 0.0496,0.0062 0.093,0.0124 0.13954,0.0124 0.10854,0 0.21397,-0.02171 0.31631,-0.06202 0.0403,-0.0124 0.0651,-0.04031 0.10543,-0.06202 0.0558,-0.02791 0.11474,-0.05582 0.16436,-0.09613 0.0341,-0.02791 0.0589,-0.06822 0.0899,-0.105436 0.0372,-0.04651 0.0775,-0.08373 0.11164,-0.133344 0.0217,-0.04031 0.0279,-0.08683 0.0434,-0.130244 0.0217,-0.05892 0.0527,-0.111638 0.0651,-0.17676 0,0 0,-0.0031 0,-0.0062 0.43725,-2.682402 0.65122,-5.398916 0.65122,-8.068914 0,-21.195631 -13.40581,-40.229835 -33.36412,-47.356033 0,-0.0031 0,-0.0031 0,-0.0031 -0.22018,-0.07443 -0.44965,-0.05892 -0.64812,0.02481 -0.0124,0.0062 -0.031,0.0062 -0.0434,0.0124 -0.0651,0.03101 -0.11164,0.07753 -0.16436,0.12094 -0.0434,0.03101 -0.0837,0.04962 -0.11474,0.08373 -0.0465,0.04962 -0.0682,0.111637 -0.10233,0.170557 -0.0279,0.04652 -0.0651,0.08373 -0.0837,0.136446 v 0.0031 l -5.56327,15.709885 c -0.0186,0.05892 -0.0155,0.114739 -0.0248,0.173659 -0.009,0.06202 -0.0279,0.124041 -0.0248,0.182961 0.003,0.05582 0.0279,0.102335 0.0403,0.158154 0.0124,0.06202 0.0186,0.124041 0.0403,0.17986 z"
           inkscape:connector-curvature="0" />
        <polygon
           style="fill:#000000;fill-opacity:1"
           id="polygon1536"
           points="67.256,53.969 66.346,54.877 69.698,58.23 74.092,58.23 74.092,56.943 70.23,56.943 "
           transform="matrix(3.1010433,0,0,3.1010433,270.56564,-42.392367)" />
        <polygon
           style="fill:#000000;fill-opacity:1"
           id="polygon1538"
           points="28.101,55.361 22.486,55.361 22.486,56.648 28.452,56.648 34.69,52.98 34.039,51.871 "
           transform="matrix(3.1010433,0,0,3.1010433,270.56564,-42.392367)" />
        <polygon
           style="fill:#000000;fill-opacity:1"
           id="polygon1540"
           points="81.566,28.206 74.417,28.206 69.992,32.631 70.9,33.541 74.95,29.494 81.566,29.494 "
           transform="matrix(3.1010433,0,0,3.1010433,270.56564,-42.392367)" />
        <rect
           style="fill:#000000;fill-opacity:1;stroke-width:3.10104322"
           id="rect1542"
           height="2.0683959"
           width="15.505217"
           y="85.829567"
           x="546.09021" />
        <rect
           style="fill:#000000;fill-opacity:1;stroke-width:3.10104322"
           id="rect1544"
           height="2.0683959"
           width="33.593601"
           y="90.310577"
           x="528.00183" />
        <rect
           style="fill:#000000;fill-opacity:1;stroke-width:3.10104322"
           id="rect1546"
           height="2.0683959"
           width="23.710577"
           y="95.235039"
           x="537.888" />
        <rect
           style="fill:#000000;fill-opacity:1;stroke-width:3.10104322"
           id="rect1548"
           height="2.0683959"
           width="20.513401"
           y="100.33005"
           x="541.07898" />
        <rect
           style="fill:#000000;fill-opacity:1;stroke-width:3.10104322"
           id="rect1550"
           height="2.0683959"
           width="44.447254"
           y="104.81726"
           x="517.14819" />
        <rect
           style="fill:#000000;fill-opacity:1;stroke-width:3.10104322"
           id="rect1552"
           height="2.0683959"
           width="31.370155"
           y="109.73861"
           x="530.22223" />
        <path
           style="fill:#000000;fill-opacity:1;stroke-width:3.10104322"
           id="path1554"
           d="m 537.30498,120.89617 c -4.11819,0 -7.91386,1.35826 -10.9994,3.63442 l -4.97717,-4.98027 h -17.16118 v 0.93341 h 16.77354 l 4.61126,4.61125 c -4.18021,3.41735 -6.85331,8.59919 -6.85331,14.40745 0,10.26135 8.34491,18.60626 18.60626,18.60626 10.26445,0 18.60626,-8.34491 18.60626,-18.60626 0,-10.26135 -8.34491,-18.60626 -18.60626,-18.60626 z m 0,35.662 c -9.40546,0 -17.05574,-7.65648 -17.05574,-17.05574 0,-5.37411 2.51185,-10.17452 6.40676,-13.30038 l 4.1678,4.16781 c -2.86226,2.03428 -4.7446,5.3617 -4.7446,9.13257 0,6.18968 5.0361,11.21957 11.22578,11.21957 6.18968,0 11.22578,-5.02989 11.22578,-11.21957 0,-6.18968 -5.0361,-11.22268 -11.22578,-11.22268 -2.0715,0 -3.99414,0.5985 -5.6625,1.58774 l -4.22983,-4.22983 c 2.79094,-2.00327 6.20209,-3.18787 9.88923,-3.18787 9.40546,0 17.05574,7.65648 17.05574,17.05574 0,9.39926 -7.64718,17.05264 -17.05264,17.05264 z m 0,-27.3481 c 5.67491,0 10.28926,4.61745 10.28926,10.28616 0,5.6718 -4.61435,10.29236 -10.28926,10.29236 -5.67491,0 -10.28616,-4.61745 -10.28616,-10.28616 -0.003,-5.67491 4.61125,-10.29236 10.28616,-10.29236 z"
           inkscape:connector-curvature="0" />
        <rect
           style="fill:#000000;fill-opacity:1;stroke-width:3.10104322"
           id="rect1556"
           height="4.1367917"
           width="26.876741"
           y="26.394974"
           x="304.72675" />
        <rect
           style="fill:#000000;fill-opacity:1;stroke-width:3.10104322"
           id="rect1558"
           height="4.1367917"
           width="26.876741"
           y="26.394974"
           x="334.70453" />
        <rect
           style="fill:#000000;fill-opacity:1;stroke-width:3.10104322"
           id="rect1560"
           height="1.0326475"
           width="28.942038"
           y="65.936371"
           x="304.72675" />
        <rect
           style="fill:#000000;fill-opacity:1;stroke-width:3.10104322"
           id="rect1562"
           height="1.0326475"
           width="46.512547"
           y="59.991676"
           x="304.72675" />
        <rect
           style="fill:#000000;fill-opacity:1;stroke-width:3.10104322"
           id="rect1564"
           height="1.0326475"
           width="20.994062"
           y="53.662449"
           x="304.72675" />
        <rect
           style="fill:#000000;fill-opacity:1;stroke-width:3.10104322"
           id="rect1566"
           height="1.0326475"
           width="33.739353"
           y="47.717751"
           x="304.72675" />
        <rect
           style="fill:#000000;fill-opacity:1;stroke-width:3.10104322"
           id="rect1568"
           height="1.0326475"
           width="41.08572"
           y="40.610161"
           x="304.72675" />
        <rect
           style="fill:#000000;fill-opacity:1;stroke-width:3.10104322"
           id="rect1570"
           height="1.0326475"
           width="33.739353"
           y="34.665462"
           x="304.72675" />
        <g
           id="g1773"
           style="fill:#0000ff;fill-opacity:1"
           transform="matrix(0.50289655,0,0,0.50289655,165.01432,306.76478)" />
        <g
           id="g1775"
           style="fill:#0000ff;fill-opacity:1"
           transform="matrix(0.50289655,0,0,0.50289655,165.01432,306.76478)" />
        <g
           id="g1777"
           style="fill:#0000ff;fill-opacity:1"
           transform="matrix(0.50289655,0,0,0.50289655,165.01432,306.76478)" />
        <g
           id="g1779"
           style="fill:#0000ff;fill-opacity:1"
           transform="matrix(0.50289655,0,0,0.50289655,165.01432,306.76478)" />
        <g
           id="g1781"
           style="fill:#0000ff;fill-opacity:1"
           transform="matrix(0.50289655,0,0,0.50289655,165.01432,306.76478)" />
        <g
           id="g1783"
           style="fill:#0000ff;fill-opacity:1"
           transform="matrix(0.50289655,0,0,0.50289655,165.01432,306.76478)" />
        <g
           id="g1785"
           style="fill:#0000ff;fill-opacity:1"
           transform="matrix(0.50289655,0,0,0.50289655,165.01432,306.76478)" />
        <g
           id="g1787"
           style="fill:#0000ff;fill-opacity:1"
           transform="matrix(0.50289655,0,0,0.50289655,165.01432,306.76478)" />
        <g
           id="g1789"
           style="fill:#0000ff;fill-opacity:1"
           transform="matrix(0.50289655,0,0,0.50289655,165.01432,306.76478)" />
        <g
           id="g1791"
           style="fill:#0000ff;fill-opacity:1"
           transform="matrix(0.50289655,0,0,0.50289655,165.01432,306.76478)" />
        <g
           id="g1793"
           style="fill:#0000ff;fill-opacity:1"
           transform="matrix(0.50289655,0,0,0.50289655,165.01432,306.76478)" />
        <g
           id="g1795"
           style="fill:#0000ff;fill-opacity:1"
           transform="matrix(0.50289655,0,0,0.50289655,165.01432,306.76478)" />
        <g
           id="g1797"
           style="fill:#0000ff;fill-opacity:1"
           transform="matrix(0.50289655,0,0,0.50289655,165.01432,306.76478)" />
        <g
           id="g1799"
           style="fill:#0000ff;fill-opacity:1"
           transform="matrix(0.50289655,0,0,0.50289655,165.01432,306.76478)" />
        <g
           id="g1801"
           style="fill:#0000ff;fill-opacity:1"
           transform="matrix(0.50289655,0,0,0.50289655,165.01432,306.76478)" />
        <g
           style="fill:#000000;fill-opacity:1"
           id="g1576"
           transform="matrix(3.1010433,0,0,3.1010433,270.56564,-42.392367)" />
        <g
           style="fill:#000000;fill-opacity:1"
           id="g1578"
           transform="matrix(3.1010433,0,0,3.1010433,270.56564,-42.392367)" />
        <g
           style="fill:#000000;fill-opacity:1"
           id="g1580"
           transform="matrix(3.1010433,0,0,3.1010433,270.56564,-42.392367)" />
        <g
           style="fill:#000000;fill-opacity:1"
           id="g1582"
           transform="matrix(3.1010433,0,0,3.1010433,270.56564,-42.392367)" />
        <g
           style="fill:#000000;fill-opacity:1"
           id="g1584"
           transform="matrix(3.1010433,0,0,3.1010433,270.56564,-42.392367)" />
        <g
           style="fill:#000000;fill-opacity:1"
           id="g1586"
           transform="matrix(3.1010433,0,0,3.1010433,270.56564,-42.392367)" />
        <g
           style="fill:#000000;fill-opacity:1"
           id="g1588"
           transform="matrix(3.1010433,0,0,3.1010433,270.56564,-42.392367)" />
        <g
           style="fill:#000000;fill-opacity:1"
           id="g1590"
           transform="matrix(3.1010433,0,0,3.1010433,270.56564,-42.392367)" />
        <g
           style="fill:#000000;fill-opacity:1"
           id="g1592"
           transform="matrix(3.1010433,0,0,3.1010433,270.56564,-42.392367)" />
        <g
           style="fill:#000000;fill-opacity:1"
           id="g1594"
           transform="matrix(3.1010433,0,0,3.1010433,270.56564,-42.392367)" />
        <g
           style="fill:#000000;fill-opacity:1"
           id="g1596"
           transform="matrix(3.1010433,0,0,3.1010433,270.56564,-42.392367)" />
        <g
           style="fill:#000000;fill-opacity:1"
           id="g1598"
           transform="matrix(3.1010433,0,0,3.1010433,270.56564,-42.392367)" />
        <g
           style="fill:#000000;fill-opacity:1"
           id="g1600"
           transform="matrix(3.1010433,0,0,3.1010433,270.56564,-42.392367)" />
        <g
           style="fill:#000000;fill-opacity:1"
           id="g1602"
           transform="matrix(3.1010433,0,0,3.1010433,270.56564,-42.392367)" />
        <g
           style="fill:#000000;fill-opacity:1"
           id="g1604"
           transform="matrix(3.1010433,0,0,3.1010433,270.56564,-42.392367)" />
        <g
           transform="matrix(3.0535705,0,0,3.0535705,37.721721,62.850482)"
           id="g1657"
           style="fill:#000000;fill-opacity:1">
          <path
             style="fill:#000000;fill-opacity:1"
             inkscape:connector-curvature="0"
             d="m 63.386,16.193 0.002,-0.002 c 0.002,-0.003 0.004,-0.006 0.006,-0.01 0.172,-0.195 0.298,-0.43 0.399,-0.678 0.032,-0.076 0.053,-0.148 0.076,-0.225 0.058,-0.191 0.094,-0.389 0.106,-0.596 0.006,-0.076 0.018,-0.148 0.016,-0.226 0,-0.04 0.01,-0.076 0.008,-0.115 -0.014,-0.239 -0.062,-0.47 -0.136,-0.687 -0.006,-0.023 -0.022,-0.041 -0.03,-0.064 -0.088,-0.239 -0.214,-0.451 -0.363,-0.645 -0.021,-0.027 -0.028,-0.063 -0.05,-0.09 L 53.109,0.709 c -0.789,-0.93 -2.084,-0.948 -2.894,-0.037 -0.808,0.91 -0.823,2.402 -0.032,3.334 l 5.558,6.549 C 47.62,9.479 39.637,11.188 39.26,11.272 14.614,15.739 -2.827,38.499 0.38,62.008 0.539,63.172 1.408,64 2.399,64 2.505,64 2.611,63.991 2.719,63.973 3.835,63.77 4.597,62.564 4.423,61.277 1.566,40.337 17.479,19.995 39.96,15.919 40.063,15.895 48.311,14.125 56.077,15.345 L 47.5,20.438 c -1.005,0.598 -1.398,2.02 -0.881,3.177 0.516,1.159 1.748,1.608 2.756,1.017 l 13.52,-8.028 c 0.183,-0.111 0.347,-0.25 0.491,-0.411 z"
             id="path1655" />
        </g>
        <g
           id="g2166"
           transform="translate(0,22.857143)">
          <path
             inkscape:connector-curvature="0"
             id="path1769"
             d="m -60.159542,298.05052 c -4.6357,0 -8.39844,3.76883 -8.39844,8.39648 v 183.99023 c 0,2.84338 1.4266,5.34933 3.59961,6.8711 v 1.32422 h 3.00976 c 0.57632,0.12673 1.17302,0.20117 1.78907,0.20117 h 82.20898 a 92.622054,92.622054 0 0 1 -5.39844,-7.40039 h -44.8164 V 468.63645 H 5.8638884 a 92.622054,92.622054 0 0 1 -1.96679,-7.19922 H -28.165402 V 437.79661 H 1.5494384 a 92.622054,92.622054 0 0 1 0.4375,-7.19531 H -28.165402 V 405.64036 H 8.3189684 a 92.622054,92.622054 0 0 1 3.3476596,-7.19727 h -39.83203 v -26.99804 h 53.39648 v 7.30468 a 92.622054,92.622054 0 0 1 7.19922,-7.15624 v -0.14844 h 0.16797 a 92.622054,92.622054 0 0 1 9.18555,-7.19922 h -9.35352 v -26.39844 h 54.00195 v 10.49805 a 92.622054,92.622054 0 0 1 7.20118,-0.34571 V 337.84739 H 149.026 v 26.39844 h -2.58984 a 92.622054,92.622054 0 0 1 9.78906,7.87305 v -65.66797 c 5e-4,-4.63017 -3.76978,-8.40039 -8.39843,-8.40039 z m 31.99414,7.19531 h 53.39648 v 25.40234 h -53.39648 z m 60.5957,0 h 54.00195 v 25.40234 h -54.00195 z m 61.20313,0 h 54.193362 c 0.65979,0 1.19921,0.53936 1.19921,1.20117 v 24.20117 H 93.633428 Z m -154.99219,32.60156 h 25.99219 v 26.39844 h -25.99219 z m 33.19336,0 h 53.39648 v 26.39844 h -53.39648 z m -33.19336,33.59766 h 25.99219 v 26.99804 h -25.99219 z m 0,34.19531 h 25.99219 v 24.96094 h -25.99219 z m 38.03125,4.30859 V 424.9763 H 2.8384984 a 92.622054,92.622054 0 0 1 3.90821,-15.02735 z m -38.03125,27.84766 h 25.99219 v 23.64062 h -25.99219 z m 0,30.83984 h 25.99219 v 22.79688 h -25.41602 c -0.33995,-0.2092 -0.57617,-0.56965 -0.57617,-0.9961 z"
             style="fill:#0000ff;fill-opacity:1;stroke-width:0.50289655" />
          <path
             inkscape:connector-curvature="0"
             id="path2051-2"
             d="m 97.949278,371.60827 v 26.1211 h -57.78125 a 68.482947,68.482947 0 0 0 -6.1211,9.14453 h 63.90235 v 31.70898 h -68.60352 v -20.94922 a 68.482947,68.482947 0 0 0 -3.79687,22.26172 68.482947,68.482947 0 0 0 3.79687,22.23438 v -14.40625 h 68.60352 v 30.0332 h -60.92969 a 68.482947,68.482947 0 0 0 7.26367,9.14453 h 53.66602 v 21.33789 a 68.482947,68.482947 0 0 0 9.146482,-1.17773 v -20.16016 h 36.62305 a 68.482947,68.482947 0 0 0 7.32812,-9.14453 h -43.95117 v -30.0332 h 54.92578 a 68.482947,68.482947 0 0 0 0.49219,-7.82813 68.482947,68.482947 0 0 0 -0.0469,-1.3125 h -55.3711 V 406.8739 h 46.84571 a 68.482947,68.482947 0 0 0 -5.97657,-9.14453 h -40.86911 v -25.03516 a 68.482947,68.482947 0 0 0 -9.146482,-1.08594 z m 17.603512,41.03711 v 19.0918 h 46.38868 a 68.482947,68.482947 0 0 0 -5.16993,-19.0918 z m -79.476562,0.41993 v 19.09179 h 54.88867 v -19.09179 z"
             style="fill:#0000ff;fill-opacity:1;stroke:#000000;stroke-width:0.83183622;stroke-opacity:1" />
          <g
             transform="translate(-233.57143,-20.714286)"
             id="g2142">
            <path
               style="fill:#000000;fill-opacity:1;stroke-width:0.59140193"
               d="m 327.58567,384.62034 c -20.48793,0 -39.7497,7.97817 -54.23726,22.46574 -29.90542,29.90601 -29.90542,78.56794 0,108.47453 14.48756,14.48699 33.74874,22.46575 54.23726,22.46575 20.48794,0 39.74971,-7.97817 54.23727,-22.46575 14.48699,-14.48696 22.46354,-33.74932 22.46354,-54.23726 0,-20.48793 -7.97655,-39.74969 -22.46354,-54.23727 -14.48756,-14.48698 -33.74874,-22.46574 -54.23727,-22.46574 z m -0.002,8.73668 c 18.15427,0 35.22354,7.06884 48.06051,19.90582 14.74016,17.05633 19.09891,33.83531 19.90802,48.06051 -5.9e-4,18.15426 -7.07105,35.22353 -19.90802,48.06051 -12.83697,12.83696 -29.90405,19.90582 -48.05831,19.90582 -18.15426,0 -35.22354,-7.06826 -48.06051,-19.90582 -6.05046,-6.17862 -8.3,-9.64425 -11.7075,-15.69131 -13.93225,-25.76087 -10.03362,-58.6886 11.7075,-80.42971 12.83697,-12.83698 29.90405,-19.90582 48.05831,-19.90582 z"
               id="path1355"
               inkscape:connector-curvature="0"
               sodipodi:nodetypes="sccscscssccssccss" />
            <g
               style="fill:#000000;fill-opacity:1"
               id="g1365"
               transform="matrix(0.52566964,0,0,0.52566964,223.60014,362.75854)">
              <g
                 style="fill:#000000;fill-opacity:1"
                 id="g1363">
                <path
                   style="fill:#000000;fill-opacity:1"
                   id="path1361"
                   d="m 132.414,112.159 9.69,11.148 c 22.904,-19.908 55.016,-26.046 83.81,-16.017 l 4.859,-13.949 c -33.778,-11.766 -71.467,-4.555 -98.359,18.818 z"
                   inkscape:connector-curvature="0" />
              </g>
            </g>
            <g
               style="fill:#000000;fill-opacity:1"
               id="g1371"
               transform="matrix(0.52566964,0,0,0.52566964,223.60014,362.75854)">
              <g
                 style="fill:#000000;fill-opacity:1"
                 id="g1369">
                <path
                   style="fill:#000000;fill-opacity:1"
                   id="path1367"
                   d="m 249.73,102.292 -7.684,12.615 c 3.909,2.381 7.661,5.111 11.151,8.113 l 9.633,-11.199 c -4.098,-3.524 -8.506,-6.73 -13.1,-9.529 z"
                   inkscape:connector-curvature="0" />
              </g>
            </g>
            <g
               style="fill:#000000;fill-opacity:1"
               id="g1377"
               transform="matrix(0.52566964,0,0,0.52566964,223.60014,362.75854)">
              <g
                 style="fill:#000000;fill-opacity:1"
                 id="g1375">
                <path
                   style="fill:#000000;fill-opacity:1"
                   id="path1373"
                   d="m 215.487,270.617 c -16.619,3.503 -33.698,2.029 -49.396,-4.26 l -5.493,13.711 c 11.903,4.769 24.478,7.179 37.146,7.179 6.935,0 13.897,-0.723 20.79,-2.176 z"
                   inkscape:connector-curvature="0" />
              </g>
            </g>
            <g
               style="fill:#000000;fill-opacity:1"
               id="g1389"
               transform="matrix(0.52566964,0,0,0.52566964,223.60014,362.75854)">
              <g
                 style="fill:#000000;fill-opacity:1"
                 id="g1387">
                <polygon
                   style="fill:#000000;fill-opacity:1"
                   id="polygon1385"
                   points="382.845,348.478 361.709,369.613 372.155,380.058 382.845,369.367 423.611,410.133 434.055,399.689 " />
              </g>
            </g>
            <g
               style="fill:#000000;fill-opacity:1"
               id="g1395"
               transform="matrix(0.52566964,0,0,0.52566964,223.60014,362.75854)">
              <g
                 style="fill:#000000;fill-opacity:1"
                 id="g1393">
                <rect
                   style="fill:#000000;fill-opacity:1"
                   id="rect1391"
                   height="15.481"
                   width="14.771"
                   transform="matrix(0.7071,-0.7071,0.7071,0.7071,-168.2064,439.9582)"
                   y="415.28299"
                   x="439.59" />
              </g>
            </g>
            <g
               style="fill:#000000;fill-opacity:1"
               id="g1383"
               transform="matrix(0.52566964,0,0,0.52566964,223.60014,362.75854)">
              <g
                 style="fill:#000000;fill-opacity:1"
                 id="g1381">
                <path
                   style="fill:#000000;fill-opacity:1"
                   id="path1379"
                   d="M 382.834,306.165 372.11,316.889 345.504,288.45 C 376.994,242.419 384.575,184.833 368.239,133.238 355.52024,95.638419 349.38687,87.188603 324.308,61.013 254.56,-8.734 141.076,-8.732 71.329,61.013 9.198,123.144 2.415,219.981 50.974,289.691 c 32.594516,47.27337 87.35331,75.74546 146.844,76.61 35.164,0 70.324,-10.288 100.542,-30.838 l 26.669,28.507 -11.09,11.09 L 443.103,503.773 512,434.878 Z M 81.773,303.548 c -63.987,-63.987 -63.987,-168.101 0,-232.09 31.993,-31.994 74.018,-47.989 116.044,-47.989 42.026,0 84.052,15.997 116.045,47.989 63.987,63.987 63.987,168.102 0,232.09 -63.985,63.986 -168.104,63.986 -232.089,0 z m 228.525,23.054 c 4.835,-3.915 9.514,-8.115 14.01,-12.61 4.344,-4.344 8.416,-8.858 12.218,-13.519 l 25.135,26.865 -26.181,26.181 z m 132.788,156.3 -108.238,-107.861 48.006,-48.006 108.238,107.86 z"
                   inkscape:connector-curvature="0"
                   sodipodi:nodetypes="cccccccccccccccsscscccccccccccc" />
              </g>
            </g>
          </g>
        </g>
      </g>
    </g>
  </g>
</svg>
