<?xml version="1.0" encoding="UTF-8" standalone="no"?>
<!-- Created with Inkscape (http://www.inkscape.org/) -->

<svg
   xmlns:osb="http://www.openswatchbook.org/uri/2009/osb"
   xmlns:dc="http://purl.org/dc/elements/1.1/"
   xmlns:cc="http://creativecommons.org/ns#"
   xmlns:rdf="http://www.w3.org/1999/02/22-rdf-syntax-ns#"
   xmlns:svg="http://www.w3.org/2000/svg"
   xmlns="http://www.w3.org/2000/svg"
   xmlns:xlink="http://www.w3.org/1999/xlink"
   xmlns:sodipodi="http://sodipodi.sourceforge.net/DTD/sodipodi-0.dtd"
   xmlns:inkscape="http://www.inkscape.org/namespaces/inkscape"
   width="132.88106"
   height="49.92308"
   viewBox="0 0 103.55558 112.82616"
   version="1.1"
   id="svg8"
   inkscape:version="0.92.2 (5c3e80d, 2017-08-06)"
   sodipodi:docname="logo.svg">
  <defs
     id="defs2">
    <linearGradient
       id="linearGradient860"
       inkscape:collect="always">
      <stop
         id="stop856"
         offset="0"
         style="stop-color:#ffffff;stop-opacity:1" />
      <stop
         id="stop858"
         offset="1"
         style="stop-color:#2eaae1;stop-opacity:1" />
    </linearGradient>
    <linearGradient
       inkscape:collect="always"
       id="linearGradient883">
      <stop
         style="stop-color:#ffffff;stop-opacity:1"
         offset="0"
         id="stop875" />
      <stop
         id="stop4563"
         offset="0.22441445"
         style="stop-color:#eff9fd;stop-opacity:1" />
      <stop
         id="stop877"
         offset="0.51278996"
         style="stop-color:#c2e6f6;stop-opacity:1" />
      <stop
         id="stop879"
         offset="0.76909596"
         style="stop-color:#7ecbec;stop-opacity:1" />
      <stop
         style="stop-color:#2eaae1;stop-opacity:1"
         offset="1"
         id="stop881" />
    </linearGradient>
    <linearGradient
       id="linearGradient2807"
       osb:paint="solid">
      <stop
         style="stop-color:#000000;stop-opacity:1;"
         offset="0"
         id="stop2805" />
    </linearGradient>
    <linearGradient
       inkscape:collect="always"
       id="linearGradient904">
      <stop
         style="stop-color:#ffffff;stop-opacity:0.98958331"
         offset="0"
         id="stop900" />
      <stop
         id="stop910"
         offset="0.5660879"
         style="stop-color:#afba03;stop-opacity:1" />
      <stop
         style="stop-color:#ffffff;stop-opacity:1"
         offset="1"
         id="stop902" />
    </linearGradient>
    <linearGradient
       id="linearGradient980"
       inkscape:collect="always">
      <stop
         id="stop976"
         offset="0"
         style="stop-color:#ffffff;stop-opacity:1" />
      <stop
         style="stop-color:#dff3f9;stop-opacity:1"
         offset="0.34767917"
         id="stop1523" />
      <stop
         style="stop-color:#61c3e0;stop-opacity:1"
         offset="0.75857234"
         id="stop982" />
      <stop
         id="stop978"
         offset="1"
         style="stop-color:#2aabe4;stop-opacity:1" />
    </linearGradient>
    <linearGradient
       inkscape:collect="always"
       id="linearGradient936">
      <stop
         style="stop-color:#ffffff;stop-opacity:1"
         offset="0"
         id="stop932" />
      <stop
         style="stop-color:#2aabe4;stop-opacity:1"
         offset="1"
         id="stop934" />
    </linearGradient>
    <radialGradient
       gradientTransform="translate(129.83483,-0.18898583)"
       inkscape:collect="always"
       xlink:href="#linearGradient980"
       id="radialGradient938-5"
       cx="108.10119"
       cy="127.64211"
       fx="108.10119"
       fy="127.64211"
       r="41.854946"
       gradientUnits="userSpaceOnUse" />
    <radialGradient
       gradientTransform="translate(129.83483,-0.18898583)"
       inkscape:collect="always"
       xlink:href="#linearGradient936"
       id="radialGradient960-5"
       cx="108.10119"
       cy="127.64211"
       fx="108.10119"
       fy="127.64211"
       r="41.854946"
       gradientUnits="userSpaceOnUse" />
    <linearGradient
       inkscape:collect="always"
       xlink:href="#linearGradient904"
       id="linearGradient908"
       gradientUnits="userSpaceOnUse"
       x1="233.77725"
       y1="102.14072"
       x2="265.07211"
       y2="148.96956" />
    <linearGradient
       inkscape:collect="always"
       xlink:href="#linearGradient904"
       id="linearGradient918"
       x1="197.73479"
       y1="101.16531"
       x2="225.82541"
       y2="146.23314"
       gradientUnits="userSpaceOnUse" />
    <linearGradient
       inkscape:collect="always"
       xlink:href="#linearGradient904"
       id="linearGradient934"
       x1="219.34966"
       y1="97.381294"
       x2="225.46281"
       y2="104.7046"
       gradientUnits="userSpaceOnUse" />
    <linearGradient
       inkscape:collect="always"
       xlink:href="#linearGradient904"
       id="linearGradient942"
       x1="269.54153"
       y1="147.84494"
       x2="274.69418"
       y2="152.23512"
       gradientUnits="userSpaceOnUse" />
    <radialGradient
       inkscape:collect="always"
       xlink:href="#linearGradient883"
       id="radialGradient959"
       gradientUnits="userSpaceOnUse"
       gradientTransform="translate(129.83484,-0.18898583)"
       cx="108.10119"
       cy="127.64211"
       fx="108.10119"
       fy="127.64211"
       r="41.854946" />
    <radialGradient
       inkscape:collect="always"
       xlink:href="#linearGradient860"
       id="radialGradient961"
       gradientUnits="userSpaceOnUse"
       gradientTransform="translate(129.83484,-0.18898583)"
       cx="108.10119"
       cy="127.64211"
       fx="108.10119"
       fy="127.64211"
       r="41.854946" />
    <filter
       style="color-interpolation-filters:sRGB"
       inkscape:label="Blur"
       id="filter2984">
      <feGaussianBlur
         stdDeviation="1 1"
         result="blur"
         id="feGaussianBlur2982" />
    </filter>
  </defs>
  <sodipodi:namedview
     id="base"
     pagecolor="#ffffff"
     bordercolor="#666666"
     borderopacity="1.0"
     inkscape:pageopacity="0.0"
     inkscape:pageshadow="2"
     inkscape:zoom="5.6"
     inkscape:cx="62.074403"
     inkscape:cy="7.8693885"
     inkscape:document-units="mm"
     inkscape:current-layer="g857"
     showgrid="false"
     inkscape:window-width="1366"
     inkscape:window-height="705"
     inkscape:window-x="1672"
     inkscape:window-y="269"
     inkscape:window-maximized="1"
     fit-margin-top="0"
     fit-margin-left="0"
     fit-margin-right="0"
     fit-margin-bottom="0"
     units="px" />
  <metadata
     id="metadata5">
    <rdf:RDF>
      <cc:Work
         rdf:about="">
        <dc:format>image/svg+xml</dc:format>
        <dc:type
           rdf:resource="http://purl.org/dc/dcmitype/StillImage" />
        <dc:title />
      </cc:Work>
    </rdf:RDF>
  </metadata>
  <g
     inkscape:label="Capa 1"
     inkscape:groupmode="layer"
     id="layer1"
     transform="translate(-56.727788,-41.936649)">
    <g
       id="g905"
       transform="matrix(1.0403775,0,0,1.0403775,8.3403139,-4.0684182)">
      <g
         transform="translate(-93.327099,-2.2697283)"
         id="g873">
        <g
           id="g883"
           transform="translate(-144.3869,-20.78869)">
          <circle
             r="41.816292"
             cy="127.45313"
             cx="237.93604"
             id="path830-6-0"
             style="fill:url(#radialGradient959);fill-opacity:1;stroke:url(#radialGradient961);stroke-width:0.07730991;stroke-miterlimit:4;stroke-dasharray:none;stroke-opacity:1" />
          <g
             id="g844">
            <path
               style="fill:url(#linearGradient918);fill-opacity:1;stroke:#000000;stroke-width:1.26499999;stroke-linecap:butt;stroke-linejoin:round;stroke-miterlimit:4;stroke-dasharray:none;stroke-opacity:1"
               d="m 216.41004,154.31049 -3.56901,-3.49882 -0.0472,-4.20614 -2.26369,-3.67831 -0.0162,-2.82254 -2.0747,-4.29924 -2.75631,-3.38255 c -0.63207,-1.32989 -0.79167,-1.99831 -1.89622,-3.56443 0,0 -2.92411,-3.32179 -3.84475,-6.35304 -0.71171,-2.34336 0.27022,-5.88886 -0.22141,-7.79945 -0.25477,-0.99008 -1.51723,-2.39061 -1.51723,-2.39061 l 2.1773,-3.40154 2.7834,-1.35256 3.60814,-4.54358 8.7335,-4.693434 -3.17619,3.679704 3.01153,3.49743 -2.99532,1.60362 -0.94276,-0.53435 -0.83364,-1.7928 -1.16714,1.81673 -1.28552,1.39861 -1.02995,2.86979 2.7672,0.80181 1.42273,-2.55527 2.02073,0.0864 2.52285,2.31905 -4.1656,6.09995 -0.51162,1.38359 -5.40074,6.28894 0.13363,2.43647 2.55527,3.34897 c 1.47269,0.57908 2.94537,0.82744 4.13458,1.87899 l 0.89631,-0.37798 1.60361,1.35256 0.26727,1.64276 6.57914,3.9618 0.13363,3.8673 -1.54826,3.66349 -4.07251,4.50444 z"
               id="path833"
               inkscape:connector-curvature="0"
               sodipodi:nodetypes="ccccccccssccccccccccccccccccccccccccccccc" />
            <path
               style="fill:url(#linearGradient934);fill-opacity:1;stroke:#000000;stroke-width:1.26499999;stroke-linecap:butt;stroke-linejoin:round;stroke-miterlimit:4;stroke-dasharray:none;stroke-opacity:1"
               d="m 219.79315,108.29538 c -1.70089,-3.81126 -1.70089,-6.20511 -2.64583,-9.165918 l 1.41741,-1.889881 4.15774,-0.850445 c 2.11036,-0.976439 2.51984,-1.29142 5.48065,-1.795389 l 1.79539,-0.944938 c 0,0 1.36929,0.231991 1.6064,0.944941 0.3917,1.177744 -0.84629,3.117264 -1.41741,4.535712 -1.38591,1.291418 -2.29935,3.055298 -3.40178,4.630198 l -4.63021,1.22844 -0.51743,1.30785 z"
               id="path834"
               inkscape:connector-curvature="0"
               sodipodi:nodetypes="ccccccsccccc" />
            <path
               style="fill:url(#linearGradient908);fill-opacity:1;stroke:#000000;stroke-width:1.26499999;stroke-linecap:butt;stroke-linejoin:round;stroke-miterlimit:4;stroke-dasharray:none;stroke-opacity:1"
               d="m 229.32608,130.11777 c 0.94319,2.21775 1.1848,5.12038 2.59572,6.75347 1.0373,1.30205 5.18161,1.65175 6.85368,1.55677 0.84969,0.93779 0.71381,1.5916 0.71158,2.39576 0.12929,0.54259 0.54256,3.07299 2.59285,3.51536 -0.27962,0.52398 0.0601,1.14777 -1.09814,1.17545 -0.21165,1.85609 1.38078,9.5587 3.70819,9.64412 2.55364,-0.32862 3.13616,-1.85996 3.58504,-2.95699 0.6726,-0.42792 1.47883,-0.82244 1.95097,-1.55104 0.46176,-1.72584 0.54608,-1.94376 1.76198,-3.97449 l 0.12791,-3.74635 c 1.18769,-1.62518 1.80744,-2.58218 3.56309,-4.10713 0.70251,-1.38308 1.17116,-1.99775 1.97389,-3.01333 -3.62871,-0.17497 -4.65154,-0.95128 -6.60983,-2.26213 -1.24502,-1.48483 -0.98664,-3.83828 -0.59464,-6.19173 l 0.0439,-1.46228 c 2.68088,1.72949 3.15678,5.09601 5.33653,7.29323 0.95133,0.0146 0.59972,0.1963 1.31719,0.21093 l 1.76771,-2.01205 0.0277,-1.57872 c -0.71872,-0.34648 -1.00313,-0.89341 -2.39002,-0.8724 -0.17897,-0.41803 -0.39135,-1.50425 -0.23624,-2.59046 1.55915,-0.29924 3.16555,0.11019 6.18936,1.74812 0.6616,0.94637 0.45344,1.93576 0.56696,3.07106 1.04852,1.21729 1.54704,3.5564 1.03944,3.63803 2.66159,-1.11818 2.91358,-3.51203 4.34674,-6.04763 -0.70014,2.64294 0.39371,2.61434 0.80317,3.9215 0.315,0.96069 0.20478,2.81907 0.1418,4.63021 l -0.37797,0.37798 c 0.7504,2.30615 1.12654,5.09358 2.69308,4.44122 0.87334,-1.13963 0.51194,-2.76387 -0.56697,-5.29166 -0.15749,-3.22855 1.29142,-4.51997 2.69308,-6.89806 0.55122,-1.62215 1.19694,-3.66953 1.51192,-7.37054 0.62995,-1.14968 1.40165,-2.01588 1.79537,-5.05544 -1.6064,-0.11024 -0.56696,-1.55486 0.66147,-3.88571 0,0 -2.15762,-3.13835 -5.0082,-5.70544 l -4.91368,-2.26785 c -6.48499,-0.31698 -15.92664,-0.93463 -19.45496,-0.95093 0.67527,-1.32474 -0.63728,-2.54925 -1.03109,-3.79047 l -5.62772,0.44479 c -0.96546,1.12263 -1.69707,1.99469 -2.36185,3.26765 -0.33201,0.64793 -0.66402,2.94958 -0.4949,3.26342 0.52208,0.50429 1.1611,0.65779 2.05068,0.97834 0.29779,-0.23561 1.34727,-0.53804 1.86221,-0.12222 l 0.0501,-2.59572 0.88337,-1.07285 c 1.65621,-0.0563 1.87496,0.22035 1.68991,1.51715 0.68946,0.63378 1.22859,1.3845 2.1185,1.90135 -2.15817,1.15129 -1.70496,1.11657 -3.09684,2.31797 -0.44526,0.11077 -2.9659,0.39758 -3.81269,0.35554 -0.58558,-0.0813 -0.9373,-0.63029 -1.70662,-0.69487 l -0.923,2.02876 c -1.08452,0.9067 -1.39215,1.04719 -2.74557,1.751 -0.14187,2.03182 0.53477,2.86092 -1.57822,3.94059 -0.29877,0.24026 -0.74788,0.84802 -0.79609,1.55601 0.29205,0.72471 0.91819,2.40156 2.84727,1.82333 2.32343,-1.82978 1.75701,-2.22298 3.69624,-3.45141 l 1.91184,0.0501 c 0.74148,1.09511 1.51637,3.35953 1.85695,3.08489 1.22854,-0.62145 1.20293,-1.85701 -0.70633,-4.65788 -0.0296,-0.81182 0.89082,-0.52327 1.56153,-0.26727 0.49856,1.20331 0.83008,1.538 1.34535,2.25689 l 0.0277,3.54115 c 1.77661,1.99839 1.42717,0.19428 1.01175,-1.42839 l 1.99011,0.52783 c -0.55272,2.4498 1.14965,1.74249 2.51793,0.30018 0.11502,0.42252 0.21334,0.6947 0.59563,1.017 l -1.9133,2.12374 c -1.65318,-0.15591 -1.80297,-0.14477 -3.92388,-0.13363 -1.31085,-1.21576 -2.10387,-1.37915 -2.29553,0.0945 -0.68579,-0.4219 -1.16231,-0.7445 -2.05643,-1.0504 -0.41138,-0.64301 -0.73925,-0.96864 -1.13393,-2.07937 -1.80958,0.0372 -1.481,0.2081 -3.15695,-0.18899 -2.06938,2.14221 -2.6869,3.19801 -5.89303,5.25302 -0.84141,2.16577 -0.91443,2.59429 -1.87278,3.55735 z"
               id="path836"
               inkscape:connector-curvature="0"
               sodipodi:nodetypes="cccccccccccccccccccccccccccccccccccccccccccccccccccccccccccccccccccccccccccc" />
            <path
               style="fill:url(#linearGradient942);fill-opacity:1;stroke:#000800;stroke-width:1.26499999;stroke-linecap:butt;stroke-linejoin:round;stroke-miterlimit:4;stroke-dasharray:none;stroke-opacity:1"
               d="m 274.12722,152.04613 c -2.62646,-0.008 -5.31973,1.05314 -6.27575,1.01176 -0.46903,-2.24242 0.23125,-3.58281 2.43492,-5.89204 l 2.71836,0.0274 c 1.20969,0.48151 2.72213,1.14574 3.67382,1.92329 z"
               id="path838"
               inkscape:connector-curvature="0"
               sodipodi:nodetypes="cccccc" />
          </g>
          <path
             id="path830-6-0-1"
             d="m 237.89766,85.598186 a 41.816292,41.816292 0 0 0 -41.81657,41.816574 41.816292,41.816292 0 0 0 12.23802,29.52377 43.752203,43.752203 0 0 1 -2.45464,-14.29215 43.752203,43.752203 0 0 1 43.75237,-43.752366 43.752203,43.752203 0 0 1 24.31428,7.403166 41.816292,41.816292 0 0 0 -36.03346,-20.698994 z"
             style="fill:#ffffff;fill-opacity:0.58823529;stroke:none;stroke-width:0.07730991;stroke-miterlimit:4;stroke-dasharray:none;stroke-opacity:1"
             inkscape:connector-curvature="0" />
        </g>
        <circle
           style="fill:none;fill-opacity:1;stroke:#ffffff;stroke-width:1.0533787;stroke-miterlimit:4;stroke-dasharray:none;stroke-opacity:1"
           id="path830-5"
           cx="93.549126"
           cy="106.66444"
           r="42.368244" />
        <circle
           style="fill:none;fill-opacity:1;stroke:#000005;stroke-width:5.375;stroke-miterlimit:4;stroke-dasharray:none;stroke-opacity:1"
           id="path830"
           cx="93.549126"
           cy="106.66444"
           r="45.584709" />
        <g
           id="g857">
          <path
             style="fill:#646464;fill-opacity:1;stroke:none;stroke-width:4.39072895;stroke-linecap:round;stroke-linejoin:miter;stroke-miterlimit:4;stroke-dasharray:none;stroke-opacity:1;paint-order:normal;filter:url(#filter2984)"
             d="m 256.76091,69.109579 24.82546,0.07859 c 4.13808,0.662185 6.07742,2.996017 6.52688,5.997301 l 0.15717,21.587367 c -0.0585,2.248242 -1.03405,3.617203 -2.94842,5.305233 l -13.31845,9.13894 c -1.56693,1.22074 -3.79103,0.9244 -5.52528,-0.22172 l -12.86985,-9.17715 c -1.78267,-1.66794 -2.72183,-1.47105 -2.80049,-5.045303 V 74.767602 c 0.67615,-2.267939 3.01951,-4.671598 5.95298,-5.658023 z"
             id="rect984-6"
             inkscape:connector-curvature="0"
             sodipodi:nodetypes="ccccccccccc"
             transform="matrix(0.97819076,0,0,0.97914667,-145.74602,-16.979078)" />
          <path
             sodipodi:nodetypes="ccccccccccc"
             inkscape:connector-curvature="0"
             id="rect984"
             d="m 105.96306,53.612556 22.51746,0.06682 c 2.64651,0.06418 4.46996,1.489082 4.72617,4.275917 l 0.13363,19.176585 c -0.0498,1.91146 -0.87916,3.07535 -2.50676,4.51051 l -11.32335,7.76993 c -1.3322,1.03788 -3.22314,0.78593 -4.69759,-0.1885 l -10.94196,-7.80242 c -1.51563,-1.41808 -2.3141,-1.25069 -2.38098,-4.28952 V 58.423011 c -0.0425,-2.976077 2.267,-4.776582 4.47338,-4.810455 z"
             style="fill:#2eaae1;fill-opacity:0.99470901;stroke:#ffffff;stroke-width:3.73300004;stroke-linecap:round;stroke-linejoin:miter;stroke-miterlimit:4;stroke-dasharray:none;stroke-opacity:1;paint-order:normal" />
          <path
             sodipodi:nodetypes="ccc"
             inkscape:connector-curvature="0"
             id="path1007"
             d="m 108.56894,67.777444 7.08264,7.750817 11.75986,-13.096206"
             style="fill:none;stroke:#ffffff;stroke-width:4.06500006;stroke-linecap:butt;stroke-linejoin:miter;stroke-miterlimit:4;stroke-dasharray:none;stroke-opacity:1" />
        </g>
      </g>
      <g
         style="fill:#ffffff;fill-opacity:1"
         transform="translate(-1.1414723,2.412097)"
         id="g892">
        <g
           aria-label="Field"
           transform="matrix(1.0251672,0,0,0.97545064,1.7139915,-97.025151)"
           style="font-style:normal;font-variant:normal;font-weight:normal;font-stretch:normal;font-size:39.32118225px;line-height:1.25;font-family:'ChunkFive Ex';-inkscape-font-specification:'ChunkFive Ex, Normal';font-variant-ligatures:normal;font-variant-caps:normal;font-variant-numeric:normal;font-feature-settings:normal;text-align:start;letter-spacing:0px;word-spacing:0px;writing-mode:lr-tb;text-anchor:start;fill:#ffffff;fill-opacity:1;stroke:none;stroke-width:0.98302948"
           id="text4614">
          <path
             d="m 62.520517,168.52861 h 23.514067 v 8.68998 h -6.95985 V 173.719 h -5.937498 v 6.84189 h 7.471024 v 5.22972 h -7.471024 v 4.99379 h 4.01076 v 5.22971 H 62.520517 V 190.7844 H 64.95843 V 173.719 h -2.437913 z"
             style="fill:#ffffff;fill-opacity:1;stroke-width:0.98302948"
             id="path4720"
             inkscape:connector-curvature="0" />
          <path
             d="M 98.64378,196.01411 H 87.633849 v -5.15107 h 1.65149 v -9.39776 h -1.65149 v -5.11176 h 9.122515 v 14.50952 h 1.887416 z m -9.908938,-25.40148 q 0,-0.66846 0.275249,-1.37624 0.275248,-0.70778 0.786423,-1.2976 0.550497,-0.58982 1.336921,-0.94371 0.825744,-0.39321 1.848095,-0.39321 1.022351,0 1.808775,0.39321 0.825744,0.35389 1.376241,0.94371 0.550496,0.58982 0.825745,1.2976 0.314569,0.70778 0.314569,1.37624 0,1.65149 -1.100993,2.83113 -1.100993,1.14031 -3.224337,1.14031 -0.943708,0 -1.730132,-0.35389 -0.747102,-0.35389 -1.33692,-0.90439 -0.550497,-0.58982 -0.865066,-1.2976 -0.31457,-0.70778 -0.31457,-1.41556 z"
             style="fill:#ffffff;fill-opacity:1;stroke-width:0.98302948"
             id="path4722"
             inkscape:connector-curvature="0" />
          <path
             d="m 120.35215,193.30095 q -2.20199,1.88742 -4.6399,2.67384 -2.43792,0.74711 -5.50497,0.74711 -1.84809,0 -3.69619,-0.62914 -1.8481,-0.58982 -3.3423,-1.8481 -1.45488,-1.2976 -2.39859,-3.30298 -0.943711,-2.0447 -0.943711,-4.87582 0,-2.3986 0.825741,-4.28601 0.82575,-1.92674 2.24131,-3.26366 1.41556,-1.33692 3.3423,-2.00538 1.92674,-0.70778 4.16805,-0.70778 2.43791,0 4.28601,0.70778 1.88741,0.70778 3.14569,1.96606 1.25828,1.25827 1.88742,2.98841 0.62914,1.69081 0.62914,3.69619 0,0.78642 -0.11797,1.57285 -0.11796,0.7471 -0.35389,1.41556 h -12.38617 q 0.0786,0.39321 0.23593,0.94371 0.1966,0.55049 0.62914,1.06167 0.43253,0.51117 1.17963,0.86506 0.7471,0.35389 2.00538,0.35389 0.51118,0 1.10099,-0.0393 0.62914,-0.0393 1.33692,-0.23592 0.70779,-0.19661 1.49421,-0.5505 0.78642,-0.39321 1.57285,-1.06167 z m -9.71234,-12.18956 q -0.90438,0 -1.4942,0.35389 -0.5505,0.35389 -0.90439,0.86506 -0.31457,0.47186 -0.47185,1.02235 -0.11797,0.5505 -0.15729,0.90439 h 5.9375 q 0,-0.5505 -0.11796,-1.10099 -0.11797,-0.58982 -0.43254,-1.02235 -0.27524,-0.47186 -0.86506,-0.74711 -0.5505,-0.27524 -1.49421,-0.27524 z"
             style="fill:#ffffff;fill-opacity:1;stroke-width:0.98302948"
             id="path4724"
             inkscape:connector-curvature="0" />
          <path
             d="m 133.44487,196.01411 h -11.48178 v -5.15107 h 1.69081 v -19.26738 h -1.65149 v -5.07243 h 9.12251 v 24.33981 h 2.31995 z"
             style="fill:#ffffff;fill-opacity:1;stroke-width:0.98302948"
             id="path4726"
             inkscape:connector-curvature="0" />
          <path
             d="m 148.50611,171.63498 h -1.80877 v -5.11175 h 9.79097 v 24.37913 h 1.88742 v 5.11175 h -9.20116 l -0.66846,-1.45488 q -0.19661,0.19661 -0.62914,0.51118 -0.39321,0.27524 -1.02235,0.58981 -0.62914,0.27525 -1.45488,0.47186 -0.82575,0.23593 -1.8481,0.23593 -2.08402,0 -3.77483,-0.82575 -1.69081,-0.86507 -2.87045,-2.28063 -1.17963,-1.45488 -1.84809,-3.3423 -0.62914,-1.88742 -0.62914,-3.93212 0,-2.28063 0.7471,-4.12872 0.7471,-1.88742 2.00538,-3.18502 1.25828,-1.2976 2.90977,-2.00538 1.65149,-0.70778 3.46026,-0.70778 2.08402,0 3.22434,0.58982 1.17963,0.5505 1.73013,0.90439 z m -5.62293,14.35223 q 0,0.90439 0.19661,1.76946 0.1966,0.86506 0.55049,1.53352 0.39322,0.66846 0.90439,1.101 0.51118,0.43253 1.17964,0.43253 1.10099,0 1.92673,-1.21896 0.86507,-1.21895 0.86507,-3.3423 0,-1.10099 -0.19661,-2.0447 -0.1966,-0.94371 -0.58981,-1.65149 -0.35389,-0.70778 -0.90439,-1.10099 -0.51118,-0.39321 -1.14031,-0.39321 -1.25828,0 -2.04471,1.33692 -0.7471,1.33692 -0.7471,3.57822 z"
             style="fill:#ffffff;fill-opacity:1;stroke-width:0.98302948"
             id="path4728"
             inkscape:connector-curvature="0" />
        </g>
        <g
           aria-label="Manager"
           transform="matrix(1.0276895,0,0,0.97305656,40.549836,-97.025151)"
           style="font-style:normal;font-variant:normal;font-weight:normal;font-stretch:normal;font-size:38.81084824px;line-height:1.25;font-family:'ChunkFive Ex';-inkscape-font-specification:'ChunkFive Ex, Normal';font-variant-ligatures:normal;font-variant-caps:normal;font-variant-numeric:normal;font-feature-settings:normal;text-align:start;letter-spacing:0px;word-spacing:0px;writing-mode:lr-tb;text-anchor:start;fill:#ffffff;fill-opacity:1;stroke:none;stroke-width:0.97027117"
           id="text4618">
          <path
             d="m 51.512324,210.98769 q -0.116432,0.65979 -0.271675,1.436 -0.155244,0.77622 -0.310487,1.51363 -0.155244,0.69859 -0.310487,1.31957 -0.155243,0.58216 -0.232865,0.93146 l -4.075139,15.09742 h -8.111467 l -4.346815,-15.48553 q -0.07762,-0.23287 -0.194055,-0.73741 -0.116432,-0.54335 -0.232865,-1.20313 -0.116432,-0.65979 -0.232865,-1.39719 -0.116432,-0.73741 -0.155243,-1.47482 h -0.155244 v 15.29148 h 2.212219 v 5.0066 h -10.51774 v -5.0066 h 2.095786 v -17.11559 h -2.056975 v -5.0066 h 14.709311 l 3.919896,14.51526 3.725841,-14.51526 h 14.786933 v 5.0066 h -2.134596 v 17.07678 h 2.134596 v 5.04541 H 49.49416 v -5.04541 h 2.212219 v -15.25267 z"
             style="fill:#ffffff;fill-opacity:1;stroke-width:0.97027117"
             id="path4705"
             inkscape:connector-curvature="0" />
          <path
             d="m 64.118575,213.5104 q 0.582162,-0.3493 1.474812,-0.81503 0.892649,-0.46573 1.979353,-0.89265 1.125515,-0.46573 2.367462,-0.73741 1.280758,-0.31048 2.639138,-0.31048 1.746488,0 3.609408,0.38811 1.862921,0.34929 3.376544,1.28075 1.552434,0.89265 2.522705,2.44509 1.009082,1.55243 1.009082,3.88108 v 7.56812 h 2.328651 v 4.96779 h -8.305521 l -0.931461,-1.74649 q -0.543351,0.7374 -1.241947,1.24195 -0.659784,0.46573 -1.39719,0.7374 -0.698596,0.27168 -1.397191,0.38811 -0.698595,0.11643 -1.203136,0.11643 -1.397191,0 -2.75557,-0.38811 -1.35838,-0.3881 -2.445084,-1.16432 -1.086704,-0.77622 -1.785299,-1.97935 -0.659784,-1.24195 -0.659784,-2.94963 0,-1.63005 0.620973,-2.94962 0.659785,-1.31957 1.746489,-2.25103 1.125514,-0.93146 2.600326,-1.436 1.474813,-0.50455 3.104868,-0.50455 0.853839,0 1.513623,0.19406 0.698596,0.15524 1.164326,0.38811 0.504541,0.23286 0.776217,0.46573 0.310486,0.23286 0.388108,0.31048 v -1.35838 q 0,-1.31956 -1.047893,-1.74648 -1.047893,-0.42692 -2.639137,-0.42692 -1.746489,0 -3.221301,0.58216 -1.436001,0.58216 -2.561516,1.20314 z m 8.616008,13.46736 q 0.892649,0 1.552434,-0.42692 0.659784,-0.42692 0.93146,-0.85384 v -1.47481 q -0.03881,-0.0776 -0.194054,-0.23286 -0.116433,-0.19406 -0.388109,-0.38811 -0.271675,-0.19406 -0.698595,-0.3493 -0.388108,-0.15524 -1.009082,-0.15524 -1.164325,0 -1.707677,0.58216 -0.543352,0.58216 -0.543352,1.47481 0,0.81503 0.582163,1.31957 0.582162,0.50454 1.474812,0.50454 z"
             style="fill:#ffffff;fill-opacity:1;stroke-width:0.97027117"
             id="path4707"
             inkscape:connector-curvature="0" />
          <path
             d="M 98.916744,231.28577 H 86.963002 v -5.08422 h 1.630056 v -9.2758 h -1.630056 v -5.04541 h 8.266711 l 0.892649,2.40628 q 1.009083,-1.35838 2.328651,-2.21222 1.35838,-0.89265 3.221297,-0.89265 2.25103,0 3.60941,0.77621 1.39719,0.73741 2.1346,1.97936 0.77622,1.20313 1.00908,2.75557 0.27168,1.51362 0.27168,3.02724 v 6.48142 h 1.82411 v 5.08422 h -9.78034 v -10.59536 q 0,-0.50455 -0.0388,-1.12552 0,-0.62097 -0.19405,-1.16433 -0.19406,-0.54335 -0.659786,-0.93146 -0.426919,-0.3881 -1.280758,-0.3881 -0.737406,0 -1.241947,0.34929 -0.46573,0.31049 -0.737406,0.85384 -0.271676,0.50454 -0.388109,1.16433 -0.07762,0.62097 -0.07762,1.24195 v 5.51114 h 2.794382 z"
             style="fill:#ffffff;fill-opacity:1;stroke-width:0.97027117"
             id="path4709"
             inkscape:connector-curvature="0" />
          <path
             d="m 112.48053,213.5104 q 0.58216,-0.3493 1.47481,-0.81503 0.89265,-0.46573 1.97935,-0.89265 1.12552,-0.46573 2.36747,-0.73741 1.28075,-0.31048 2.63913,-0.31048 1.74649,0 3.60941,0.38811 1.86292,0.34929 3.37655,1.28075 1.55243,0.89265 2.5227,2.44509 1.00908,1.55243 1.00908,3.88108 v 7.56812 h 2.32865 v 4.96779 h -8.30552 l -0.93146,-1.74649 q -0.54335,0.7374 -1.24195,1.24195 -0.65978,0.46573 -1.39719,0.7374 -0.69859,0.27168 -1.39719,0.38811 -0.69859,0.11643 -1.20313,0.11643 -1.39719,0 -2.75557,-0.38811 -1.35838,-0.3881 -2.44509,-1.16432 -1.0867,-0.77622 -1.7853,-1.97935 -0.65978,-1.24195 -0.65978,-2.94963 0,-1.63005 0.62097,-2.94962 0.65979,-1.31957 1.74649,-2.25103 1.12552,-0.93146 2.60033,-1.436 1.47481,-0.50455 3.10487,-0.50455 0.85384,0 1.51362,0.19406 0.6986,0.15524 1.16433,0.38811 0.50454,0.23286 0.77621,0.46573 0.31049,0.23286 0.38811,0.31048 v -1.35838 q 0,-1.31956 -1.04789,-1.74648 -1.04789,-0.42692 -2.63914,-0.42692 -1.74649,0 -3.2213,0.58216 -1.436,0.58216 -2.56152,1.20314 z m 8.61601,13.46736 q 0.89265,0 1.55243,-0.42692 0.65978,-0.42692 0.93146,-0.85384 v -1.47481 q -0.0388,-0.0776 -0.19405,-0.23286 -0.11644,-0.19406 -0.38811,-0.38811 -0.27168,-0.19406 -0.6986,-0.3493 -0.38811,-0.15524 -1.00908,-0.15524 -1.16432,0 -1.70768,0.58216 -0.54335,0.58216 -0.54335,1.47481 0,0.81503 0.58216,1.31957 0.58217,0.50454 1.47482,0.50454 z"
             style="fill:#ffffff;fill-opacity:1;stroke-width:0.97027117"
             id="path4711"
             inkscape:connector-curvature="0" />
          <path
             d="m 137.34312,231.51863 q 0.3493,0.31049 1.00908,0.6986 0.6986,0.42692 1.59125,0.81502 0.89265,0.42692 1.94054,0.6986 1.0867,0.27168 2.21222,0.27168 1.31957,0 2.17341,-0.3493 0.85383,-0.3493 1.35837,-0.89265 0.54336,-0.50454 0.73741,-1.16433 0.23287,-0.62097 0.23287,-1.24194 v -1.31957 q -0.19406,0.27167 -0.58217,0.65978 -0.38811,0.3493 -0.97027,0.6986 -0.54335,0.31048 -1.31957,0.54335 -0.7374,0.23286 -1.66886,0.23286 -2.52271,0 -4.30801,-0.81502 -1.74649,-0.85384 -2.872,-2.21222 -1.0867,-1.35838 -1.63006,-3.10487 -0.50454,-1.74649 -0.50454,-3.5706 0,-2.25103 0.62098,-4.07514 0.62097,-1.86292 1.82411,-3.14368 1.24194,-1.31956 3.06605,-2.01816 1.82411,-0.73741 4.23039,-0.73741 1.28075,0 2.40627,0.50455 1.12551,0.50454 1.70768,1.0867 l 0.77621,-1.20314 h 9.23698 v 5.08422 h -2.32865 v 11.60445 q 0,2.40627 -0.7374,4.34681 -0.73741,1.97936 -2.25103,3.37655 -1.51362,1.39719 -3.80346,2.1734 -2.25103,0.77622 -5.31709,0.77622 -1.59125,0 -2.98844,-0.3493 -1.35838,-0.34929 -2.5227,-0.89265 -1.12552,-0.50454 -1.97935,-1.0867 -0.85384,-0.58216 -1.39719,-1.0867 z M 143.0095,221.389 q 0,0.89265 0.19406,1.74649 0.19405,0.85384 0.54335,1.51362 0.38811,0.65979 0.89265,1.08671 0.50454,0.42691 1.16433,0.42691 1.0867,0 1.90173,-1.20313 0.85384,-1.20314 0.85384,-3.29892 0,-1.08671 -0.19406,-2.01817 -0.19405,-0.93146 -0.58216,-1.63005 -0.3493,-0.6986 -0.89265,-1.08671 -0.50454,-0.38811 -1.12552,-0.38811 -1.24194,0 -2.01816,1.31957 -0.73741,1.31957 -0.73741,3.53179 z"
             style="fill:#ffffff;fill-opacity:1;stroke-width:0.97027117"
             id="path4713"
             inkscape:connector-curvature="0" />
          <path
             d="m 179.67121,228.60782 q -2.17341,1.86292 -4.57968,2.63914 -2.40628,0.7374 -5.43352,0.7374 -1.82411,0 -3.64822,-0.62097 -1.82411,-0.58216 -3.29892,-1.82411 -1.43601,-1.28076 -2.36747,-3.26011 -0.93146,-2.01817 -0.93146,-4.81255 0,-2.36746 0.81503,-4.23038 0.81503,-1.90173 2.21222,-3.2213 1.39719,-1.31957 3.29892,-1.97935 1.90173,-0.6986 4.11395,-0.6986 2.40627,0 4.23038,0.6986 1.86293,0.69859 3.10487,1.94054 1.24195,1.24195 1.86292,2.94962 0.62098,1.66887 0.62098,3.64822 0,0.77622 -0.11644,1.55244 -0.11643,0.7374 -0.34929,1.39719 h -12.22542 q 0.0776,0.38811 0.23286,0.93146 0.19406,0.54335 0.62098,1.04789 0.42692,0.50454 1.16432,0.85384 0.73741,0.3493 1.97936,0.3493 0.50454,0 1.0867,-0.0388 0.62097,-0.0388 1.31957,-0.23287 0.69859,-0.19405 1.47481,-0.54335 0.77622,-0.38811 1.55244,-1.04789 z m -9.58628,-12.03136 q -0.89265,0 -1.47481,0.34929 -0.54336,0.3493 -0.89265,0.85384 -0.31049,0.46573 -0.46573,1.00908 -0.11644,0.54336 -0.15525,0.89265 h 5.86044 q 0,-0.54335 -0.11643,-1.0867 -0.11644,-0.58216 -0.42692,-1.00908 -0.27168,-0.46573 -0.85384,-0.73741 -0.54335,-0.27167 -1.47481,-0.27167 z"
             style="fill:#ffffff;fill-opacity:1;stroke-width:0.97027117"
             id="path4715"
             inkscape:connector-curvature="0" />
          <path
             d="m 192.24471,231.28577 h -10.98347 v -5.08422 h 1.70767 v -9.2758 h -1.66886 v -5.04541 h 7.29644 l 1.16432,2.4839 q 0.38811,-0.6986 0.81503,-1.31957 0.42692,-0.62098 1.0867,-1.08671 0.65979,-0.50454 1.63006,-0.77621 0.97027,-0.27168 2.48389,-0.27168 v 6.98595 q -2.63914,0 -4.07514,0.89265 -1.39719,0.85384 -1.39719,3.41536 v 3.99752 h 1.94055 z"
             style="fill:#ffffff;fill-opacity:1;stroke-width:0.97027117"
             id="path4717"
             inkscape:connector-curvature="0" />
        </g>
      </g>
    </g>
  </g>
</svg>
