<?xml version="1.0" encoding="UTF-8" standalone="no"?>
<!-- Created with Inkscape (http://www.inkscape.org/) -->

<svg
   xmlns:osb="http://www.openswatchbook.org/uri/2009/osb"
   xmlns:dc="http://purl.org/dc/elements/1.1/"
   xmlns:cc="http://creativecommons.org/ns#"
   xmlns:rdf="http://www.w3.org/1999/02/22-rdf-syntax-ns#"
   xmlns:svg="http://www.w3.org/2000/svg"
   xmlns="http://www.w3.org/2000/svg"
   xmlns:xlink="http://www.w3.org/1999/xlink"
   xmlns:sodipodi="http://sodipodi.sourceforge.net/DTD/sodipodi-0.dtd"
   xmlns:inkscape="http://www.inkscape.org/namespaces/inkscape"
   width="100%"
   height="100%"
   viewBox="0 0 113 113"
   version="1.1"
   id="svg8"
   inkscape:version="0.92.2 (5c3e80d, 2017-08-06)"
   sodipodi:docname="logosolo.svg">
  <defs
     id="defs2">
    <linearGradient
       id="linearGradient860"
       inkscape:collect="always">
      <stop
         id="stop856"
         offset="0"
         style="stop-color:#ffffff;stop-opacity:1" />
      <stop
         id="stop858"
         offset="1"
         style="stop-color:#2eaae1;stop-opacity:1" />
    </linearGradient>
    <linearGradient
       inkscape:collect="always"
       id="linearGradient883">
      <stop
         style="stop-color:#ffffff;stop-opacity:1"
         offset="0"
         id="stop875" />
      <stop
         id="stop4563"
         offset="0.22441445"
         style="stop-color:#eff9fd;stop-opacity:1" />
      <stop
         id="stop877"
         offset="0.51278996"
         style="stop-color:#c2e6f6;stop-opacity:1" />
      <stop
         id="stop879"
         offset="0.76909596"
         style="stop-color:#7ecbec;stop-opacity:1" />
      <stop
         style="stop-color:#2eaae1;stop-opacity:1"
         offset="1"
         id="stop881" />
    </linearGradient>
    <linearGradient
       id="linearGradient2807"
       osb:paint="solid">
      <stop
         style="stop-color:#000000;stop-opacity:1;"
         offset="0"
         id="stop2805" />
    </linearGradient>
    <linearGradient
       inkscape:collect="always"
       id="linearGradient904">
      <stop
         style="stop-color:#ffffff;stop-opacity:0.98958331"
         offset="0"
         id="stop900" />
      <stop
         id="stop910"
         offset="0.5660879"
         style="stop-color:#afba03;stop-opacity:1" />
      <stop
         style="stop-color:#ffffff;stop-opacity:1"
         offset="1"
         id="stop902" />
    </linearGradient>
    <linearGradient
       id="linearGradient980"
       inkscape:collect="always">
      <stop
         id="stop976"
         offset="0"
         style="stop-color:#ffffff;stop-opacity:1" />
      <stop
         style="stop-color:#dff3f9;stop-opacity:1"
         offset="0.34767917"
         id="stop1523" />
      <stop
         style="stop-color:#61c3e0;stop-opacity:1"
         offset="0.75857234"
         id="stop982" />
      <stop
         id="stop978"
         offset="1"
         style="stop-color:#2aabe4;stop-opacity:1" />
    </linearGradient>
    <linearGradient
       inkscape:collect="always"
       id="linearGradient936">
      <stop
         style="stop-color:#ffffff;stop-opacity:1"
         offset="0"
         id="stop932" />
      <stop
         style="stop-color:#2aabe4;stop-opacity:1"
         offset="1"
         id="stop934" />
    </linearGradient>
    <radialGradient
       gradientTransform="translate(129.83483,-0.18898583)"
       inkscape:collect="always"
       xlink:href="#linearGradient980"
       id="radialGradient938-5"
       cx="108.10119"
       cy="127.64211"
       fx="108.10119"
       fy="127.64211"
       r="41.854946"
       gradientUnits="userSpaceOnUse" />
    <radialGradient
       gradientTransform="translate(129.83483,-0.18898583)"
       inkscape:collect="always"
       xlink:href="#linearGradient936"
       id="radialGradient960-5"
       cx="108.10119"
       cy="127.64211"
       fx="108.10119"
       fy="127.64211"
       r="41.854946"
       gradientUnits="userSpaceOnUse" />
    <linearGradient
       inkscape:collect="always"
       xlink:href="#linearGradient904"
       id="linearGradient908"
       gradientUnits="userSpaceOnUse"
       x1="233.77725"
       y1="102.14072"
       x2="265.07211"
       y2="148.96956" />
    <linearGradient
       inkscape:collect="always"
       xlink:href="#linearGradient904"
       id="linearGradient918"
       x1="197.73479"
       y1="101.16531"
       x2="225.82541"
       y2="146.23314"
       gradientUnits="userSpaceOnUse" />
    <linearGradient
       inkscape:collect="always"
       xlink:href="#linearGradient904"
       id="linearGradient934"
       x1="219.34966"
       y1="97.381294"
       x2="225.46281"
       y2="104.7046"
       gradientUnits="userSpaceOnUse" />
    <linearGradient
       inkscape:collect="always"
       xlink:href="#linearGradient904"
       id="linearGradient942"
       x1="269.54153"
       y1="147.84494"
       x2="274.69418"
       y2="152.23512"
       gradientUnits="userSpaceOnUse" />
    <radialGradient
       inkscape:collect="always"
       xlink:href="#linearGradient883"
       id="radialGradient959"
       gradientUnits="userSpaceOnUse"
       gradientTransform="translate(129.83484,-0.18898583)"
       cx="108.10119"
       cy="127.64211"
       fx="108.10119"
       fy="127.64211"
       r="41.854946" />
    <radialGradient
       inkscape:collect="always"
       xlink:href="#linearGradient860"
       id="radialGradient961"
       gradientUnits="userSpaceOnUse"
       gradientTransform="translate(129.83484,-0.18898583)"
       cx="108.10119"
       cy="127.64211"
       fx="108.10119"
       fy="127.64211"
       r="41.854946" />
    <filter
       style="color-interpolation-filters:sRGB"
       inkscape:label="Blur"
       id="filter2984">
      <feGaussianBlur
         stdDeviation="1 1"
         result="blur"
         id="feGaussianBlur2982" />
    </filter>
  </defs>
  <sodipodi:namedview
     id="base"
     pagecolor="#ffffff"
     bordercolor="#666666"
     borderopacity="1.0"
     inkscape:pageopacity="0.0"
     inkscape:pageshadow="2"
     inkscape:zoom="1.979899"
     inkscape:cx="-136.64476"
     inkscape:cy="80.2978"
     inkscape:document-units="mm"
     inkscape:current-layer="g857"
     showgrid="false"
     inkscape:window-width="1366"
     inkscape:window-height="705"
     inkscape:window-x="1672"
     inkscape:window-y="269"
     inkscape:window-maximized="1"
     fit-margin-top="0"
     fit-margin-left="0"
     fit-margin-right="0"
     fit-margin-bottom="0" />
  <metadata
     id="metadata5">
    <rdf:RDF>
      <cc:Work
         rdf:about="">
        <dc:format>image/svg+xml</dc:format>
        <dc:type
           rdf:resource="http://purl.org/dc/dcmitype/StillImage" />
        <dc:title />
      </cc:Work>
    </rdf:RDF>
  </metadata>
  <g
     inkscape:label="Capa 1"
     inkscape:groupmode="layer"
     id="layer1"
     transform="translate(-56.727791,-41.936646)">
    <g
       id="g873"
       transform="translate(19.678665,-4.552673)">
      <g
         transform="translate(-144.3869,-20.78869)"
         id="g883">
        <circle
           style="fill:url(#radialGradient959);fill-opacity:1;stroke:url(#radialGradient961);stroke-width:0.07730991;stroke-miterlimit:4;stroke-dasharray:none;stroke-opacity:1"
           id="path830-6-0"
           cx="237.93604"
           cy="127.45313"
           r="41.816292" />
        <g
           id="g844">
          <path
             sodipodi:nodetypes="ccccccccssccccccccccccccccccccccccccccccc"
             inkscape:connector-curvature="0"
             id="path833"
             d="m 216.41004,154.31049 -3.56901,-3.49882 -0.0472,-4.20614 -2.26369,-3.67831 -0.0162,-2.82254 -2.0747,-4.29924 -2.75631,-3.38255 c -0.63207,-1.32989 -0.79167,-1.99831 -1.89622,-3.56443 0,0 -2.92411,-3.32179 -3.84475,-6.35304 -0.71171,-2.34336 0.27022,-5.88886 -0.22141,-7.79945 -0.25477,-0.99008 -1.51723,-2.39061 -1.51723,-2.39061 l 2.1773,-3.40154 2.7834,-1.35256 3.60814,-4.54358 8.7335,-4.693434 -3.17619,3.679704 3.01153,3.49743 -2.99532,1.60362 -0.94276,-0.53435 -0.83364,-1.7928 -1.16714,1.81673 -1.28552,1.39861 -1.02995,2.86979 2.7672,0.80181 1.42273,-2.55527 2.02073,0.0864 2.52285,2.31905 -4.1656,6.09995 -0.51162,1.38359 -5.40074,6.28894 0.13363,2.43647 2.55527,3.34897 c 1.47269,0.57908 2.94537,0.82744 4.13458,1.87899 l 0.89631,-0.37798 1.60361,1.35256 0.26727,1.64276 6.57914,3.9618 0.13363,3.8673 -1.54826,3.66349 -4.07251,4.50444 z"
             style="fill:url(#linearGradient918);fill-opacity:1;stroke:#000000;stroke-width:1.26499999;stroke-linecap:butt;stroke-linejoin:round;stroke-miterlimit:4;stroke-dasharray:none;stroke-opacity:1" />
          <path
             sodipodi:nodetypes="ccccccsccccc"
             inkscape:connector-curvature="0"
             id="path834"
             d="m 219.79315,108.29538 c -1.70089,-3.81126 -1.70089,-6.20511 -2.64583,-9.165918 l 1.41741,-1.889881 4.15774,-0.850445 c 2.11036,-0.976439 2.51984,-1.29142 5.48065,-1.795389 l 1.79539,-0.944938 c 0,0 1.36929,0.231991 1.6064,0.944941 0.3917,1.177744 -0.84629,3.117264 -1.41741,4.535712 -1.38591,1.291418 -2.29935,3.055298 -3.40178,4.630198 l -4.63021,1.22844 -0.51743,1.30785 z"
             style="fill:url(#linearGradient934);fill-opacity:1;stroke:#000000;stroke-width:1.26499999;stroke-linecap:butt;stroke-linejoin:round;stroke-miterlimit:4;stroke-dasharray:none;stroke-opacity:1" />
          <path
             sodipodi:nodetypes="cccccccccccccccccccccccccccccccccccccccccccccccccccccccccccccccccccccccccccc"
             inkscape:connector-curvature="0"
             id="path836"
             d="m 229.32608,130.11777 c 0.94319,2.21775 1.1848,5.12038 2.59572,6.75347 1.0373,1.30205 5.18161,1.65175 6.85368,1.55677 0.84969,0.93779 0.71381,1.5916 0.71158,2.39576 0.12929,0.54259 0.54256,3.07299 2.59285,3.51536 -0.27962,0.52398 0.0601,1.14777 -1.09814,1.17545 -0.21165,1.85609 1.38078,9.5587 3.70819,9.64412 2.55364,-0.32862 3.13616,-1.85996 3.58504,-2.95699 0.6726,-0.42792 1.47883,-0.82244 1.95097,-1.55104 0.46176,-1.72584 0.54608,-1.94376 1.76198,-3.97449 l 0.12791,-3.74635 c 1.18769,-1.62518 1.80744,-2.58218 3.56309,-4.10713 0.70251,-1.38308 1.17116,-1.99775 1.97389,-3.01333 -3.62871,-0.17497 -4.65154,-0.95128 -6.60983,-2.26213 -1.24502,-1.48483 -0.98664,-3.83828 -0.59464,-6.19173 l 0.0439,-1.46228 c 2.68088,1.72949 3.15678,5.09601 5.33653,7.29323 0.95133,0.0146 0.59972,0.1963 1.31719,0.21093 l 1.76771,-2.01205 0.0277,-1.57872 c -0.71872,-0.34648 -1.00313,-0.89341 -2.39002,-0.8724 -0.17897,-0.41803 -0.39135,-1.50425 -0.23624,-2.59046 1.55915,-0.29924 3.16555,0.11019 6.18936,1.74812 0.6616,0.94637 0.45344,1.93576 0.56696,3.07106 1.04852,1.21729 1.54704,3.5564 1.03944,3.63803 2.66159,-1.11818 2.91358,-3.51203 4.34674,-6.04763 -0.70014,2.64294 0.39371,2.61434 0.80317,3.9215 0.315,0.96069 0.20478,2.81907 0.1418,4.63021 l -0.37797,0.37798 c 0.7504,2.30615 1.12654,5.09358 2.69308,4.44122 0.87334,-1.13963 0.51194,-2.76387 -0.56697,-5.29166 -0.15749,-3.22855 1.29142,-4.51997 2.69308,-6.89806 0.55122,-1.62215 1.19694,-3.66953 1.51192,-7.37054 0.62995,-1.14968 1.40165,-2.01588 1.79537,-5.05544 -1.6064,-0.11024 -0.56696,-1.55486 0.66147,-3.88571 0,0 -2.15762,-3.13835 -5.0082,-5.70544 l -4.91368,-2.26785 c -6.48499,-0.31698 -15.92664,-0.93463 -19.45496,-0.95093 0.67527,-1.32474 -0.63728,-2.54925 -1.03109,-3.79047 l -5.62772,0.44479 c -0.96546,1.12263 -1.69707,1.99469 -2.36185,3.26765 -0.33201,0.64793 -0.66402,2.94958 -0.4949,3.26342 0.52208,0.50429 1.1611,0.65779 2.05068,0.97834 0.29779,-0.23561 1.34727,-0.53804 1.86221,-0.12222 l 0.0501,-2.59572 0.88337,-1.07285 c 1.65621,-0.0563 1.87496,0.22035 1.68991,1.51715 0.68946,0.63378 1.22859,1.3845 2.1185,1.90135 -2.15817,1.15129 -1.70496,1.11657 -3.09684,2.31797 -0.44526,0.11077 -2.9659,0.39758 -3.81269,0.35554 -0.58558,-0.0813 -0.9373,-0.63029 -1.70662,-0.69487 l -0.923,2.02876 c -1.08452,0.9067 -1.39215,1.04719 -2.74557,1.751 -0.14187,2.03182 0.53477,2.86092 -1.57822,3.94059 -0.29877,0.24026 -0.74788,0.84802 -0.79609,1.55601 0.29205,0.72471 0.91819,2.40156 2.84727,1.82333 2.32343,-1.82978 1.75701,-2.22298 3.69624,-3.45141 l 1.91184,0.0501 c 0.74148,1.09511 1.51637,3.35953 1.85695,3.08489 1.22854,-0.62145 1.20293,-1.85701 -0.70633,-4.65788 -0.0296,-0.81182 0.89082,-0.52327 1.56153,-0.26727 0.49856,1.20331 0.83008,1.538 1.34535,2.25689 l 0.0277,3.54115 c 1.77661,1.99839 1.42717,0.19428 1.01175,-1.42839 l 1.99011,0.52783 c -0.55272,2.4498 1.14965,1.74249 2.51793,0.30018 0.11502,0.42252 0.21334,0.6947 0.59563,1.017 l -1.9133,2.12374 c -1.65318,-0.15591 -1.80297,-0.14477 -3.92388,-0.13363 -1.31085,-1.21576 -2.10387,-1.37915 -2.29553,0.0945 -0.68579,-0.4219 -1.16231,-0.7445 -2.05643,-1.0504 -0.41138,-0.64301 -0.73925,-0.96864 -1.13393,-2.07937 -1.80958,0.0372 -1.481,0.2081 -3.15695,-0.18899 -2.06938,2.14221 -2.6869,3.19801 -5.89303,5.25302 -0.84141,2.16577 -0.91443,2.59429 -1.87278,3.55735 z"
             style="fill:url(#linearGradient908);fill-opacity:1;stroke:#000000;stroke-width:1.26499999;stroke-linecap:butt;stroke-linejoin:round;stroke-miterlimit:4;stroke-dasharray:none;stroke-opacity:1" />
          <path
             sodipodi:nodetypes="cccccc"
             inkscape:connector-curvature="0"
             id="path838"
             d="m 274.12722,152.04613 c -2.62646,-0.008 -5.31973,1.05314 -6.27575,1.01176 -0.46903,-2.24242 0.23125,-3.58281 2.43492,-5.89204 l 2.71836,0.0274 c 1.20969,0.48151 2.72213,1.14574 3.67382,1.92329 z"
             style="fill:url(#linearGradient942);fill-opacity:1;stroke:#000800;stroke-width:1.26499999;stroke-linecap:butt;stroke-linejoin:round;stroke-miterlimit:4;stroke-dasharray:none;stroke-opacity:1" />
        </g>
        <path
           inkscape:connector-curvature="0"
           style="fill:#ffffff;fill-opacity:0.58823529;stroke:none;stroke-width:0.07730991;stroke-miterlimit:4;stroke-dasharray:none;stroke-opacity:1"
           d="m 237.89766,85.598186 a 41.816292,41.816292 0 0 0 -41.81657,41.816574 41.816292,41.816292 0 0 0 12.23802,29.52377 43.752203,43.752203 0 0 1 -2.45464,-14.29215 43.752203,43.752203 0 0 1 43.75237,-43.752366 43.752203,43.752203 0 0 1 24.31428,7.403166 41.816292,41.816292 0 0 0 -36.03346,-20.698994 z"
           id="path830-6-0-1" />
      </g>
      <circle
         r="42.368244"
         cy="106.66444"
         cx="93.549126"
         id="path830-5"
         style="fill:none;fill-opacity:1;stroke:#ffffff;stroke-width:1.0533787;stroke-miterlimit:4;stroke-dasharray:none;stroke-opacity:1" />
      <circle
         r="45.584709"
         cy="106.66444"
         cx="93.549126"
         id="path830"
         style="fill:none;fill-opacity:1;stroke:#000005;stroke-width:5.375;stroke-miterlimit:4;stroke-dasharray:none;stroke-opacity:1" />
      <g
         id="g857">
        <path
           transform="matrix(0.97819076,0,0,0.97914667,-145.74602,-16.979078)"
           sodipodi:nodetypes="ccccccccccc"
           inkscape:connector-curvature="0"
           id="rect984-6"
           d="m 256.76091,69.109579 24.82546,0.07859 c 4.13808,0.662185 6.07742,2.996017 6.52688,5.997301 l 0.15717,21.587367 c -0.0585,2.248242 -1.03405,3.617203 -2.94842,5.305233 l -13.31845,9.13894 c -1.56693,1.22074 -3.79103,0.9244 -5.52528,-0.22172 l -12.86985,-9.17715 c -1.78267,-1.66794 -2.72183,-1.47105 -2.80049,-5.045303 V 74.767602 c 0.67615,-2.267939 3.01951,-4.671598 5.95298,-5.658023 z"
           style="fill:#646464;fill-opacity:1;stroke:none;stroke-width:4.39072895;stroke-linecap:round;stroke-linejoin:miter;stroke-miterlimit:4;stroke-dasharray:none;stroke-opacity:1;paint-order:normal;filter:url(#filter2984)" />
        <path
           style="fill:#2eaae1;fill-opacity:1;stroke:#ffffff;stroke-width:3.73300004;stroke-linecap:round;stroke-linejoin:miter;stroke-miterlimit:4;stroke-dasharray:none;stroke-opacity:1;paint-order:normal"
           d="m 105.96306,53.612556 22.51746,0.06682 c 2.64651,0.06418 4.46996,1.489082 4.72617,4.275917 l 0.13363,19.176585 c -0.0498,1.91146 -0.87916,3.07535 -2.50676,4.51051 l -11.32335,7.76993 c -1.3322,1.03788 -3.22314,0.78593 -4.69759,-0.1885 l -10.94196,-7.80242 c -1.51563,-1.41808 -2.3141,-1.25069 -2.38098,-4.28952 V 58.423011 c -0.0425,-2.976077 2.267,-4.776582 4.47338,-4.810455 z"
           id="rect984"
           inkscape:connector-curvature="0"
           sodipodi:nodetypes="ccccccccccc" />
        <path
           style="fill:none;stroke:#ffffff;stroke-width:4.06500006;stroke-linecap:butt;stroke-linejoin:miter;stroke-miterlimit:4;stroke-dasharray:none;stroke-opacity:1"
           d="m 108.56894,67.777444 7.08264,7.750817 11.75986,-13.096206"
           id="path1007"
           inkscape:connector-curvature="0"
           sodipodi:nodetypes="ccc" />
      </g>
    </g>
  </g>
</svg>
